G04 EAGLE Gerber RS-274X export*
G75*
%MOMM*%
%FSLAX34Y34*%
%LPD*%
%INBottom Copper*%
%IPPOS*%
%AMOC8*
5,1,8,0,0,1.08239X$1,22.5*%
G01*
%ADD10C,4.445000*%
%ADD11R,1.651000X1.651000*%
%ADD12C,1.651000*%
%ADD13R,1.524000X1.524000*%
%ADD14P,1.649562X8X22.500000*%
%ADD15C,0.756400*%
%ADD16C,0.508000*%

G36*
X543989Y16777D02*
X543989Y16777D01*
X544088Y16780D01*
X544146Y16797D01*
X544206Y16805D01*
X544298Y16841D01*
X544393Y16869D01*
X544445Y16899D01*
X544502Y16922D01*
X544582Y16980D01*
X544667Y17030D01*
X544743Y17096D01*
X544759Y17108D01*
X544767Y17118D01*
X544788Y17136D01*
X551039Y23388D01*
X551058Y23411D01*
X551080Y23430D01*
X551155Y23536D01*
X551234Y23639D01*
X551246Y23666D01*
X551263Y23690D01*
X551309Y23812D01*
X551361Y23931D01*
X551365Y23960D01*
X551376Y23988D01*
X551390Y24117D01*
X551411Y24245D01*
X551408Y24274D01*
X551411Y24304D01*
X551393Y24432D01*
X551381Y24562D01*
X551371Y24589D01*
X551367Y24619D01*
X551315Y24771D01*
X547750Y33376D01*
X547750Y42824D01*
X551366Y51553D01*
X558047Y58234D01*
X566776Y61850D01*
X576224Y61850D01*
X584829Y58285D01*
X584857Y58278D01*
X584884Y58264D01*
X585011Y58236D01*
X585136Y58202D01*
X585165Y58201D01*
X585194Y58195D01*
X585324Y58199D01*
X585454Y58196D01*
X585482Y58203D01*
X585512Y58204D01*
X585636Y58240D01*
X585763Y58271D01*
X585789Y58284D01*
X585817Y58293D01*
X585929Y58359D01*
X586044Y58419D01*
X586066Y58439D01*
X586091Y58454D01*
X586212Y58561D01*
X592464Y64812D01*
X592524Y64890D01*
X592592Y64962D01*
X592621Y65015D01*
X592658Y65063D01*
X592698Y65154D01*
X592746Y65241D01*
X592761Y65299D01*
X592785Y65355D01*
X592800Y65453D01*
X592825Y65549D01*
X592831Y65649D01*
X592835Y65669D01*
X592833Y65681D01*
X592835Y65709D01*
X592835Y404191D01*
X592823Y404289D01*
X592820Y404388D01*
X592803Y404446D01*
X592795Y404506D01*
X592759Y404598D01*
X592731Y404693D01*
X592701Y404745D01*
X592678Y404802D01*
X592620Y404882D01*
X592570Y404967D01*
X592504Y405043D01*
X592492Y405059D01*
X592482Y405067D01*
X592464Y405088D01*
X586212Y411339D01*
X586189Y411358D01*
X586170Y411380D01*
X586064Y411455D01*
X585961Y411534D01*
X585934Y411546D01*
X585910Y411563D01*
X585788Y411609D01*
X585669Y411661D01*
X585640Y411665D01*
X585612Y411676D01*
X585483Y411690D01*
X585355Y411711D01*
X585326Y411708D01*
X585296Y411711D01*
X585168Y411693D01*
X585038Y411681D01*
X585011Y411671D01*
X584981Y411667D01*
X584829Y411615D01*
X576224Y408050D01*
X566776Y408050D01*
X558047Y411666D01*
X551366Y418347D01*
X547750Y427076D01*
X547750Y436524D01*
X551315Y445129D01*
X551322Y445157D01*
X551336Y445184D01*
X551364Y445311D01*
X551398Y445436D01*
X551399Y445465D01*
X551405Y445494D01*
X551401Y445624D01*
X551404Y445754D01*
X551397Y445782D01*
X551396Y445812D01*
X551360Y445936D01*
X551329Y446063D01*
X551316Y446089D01*
X551307Y446117D01*
X551241Y446229D01*
X551181Y446344D01*
X551161Y446366D01*
X551146Y446391D01*
X551039Y446512D01*
X544788Y452764D01*
X544710Y452824D01*
X544638Y452892D01*
X544585Y452921D01*
X544537Y452958D01*
X544446Y452998D01*
X544359Y453046D01*
X544301Y453061D01*
X544245Y453085D01*
X544147Y453100D01*
X544051Y453125D01*
X543951Y453131D01*
X543931Y453135D01*
X543919Y453133D01*
X543891Y453135D01*
X65709Y453135D01*
X65611Y453123D01*
X65512Y453120D01*
X65454Y453103D01*
X65394Y453095D01*
X65302Y453059D01*
X65207Y453031D01*
X65155Y453001D01*
X65098Y452978D01*
X65018Y452920D01*
X64933Y452870D01*
X64857Y452804D01*
X64841Y452792D01*
X64833Y452782D01*
X64812Y452764D01*
X58561Y446512D01*
X58542Y446489D01*
X58520Y446470D01*
X58445Y446364D01*
X58366Y446261D01*
X58354Y446234D01*
X58337Y446210D01*
X58291Y446088D01*
X58239Y445969D01*
X58235Y445940D01*
X58224Y445912D01*
X58210Y445783D01*
X58189Y445655D01*
X58192Y445626D01*
X58189Y445596D01*
X58207Y445468D01*
X58219Y445338D01*
X58229Y445311D01*
X58233Y445281D01*
X58285Y445129D01*
X61850Y436524D01*
X61850Y427076D01*
X58234Y418347D01*
X51553Y411666D01*
X42824Y408050D01*
X33376Y408050D01*
X24771Y411615D01*
X24743Y411622D01*
X24716Y411636D01*
X24589Y411664D01*
X24464Y411698D01*
X24435Y411699D01*
X24406Y411705D01*
X24276Y411701D01*
X24146Y411704D01*
X24118Y411697D01*
X24088Y411696D01*
X23964Y411660D01*
X23837Y411629D01*
X23811Y411616D01*
X23783Y411607D01*
X23671Y411541D01*
X23556Y411481D01*
X23534Y411461D01*
X23509Y411446D01*
X23388Y411339D01*
X17136Y405088D01*
X17076Y405010D01*
X17008Y404938D01*
X16979Y404885D01*
X16942Y404837D01*
X16902Y404746D01*
X16854Y404659D01*
X16839Y404601D01*
X16815Y404545D01*
X16800Y404447D01*
X16775Y404351D01*
X16769Y404251D01*
X16765Y404231D01*
X16767Y404219D01*
X16765Y404191D01*
X16765Y65709D01*
X16777Y65611D01*
X16780Y65512D01*
X16797Y65454D01*
X16805Y65394D01*
X16841Y65302D01*
X16869Y65207D01*
X16899Y65154D01*
X16922Y65098D01*
X16980Y65018D01*
X17030Y64933D01*
X17096Y64857D01*
X17108Y64841D01*
X17118Y64833D01*
X17136Y64812D01*
X23388Y58561D01*
X23411Y58542D01*
X23430Y58520D01*
X23536Y58445D01*
X23639Y58366D01*
X23666Y58354D01*
X23690Y58337D01*
X23812Y58291D01*
X23931Y58239D01*
X23960Y58235D01*
X23988Y58224D01*
X24117Y58210D01*
X24245Y58189D01*
X24274Y58192D01*
X24304Y58189D01*
X24432Y58207D01*
X24562Y58219D01*
X24589Y58229D01*
X24619Y58233D01*
X24771Y58285D01*
X33376Y61850D01*
X42824Y61850D01*
X51553Y58234D01*
X58234Y51553D01*
X61850Y42824D01*
X61850Y33376D01*
X58285Y24771D01*
X58278Y24743D01*
X58264Y24716D01*
X58236Y24589D01*
X58202Y24464D01*
X58201Y24435D01*
X58195Y24406D01*
X58199Y24276D01*
X58196Y24146D01*
X58203Y24118D01*
X58204Y24088D01*
X58240Y23964D01*
X58271Y23837D01*
X58284Y23811D01*
X58293Y23783D01*
X58359Y23671D01*
X58419Y23556D01*
X58439Y23534D01*
X58454Y23509D01*
X58561Y23388D01*
X64812Y17136D01*
X64890Y17076D01*
X64962Y17008D01*
X65015Y16979D01*
X65063Y16942D01*
X65154Y16902D01*
X65241Y16854D01*
X65299Y16839D01*
X65355Y16815D01*
X65453Y16800D01*
X65549Y16775D01*
X65649Y16769D01*
X65669Y16765D01*
X65681Y16767D01*
X65709Y16765D01*
X543891Y16765D01*
X543989Y16777D01*
G37*
%LPC*%
G36*
X524513Y193420D02*
X524513Y193420D01*
X523620Y194313D01*
X523620Y212087D01*
X524513Y212980D01*
X542287Y212980D01*
X543180Y212087D01*
X543180Y194313D01*
X542287Y193420D01*
X524513Y193420D01*
G37*
%LPD*%
%LPC*%
G36*
X524513Y231520D02*
X524513Y231520D01*
X523620Y232413D01*
X523620Y250187D01*
X524513Y251080D01*
X542287Y251080D01*
X543180Y250187D01*
X543180Y232413D01*
X542287Y231520D01*
X524513Y231520D01*
G37*
%LPD*%
%LPC*%
G36*
X54613Y256920D02*
X54613Y256920D01*
X53720Y257813D01*
X53720Y275587D01*
X54613Y276480D01*
X72387Y276480D01*
X73280Y275587D01*
X73280Y257813D01*
X72387Y256920D01*
X54613Y256920D01*
G37*
%LPD*%
%LPC*%
G36*
X524513Y269620D02*
X524513Y269620D01*
X523620Y270513D01*
X523620Y288287D01*
X524513Y289180D01*
X542287Y289180D01*
X543180Y288287D01*
X543180Y270513D01*
X542287Y269620D01*
X524513Y269620D01*
G37*
%LPD*%
%LPC*%
G36*
X63548Y343655D02*
X63548Y343655D01*
X62655Y344548D01*
X62655Y361052D01*
X63548Y361945D01*
X80052Y361945D01*
X80945Y361052D01*
X80945Y344548D01*
X80052Y343655D01*
X63548Y343655D01*
G37*
%LPD*%
%LPC*%
G36*
X63548Y89655D02*
X63548Y89655D01*
X62655Y90548D01*
X62655Y107052D01*
X63548Y107945D01*
X80052Y107945D01*
X80945Y107052D01*
X80945Y90548D01*
X80052Y89655D01*
X63548Y89655D01*
G37*
%LPD*%
%LPC*%
G36*
X480655Y193420D02*
X480655Y193420D01*
X477060Y194909D01*
X474309Y197660D01*
X472820Y201255D01*
X472820Y205145D01*
X474309Y208740D01*
X477060Y211491D01*
X480655Y212980D01*
X484545Y212980D01*
X488140Y211491D01*
X490891Y208740D01*
X492380Y205145D01*
X492380Y201255D01*
X490891Y197660D01*
X488140Y194909D01*
X484545Y193420D01*
X480655Y193420D01*
G37*
%LPD*%
%LPC*%
G36*
X61555Y231520D02*
X61555Y231520D01*
X57960Y233009D01*
X55209Y235760D01*
X53720Y239355D01*
X53720Y243245D01*
X55209Y246840D01*
X57960Y249591D01*
X61555Y251080D01*
X65445Y251080D01*
X69040Y249591D01*
X71791Y246840D01*
X73280Y243245D01*
X73280Y239355D01*
X71791Y235760D01*
X69040Y233009D01*
X65445Y231520D01*
X61555Y231520D01*
G37*
%LPD*%
%LPC*%
G36*
X480655Y231520D02*
X480655Y231520D01*
X477060Y233009D01*
X474309Y235760D01*
X472820Y239355D01*
X472820Y243245D01*
X474309Y246840D01*
X477060Y249591D01*
X480655Y251080D01*
X484545Y251080D01*
X488140Y249591D01*
X490891Y246840D01*
X492380Y243245D01*
X492380Y239355D01*
X490891Y235760D01*
X488140Y233009D01*
X484545Y231520D01*
X480655Y231520D01*
G37*
%LPD*%
%LPC*%
G36*
X480655Y269620D02*
X480655Y269620D01*
X477060Y271109D01*
X474309Y273860D01*
X472820Y277455D01*
X472820Y281345D01*
X474309Y284940D01*
X477060Y287691D01*
X480655Y289180D01*
X484545Y289180D01*
X488140Y287691D01*
X490891Y284940D01*
X492380Y281345D01*
X492380Y277455D01*
X490891Y273860D01*
X488140Y271109D01*
X484545Y269620D01*
X480655Y269620D01*
G37*
%LPD*%
%LPC*%
G36*
X296612Y369055D02*
X296612Y369055D01*
X291255Y374412D01*
X291255Y381988D01*
X296612Y387345D01*
X304188Y387345D01*
X309545Y381988D01*
X309545Y374412D01*
X304188Y369055D01*
X296612Y369055D01*
G37*
%LPD*%
%LPC*%
G36*
X499812Y369055D02*
X499812Y369055D01*
X494455Y374412D01*
X494455Y381988D01*
X499812Y387345D01*
X507388Y387345D01*
X512745Y381988D01*
X512745Y374412D01*
X507388Y369055D01*
X499812Y369055D01*
G37*
%LPD*%
%LPC*%
G36*
X271212Y369055D02*
X271212Y369055D01*
X265855Y374412D01*
X265855Y381988D01*
X271212Y387345D01*
X278788Y387345D01*
X284145Y381988D01*
X284145Y374412D01*
X278788Y369055D01*
X271212Y369055D01*
G37*
%LPD*%
%LPC*%
G36*
X245812Y369055D02*
X245812Y369055D01*
X240455Y374412D01*
X240455Y381988D01*
X245812Y387345D01*
X253388Y387345D01*
X258745Y381988D01*
X258745Y374412D01*
X253388Y369055D01*
X245812Y369055D01*
G37*
%LPD*%
%LPC*%
G36*
X220412Y369055D02*
X220412Y369055D01*
X215055Y374412D01*
X215055Y381988D01*
X220412Y387345D01*
X227988Y387345D01*
X233345Y381988D01*
X233345Y374412D01*
X227988Y369055D01*
X220412Y369055D01*
G37*
%LPD*%
%LPC*%
G36*
X169612Y369055D02*
X169612Y369055D01*
X164255Y374412D01*
X164255Y381988D01*
X169612Y387345D01*
X177188Y387345D01*
X182545Y381988D01*
X182545Y374412D01*
X177188Y369055D01*
X169612Y369055D01*
G37*
%LPD*%
%LPC*%
G36*
X372812Y369055D02*
X372812Y369055D01*
X367455Y374412D01*
X367455Y381988D01*
X372812Y387345D01*
X380388Y387345D01*
X385745Y381988D01*
X385745Y374412D01*
X380388Y369055D01*
X372812Y369055D01*
G37*
%LPD*%
%LPC*%
G36*
X144212Y369055D02*
X144212Y369055D01*
X138855Y374412D01*
X138855Y381988D01*
X144212Y387345D01*
X151788Y387345D01*
X157145Y381988D01*
X157145Y374412D01*
X151788Y369055D01*
X144212Y369055D01*
G37*
%LPD*%
%LPC*%
G36*
X118812Y369055D02*
X118812Y369055D01*
X113455Y374412D01*
X113455Y381988D01*
X118812Y387345D01*
X126388Y387345D01*
X131745Y381988D01*
X131745Y374412D01*
X126388Y369055D01*
X118812Y369055D01*
G37*
%LPD*%
%LPC*%
G36*
X93412Y369055D02*
X93412Y369055D01*
X88055Y374412D01*
X88055Y381988D01*
X93412Y387345D01*
X100988Y387345D01*
X106345Y381988D01*
X106345Y374412D01*
X100988Y369055D01*
X93412Y369055D01*
G37*
%LPD*%
%LPC*%
G36*
X195012Y369055D02*
X195012Y369055D01*
X189655Y374412D01*
X189655Y381988D01*
X195012Y387345D01*
X202588Y387345D01*
X207945Y381988D01*
X207945Y374412D01*
X202588Y369055D01*
X195012Y369055D01*
G37*
%LPD*%
%LPC*%
G36*
X474412Y369055D02*
X474412Y369055D01*
X469055Y374412D01*
X469055Y381988D01*
X474412Y387345D01*
X481988Y387345D01*
X487345Y381988D01*
X487345Y374412D01*
X481988Y369055D01*
X474412Y369055D01*
G37*
%LPD*%
%LPC*%
G36*
X449012Y369055D02*
X449012Y369055D01*
X443655Y374412D01*
X443655Y381988D01*
X449012Y387345D01*
X456588Y387345D01*
X461945Y381988D01*
X461945Y374412D01*
X456588Y369055D01*
X449012Y369055D01*
G37*
%LPD*%
%LPC*%
G36*
X423612Y369055D02*
X423612Y369055D01*
X418255Y374412D01*
X418255Y381988D01*
X423612Y387345D01*
X431188Y387345D01*
X436545Y381988D01*
X436545Y374412D01*
X431188Y369055D01*
X423612Y369055D01*
G37*
%LPD*%
%LPC*%
G36*
X398212Y369055D02*
X398212Y369055D01*
X392855Y374412D01*
X392855Y381988D01*
X398212Y387345D01*
X405788Y387345D01*
X411145Y381988D01*
X411145Y374412D01*
X405788Y369055D01*
X398212Y369055D01*
G37*
%LPD*%
%LPC*%
G36*
X68012Y369055D02*
X68012Y369055D01*
X62655Y374412D01*
X62655Y381988D01*
X68012Y387345D01*
X75588Y387345D01*
X80945Y381988D01*
X80945Y374412D01*
X75588Y369055D01*
X68012Y369055D01*
G37*
%LPD*%
%LPC*%
G36*
X347412Y369055D02*
X347412Y369055D01*
X342055Y374412D01*
X342055Y381988D01*
X347412Y387345D01*
X354988Y387345D01*
X360345Y381988D01*
X360345Y374412D01*
X354988Y369055D01*
X347412Y369055D01*
G37*
%LPD*%
%LPC*%
G36*
X322012Y369055D02*
X322012Y369055D01*
X316655Y374412D01*
X316655Y381988D01*
X322012Y387345D01*
X329588Y387345D01*
X334945Y381988D01*
X334945Y374412D01*
X329588Y369055D01*
X322012Y369055D01*
G37*
%LPD*%
%LPC*%
G36*
X474412Y89655D02*
X474412Y89655D01*
X469055Y95012D01*
X469055Y102588D01*
X474412Y107945D01*
X481988Y107945D01*
X487345Y102588D01*
X487345Y95012D01*
X481988Y89655D01*
X474412Y89655D01*
G37*
%LPD*%
%LPC*%
G36*
X423612Y89655D02*
X423612Y89655D01*
X418255Y95012D01*
X418255Y102588D01*
X423612Y107945D01*
X431188Y107945D01*
X436545Y102588D01*
X436545Y95012D01*
X431188Y89655D01*
X423612Y89655D01*
G37*
%LPD*%
%LPC*%
G36*
X398212Y89655D02*
X398212Y89655D01*
X392855Y95012D01*
X392855Y102588D01*
X398212Y107945D01*
X405788Y107945D01*
X411145Y102588D01*
X411145Y95012D01*
X405788Y89655D01*
X398212Y89655D01*
G37*
%LPD*%
%LPC*%
G36*
X372812Y89655D02*
X372812Y89655D01*
X367455Y95012D01*
X367455Y102588D01*
X372812Y107945D01*
X380388Y107945D01*
X385745Y102588D01*
X385745Y95012D01*
X380388Y89655D01*
X372812Y89655D01*
G37*
%LPD*%
%LPC*%
G36*
X499812Y343655D02*
X499812Y343655D01*
X494455Y349012D01*
X494455Y356588D01*
X499812Y361945D01*
X507388Y361945D01*
X512745Y356588D01*
X512745Y349012D01*
X507388Y343655D01*
X499812Y343655D01*
G37*
%LPD*%
%LPC*%
G36*
X474412Y343655D02*
X474412Y343655D01*
X469055Y349012D01*
X469055Y356588D01*
X474412Y361945D01*
X481988Y361945D01*
X487345Y356588D01*
X487345Y349012D01*
X481988Y343655D01*
X474412Y343655D01*
G37*
%LPD*%
%LPC*%
G36*
X449012Y343655D02*
X449012Y343655D01*
X443655Y349012D01*
X443655Y356588D01*
X449012Y361945D01*
X456588Y361945D01*
X461945Y356588D01*
X461945Y349012D01*
X456588Y343655D01*
X449012Y343655D01*
G37*
%LPD*%
%LPC*%
G36*
X423612Y343655D02*
X423612Y343655D01*
X418255Y349012D01*
X418255Y356588D01*
X423612Y361945D01*
X431188Y361945D01*
X436545Y356588D01*
X436545Y349012D01*
X431188Y343655D01*
X423612Y343655D01*
G37*
%LPD*%
%LPC*%
G36*
X398212Y343655D02*
X398212Y343655D01*
X392855Y349012D01*
X392855Y356588D01*
X398212Y361945D01*
X405788Y361945D01*
X411145Y356588D01*
X411145Y349012D01*
X405788Y343655D01*
X398212Y343655D01*
G37*
%LPD*%
%LPC*%
G36*
X372812Y343655D02*
X372812Y343655D01*
X367455Y349012D01*
X367455Y356588D01*
X372812Y361945D01*
X380388Y361945D01*
X385745Y356588D01*
X385745Y349012D01*
X380388Y343655D01*
X372812Y343655D01*
G37*
%LPD*%
%LPC*%
G36*
X347412Y343655D02*
X347412Y343655D01*
X342055Y349012D01*
X342055Y356588D01*
X347412Y361945D01*
X354988Y361945D01*
X360345Y356588D01*
X360345Y349012D01*
X354988Y343655D01*
X347412Y343655D01*
G37*
%LPD*%
%LPC*%
G36*
X296612Y343655D02*
X296612Y343655D01*
X291255Y349012D01*
X291255Y356588D01*
X296612Y361945D01*
X304188Y361945D01*
X309545Y356588D01*
X309545Y349012D01*
X304188Y343655D01*
X296612Y343655D01*
G37*
%LPD*%
%LPC*%
G36*
X271212Y343655D02*
X271212Y343655D01*
X265855Y349012D01*
X265855Y356588D01*
X271212Y361945D01*
X278788Y361945D01*
X284145Y356588D01*
X284145Y349012D01*
X278788Y343655D01*
X271212Y343655D01*
G37*
%LPD*%
%LPC*%
G36*
X220412Y343655D02*
X220412Y343655D01*
X215055Y349012D01*
X215055Y356588D01*
X220412Y361945D01*
X227988Y361945D01*
X233345Y356588D01*
X233345Y349012D01*
X227988Y343655D01*
X220412Y343655D01*
G37*
%LPD*%
%LPC*%
G36*
X195012Y343655D02*
X195012Y343655D01*
X189655Y349012D01*
X189655Y356588D01*
X195012Y361945D01*
X202588Y361945D01*
X207945Y356588D01*
X207945Y349012D01*
X202588Y343655D01*
X195012Y343655D01*
G37*
%LPD*%
%LPC*%
G36*
X169612Y343655D02*
X169612Y343655D01*
X164255Y349012D01*
X164255Y356588D01*
X169612Y361945D01*
X177188Y361945D01*
X182545Y356588D01*
X182545Y349012D01*
X177188Y343655D01*
X169612Y343655D01*
G37*
%LPD*%
%LPC*%
G36*
X144212Y343655D02*
X144212Y343655D01*
X138855Y349012D01*
X138855Y356588D01*
X144212Y361945D01*
X151788Y361945D01*
X157145Y356588D01*
X157145Y349012D01*
X151788Y343655D01*
X144212Y343655D01*
G37*
%LPD*%
%LPC*%
G36*
X118812Y343655D02*
X118812Y343655D01*
X113455Y349012D01*
X113455Y356588D01*
X118812Y361945D01*
X126388Y361945D01*
X131745Y356588D01*
X131745Y349012D01*
X126388Y343655D01*
X118812Y343655D01*
G37*
%LPD*%
%LPC*%
G36*
X93412Y343655D02*
X93412Y343655D01*
X88055Y349012D01*
X88055Y356588D01*
X93412Y361945D01*
X100988Y361945D01*
X106345Y356588D01*
X106345Y349012D01*
X100988Y343655D01*
X93412Y343655D01*
G37*
%LPD*%
%LPC*%
G36*
X347412Y89655D02*
X347412Y89655D01*
X342055Y95012D01*
X342055Y102588D01*
X347412Y107945D01*
X354988Y107945D01*
X360345Y102588D01*
X360345Y95012D01*
X354988Y89655D01*
X347412Y89655D01*
G37*
%LPD*%
%LPC*%
G36*
X322012Y89655D02*
X322012Y89655D01*
X316655Y95012D01*
X316655Y102588D01*
X322012Y107945D01*
X329588Y107945D01*
X334945Y102588D01*
X334945Y95012D01*
X329588Y89655D01*
X322012Y89655D01*
G37*
%LPD*%
%LPC*%
G36*
X296612Y89655D02*
X296612Y89655D01*
X291255Y95012D01*
X291255Y102588D01*
X296612Y107945D01*
X304188Y107945D01*
X309545Y102588D01*
X309545Y95012D01*
X304188Y89655D01*
X296612Y89655D01*
G37*
%LPD*%
%LPC*%
G36*
X271212Y89655D02*
X271212Y89655D01*
X265855Y95012D01*
X265855Y102588D01*
X271212Y107945D01*
X278788Y107945D01*
X284145Y102588D01*
X284145Y95012D01*
X278788Y89655D01*
X271212Y89655D01*
G37*
%LPD*%
%LPC*%
G36*
X245812Y89655D02*
X245812Y89655D01*
X240455Y95012D01*
X240455Y102588D01*
X245812Y107945D01*
X253388Y107945D01*
X258745Y102588D01*
X258745Y95012D01*
X253388Y89655D01*
X245812Y89655D01*
G37*
%LPD*%
%LPC*%
G36*
X220412Y89655D02*
X220412Y89655D01*
X215055Y95012D01*
X215055Y102588D01*
X220412Y107945D01*
X227988Y107945D01*
X233345Y102588D01*
X233345Y95012D01*
X227988Y89655D01*
X220412Y89655D01*
G37*
%LPD*%
%LPC*%
G36*
X195012Y89655D02*
X195012Y89655D01*
X189655Y95012D01*
X189655Y102588D01*
X195012Y107945D01*
X202588Y107945D01*
X207945Y102588D01*
X207945Y95012D01*
X202588Y89655D01*
X195012Y89655D01*
G37*
%LPD*%
%LPC*%
G36*
X169612Y89655D02*
X169612Y89655D01*
X164255Y95012D01*
X164255Y102588D01*
X169612Y107945D01*
X177188Y107945D01*
X182545Y102588D01*
X182545Y95012D01*
X177188Y89655D01*
X169612Y89655D01*
G37*
%LPD*%
%LPC*%
G36*
X144212Y89655D02*
X144212Y89655D01*
X138855Y95012D01*
X138855Y102588D01*
X144212Y107945D01*
X151788Y107945D01*
X157145Y102588D01*
X157145Y95012D01*
X151788Y89655D01*
X144212Y89655D01*
G37*
%LPD*%
%LPC*%
G36*
X118812Y89655D02*
X118812Y89655D01*
X113455Y95012D01*
X113455Y102588D01*
X118812Y107945D01*
X126388Y107945D01*
X131745Y102588D01*
X131745Y95012D01*
X126388Y89655D01*
X118812Y89655D01*
G37*
%LPD*%
%LPC*%
G36*
X93412Y89655D02*
X93412Y89655D01*
X88055Y95012D01*
X88055Y102588D01*
X93412Y107945D01*
X100988Y107945D01*
X106345Y102588D01*
X106345Y95012D01*
X100988Y89655D01*
X93412Y89655D01*
G37*
%LPD*%
%LPC*%
G36*
X449012Y89655D02*
X449012Y89655D01*
X443655Y95012D01*
X443655Y102588D01*
X449012Y107945D01*
X456588Y107945D01*
X461945Y102588D01*
X461945Y95012D01*
X456588Y89655D01*
X449012Y89655D01*
G37*
%LPD*%
%LPC*%
G36*
X118812Y115055D02*
X118812Y115055D01*
X113455Y120412D01*
X113455Y127988D01*
X118812Y133345D01*
X126388Y133345D01*
X131745Y127988D01*
X131745Y120412D01*
X126388Y115055D01*
X118812Y115055D01*
G37*
%LPD*%
%LPC*%
G36*
X347412Y115055D02*
X347412Y115055D01*
X342055Y120412D01*
X342055Y127988D01*
X347412Y133345D01*
X354988Y133345D01*
X360345Y127988D01*
X360345Y120412D01*
X354988Y115055D01*
X347412Y115055D01*
G37*
%LPD*%
%LPC*%
G36*
X296612Y115055D02*
X296612Y115055D01*
X291255Y120412D01*
X291255Y127988D01*
X296612Y133345D01*
X304188Y133345D01*
X309545Y127988D01*
X309545Y120412D01*
X304188Y115055D01*
X296612Y115055D01*
G37*
%LPD*%
%LPC*%
G36*
X271212Y115055D02*
X271212Y115055D01*
X265855Y120412D01*
X265855Y127988D01*
X271212Y133345D01*
X278788Y133345D01*
X284145Y127988D01*
X284145Y120412D01*
X278788Y115055D01*
X271212Y115055D01*
G37*
%LPD*%
%LPC*%
G36*
X220412Y115055D02*
X220412Y115055D01*
X215055Y120412D01*
X215055Y127988D01*
X220412Y133345D01*
X227988Y133345D01*
X233345Y127988D01*
X233345Y120412D01*
X227988Y115055D01*
X220412Y115055D01*
G37*
%LPD*%
%LPC*%
G36*
X195012Y115055D02*
X195012Y115055D01*
X189655Y120412D01*
X189655Y127988D01*
X195012Y133345D01*
X202588Y133345D01*
X207945Y127988D01*
X207945Y120412D01*
X202588Y115055D01*
X195012Y115055D01*
G37*
%LPD*%
%LPC*%
G36*
X169612Y115055D02*
X169612Y115055D01*
X164255Y120412D01*
X164255Y127988D01*
X169612Y133345D01*
X177188Y133345D01*
X182545Y127988D01*
X182545Y120412D01*
X177188Y115055D01*
X169612Y115055D01*
G37*
%LPD*%
%LPC*%
G36*
X144212Y115055D02*
X144212Y115055D01*
X138855Y120412D01*
X138855Y127988D01*
X144212Y133345D01*
X151788Y133345D01*
X157145Y127988D01*
X157145Y120412D01*
X151788Y115055D01*
X144212Y115055D01*
G37*
%LPD*%
%LPC*%
G36*
X93412Y115055D02*
X93412Y115055D01*
X88055Y120412D01*
X88055Y127988D01*
X93412Y133345D01*
X100988Y133345D01*
X106345Y127988D01*
X106345Y120412D01*
X100988Y115055D01*
X93412Y115055D01*
G37*
%LPD*%
%LPC*%
G36*
X68012Y115055D02*
X68012Y115055D01*
X62655Y120412D01*
X62655Y127988D01*
X68012Y133345D01*
X75588Y133345D01*
X80945Y127988D01*
X80945Y120412D01*
X75588Y115055D01*
X68012Y115055D01*
G37*
%LPD*%
%LPC*%
G36*
X499812Y115055D02*
X499812Y115055D01*
X494455Y120412D01*
X494455Y127988D01*
X499812Y133345D01*
X507388Y133345D01*
X512745Y127988D01*
X512745Y120412D01*
X507388Y115055D01*
X499812Y115055D01*
G37*
%LPD*%
%LPC*%
G36*
X474412Y115055D02*
X474412Y115055D01*
X469055Y120412D01*
X469055Y127988D01*
X474412Y133345D01*
X481988Y133345D01*
X487345Y127988D01*
X487345Y120412D01*
X481988Y115055D01*
X474412Y115055D01*
G37*
%LPD*%
%LPC*%
G36*
X449012Y115055D02*
X449012Y115055D01*
X443655Y120412D01*
X443655Y127988D01*
X449012Y133345D01*
X456588Y133345D01*
X461945Y127988D01*
X461945Y120412D01*
X456588Y115055D01*
X449012Y115055D01*
G37*
%LPD*%
%LPC*%
G36*
X423612Y115055D02*
X423612Y115055D01*
X418255Y120412D01*
X418255Y127988D01*
X423612Y133345D01*
X431188Y133345D01*
X436545Y127988D01*
X436545Y120412D01*
X431188Y115055D01*
X423612Y115055D01*
G37*
%LPD*%
%LPC*%
G36*
X398212Y115055D02*
X398212Y115055D01*
X392855Y120412D01*
X392855Y127988D01*
X398212Y133345D01*
X405788Y133345D01*
X411145Y127988D01*
X411145Y120412D01*
X405788Y115055D01*
X398212Y115055D01*
G37*
%LPD*%
%LPC*%
G36*
X372812Y115055D02*
X372812Y115055D01*
X367455Y120412D01*
X367455Y127988D01*
X372812Y133345D01*
X380388Y133345D01*
X385745Y127988D01*
X385745Y120412D01*
X380388Y115055D01*
X372812Y115055D01*
G37*
%LPD*%
%LPC*%
G36*
X499812Y89655D02*
X499812Y89655D01*
X494455Y95012D01*
X494455Y102588D01*
X499812Y107945D01*
X507388Y107945D01*
X512745Y102588D01*
X512745Y95012D01*
X507388Y89655D01*
X499812Y89655D01*
G37*
%LPD*%
%LPC*%
G36*
X459422Y243522D02*
X459422Y243522D01*
X459422Y251878D01*
X459728Y251830D01*
X461344Y251305D01*
X462858Y250533D01*
X464233Y249535D01*
X465435Y248333D01*
X466433Y246958D01*
X467205Y245444D01*
X467730Y243828D01*
X467778Y243522D01*
X459422Y243522D01*
G37*
%LPD*%
%LPC*%
G36*
X65722Y218122D02*
X65722Y218122D01*
X65722Y226478D01*
X66028Y226430D01*
X67644Y225905D01*
X69158Y225133D01*
X70533Y224135D01*
X71735Y222933D01*
X72733Y221558D01*
X73505Y220044D01*
X74030Y218428D01*
X74078Y218122D01*
X65722Y218122D01*
G37*
%LPD*%
%LPC*%
G36*
X510222Y243522D02*
X510222Y243522D01*
X510222Y251878D01*
X510528Y251830D01*
X512144Y251305D01*
X513658Y250533D01*
X515033Y249535D01*
X516235Y248333D01*
X517233Y246958D01*
X518005Y245444D01*
X518530Y243828D01*
X518578Y243522D01*
X510222Y243522D01*
G37*
%LPD*%
%LPC*%
G36*
X459422Y205422D02*
X459422Y205422D01*
X459422Y213778D01*
X459728Y213730D01*
X461344Y213205D01*
X462858Y212433D01*
X464233Y211435D01*
X465435Y210233D01*
X466433Y208858D01*
X467205Y207344D01*
X467730Y205728D01*
X467778Y205422D01*
X459422Y205422D01*
G37*
%LPD*%
%LPC*%
G36*
X510222Y205422D02*
X510222Y205422D01*
X510222Y213778D01*
X510528Y213730D01*
X512144Y213205D01*
X513658Y212433D01*
X515033Y211435D01*
X516235Y210233D01*
X517233Y208858D01*
X518005Y207344D01*
X518530Y205728D01*
X518578Y205422D01*
X510222Y205422D01*
G37*
%LPD*%
%LPC*%
G36*
X510222Y281622D02*
X510222Y281622D01*
X510222Y289978D01*
X510528Y289930D01*
X512144Y289405D01*
X513658Y288633D01*
X515033Y287635D01*
X516235Y286433D01*
X517233Y285058D01*
X518005Y283544D01*
X518530Y281928D01*
X518578Y281622D01*
X510222Y281622D01*
G37*
%LPD*%
%LPC*%
G36*
X459422Y281622D02*
X459422Y281622D01*
X459422Y289978D01*
X459728Y289930D01*
X461344Y289405D01*
X462858Y288633D01*
X464233Y287635D01*
X465435Y286433D01*
X466433Y285058D01*
X467205Y283544D01*
X467730Y281928D01*
X467778Y281622D01*
X459422Y281622D01*
G37*
%LPD*%
%LPC*%
G36*
X497422Y205422D02*
X497422Y205422D01*
X497470Y205728D01*
X497995Y207344D01*
X498767Y208858D01*
X499765Y210233D01*
X500967Y211435D01*
X502342Y212433D01*
X503856Y213205D01*
X505472Y213730D01*
X505778Y213778D01*
X505778Y205422D01*
X497422Y205422D01*
G37*
%LPD*%
%LPC*%
G36*
X65722Y213678D02*
X65722Y213678D01*
X74078Y213678D01*
X74030Y213372D01*
X73505Y211756D01*
X72733Y210242D01*
X71735Y208867D01*
X70533Y207665D01*
X69158Y206667D01*
X67644Y205895D01*
X66028Y205370D01*
X65722Y205322D01*
X65722Y213678D01*
G37*
%LPD*%
%LPC*%
G36*
X446622Y243522D02*
X446622Y243522D01*
X446670Y243828D01*
X447195Y245444D01*
X447967Y246958D01*
X448965Y248333D01*
X450167Y249535D01*
X451542Y250533D01*
X453056Y251305D01*
X454672Y251830D01*
X454978Y251878D01*
X454978Y243522D01*
X446622Y243522D01*
G37*
%LPD*%
%LPC*%
G36*
X510222Y200978D02*
X510222Y200978D01*
X518578Y200978D01*
X518530Y200672D01*
X518005Y199056D01*
X517233Y197542D01*
X516235Y196167D01*
X515033Y194965D01*
X513658Y193967D01*
X512144Y193195D01*
X510528Y192670D01*
X510222Y192622D01*
X510222Y200978D01*
G37*
%LPD*%
%LPC*%
G36*
X459422Y200978D02*
X459422Y200978D01*
X467778Y200978D01*
X467730Y200672D01*
X467205Y199056D01*
X466433Y197542D01*
X465435Y196167D01*
X464233Y194965D01*
X462858Y193967D01*
X461344Y193195D01*
X459728Y192670D01*
X459422Y192622D01*
X459422Y200978D01*
G37*
%LPD*%
%LPC*%
G36*
X510222Y239078D02*
X510222Y239078D01*
X518578Y239078D01*
X518530Y238772D01*
X518005Y237156D01*
X517233Y235642D01*
X516235Y234267D01*
X515033Y233065D01*
X513658Y232067D01*
X512144Y231295D01*
X510528Y230770D01*
X510222Y230722D01*
X510222Y239078D01*
G37*
%LPD*%
%LPC*%
G36*
X459422Y239078D02*
X459422Y239078D01*
X467778Y239078D01*
X467730Y238772D01*
X467205Y237156D01*
X466433Y235642D01*
X465435Y234267D01*
X464233Y233065D01*
X462858Y232067D01*
X461344Y231295D01*
X459728Y230770D01*
X459422Y230722D01*
X459422Y239078D01*
G37*
%LPD*%
%LPC*%
G36*
X52922Y218122D02*
X52922Y218122D01*
X52970Y218428D01*
X53495Y220044D01*
X54267Y221558D01*
X55265Y222933D01*
X56467Y224135D01*
X57842Y225133D01*
X59356Y225905D01*
X60972Y226430D01*
X61278Y226478D01*
X61278Y218122D01*
X52922Y218122D01*
G37*
%LPD*%
%LPC*%
G36*
X510222Y277178D02*
X510222Y277178D01*
X518578Y277178D01*
X518530Y276872D01*
X518005Y275256D01*
X517233Y273742D01*
X516235Y272367D01*
X515033Y271165D01*
X513658Y270167D01*
X512144Y269395D01*
X510528Y268870D01*
X510222Y268822D01*
X510222Y277178D01*
G37*
%LPD*%
%LPC*%
G36*
X446622Y205422D02*
X446622Y205422D01*
X446670Y205728D01*
X447195Y207344D01*
X447967Y208858D01*
X448965Y210233D01*
X450167Y211435D01*
X451542Y212433D01*
X453056Y213205D01*
X454672Y213730D01*
X454978Y213778D01*
X454978Y205422D01*
X446622Y205422D01*
G37*
%LPD*%
%LPC*%
G36*
X459422Y277178D02*
X459422Y277178D01*
X467778Y277178D01*
X467730Y276872D01*
X467205Y275256D01*
X466433Y273742D01*
X465435Y272367D01*
X464233Y271165D01*
X462858Y270167D01*
X461344Y269395D01*
X459728Y268870D01*
X459422Y268822D01*
X459422Y277178D01*
G37*
%LPD*%
%LPC*%
G36*
X497422Y243522D02*
X497422Y243522D01*
X497470Y243828D01*
X497995Y245444D01*
X498767Y246958D01*
X499765Y248333D01*
X500967Y249535D01*
X502342Y250533D01*
X503856Y251305D01*
X505472Y251830D01*
X505778Y251878D01*
X505778Y243522D01*
X497422Y243522D01*
G37*
%LPD*%
%LPC*%
G36*
X446622Y281622D02*
X446622Y281622D01*
X446670Y281928D01*
X447195Y283544D01*
X447967Y285058D01*
X448965Y286433D01*
X450167Y287635D01*
X451542Y288633D01*
X453056Y289405D01*
X454672Y289930D01*
X454978Y289978D01*
X454978Y281622D01*
X446622Y281622D01*
G37*
%LPD*%
%LPC*%
G36*
X497422Y281622D02*
X497422Y281622D01*
X497470Y281928D01*
X497995Y283544D01*
X498767Y285058D01*
X499765Y286433D01*
X500967Y287635D01*
X502342Y288633D01*
X503856Y289405D01*
X505472Y289930D01*
X505778Y289978D01*
X505778Y281622D01*
X497422Y281622D01*
G37*
%LPD*%
%LPC*%
G36*
X505472Y268870D02*
X505472Y268870D01*
X503856Y269395D01*
X502342Y270167D01*
X500967Y271165D01*
X499765Y272367D01*
X498767Y273742D01*
X497995Y275256D01*
X497470Y276872D01*
X497422Y277178D01*
X505778Y277178D01*
X505778Y268822D01*
X505472Y268870D01*
G37*
%LPD*%
%LPC*%
G36*
X505472Y192670D02*
X505472Y192670D01*
X503856Y193195D01*
X502342Y193967D01*
X500967Y194965D01*
X499765Y196167D01*
X498767Y197542D01*
X497995Y199056D01*
X497470Y200672D01*
X497422Y200978D01*
X505778Y200978D01*
X505778Y192622D01*
X505472Y192670D01*
G37*
%LPD*%
%LPC*%
G36*
X505472Y230770D02*
X505472Y230770D01*
X503856Y231295D01*
X502342Y232067D01*
X500967Y233065D01*
X499765Y234267D01*
X498767Y235642D01*
X497995Y237156D01*
X497470Y238772D01*
X497422Y239078D01*
X505778Y239078D01*
X505778Y230722D01*
X505472Y230770D01*
G37*
%LPD*%
%LPC*%
G36*
X454672Y230770D02*
X454672Y230770D01*
X453056Y231295D01*
X451542Y232067D01*
X450167Y233065D01*
X448965Y234267D01*
X447967Y235642D01*
X447195Y237156D01*
X446670Y238772D01*
X446622Y239078D01*
X454978Y239078D01*
X454978Y230722D01*
X454672Y230770D01*
G37*
%LPD*%
%LPC*%
G36*
X454672Y192670D02*
X454672Y192670D01*
X453056Y193195D01*
X451542Y193967D01*
X450167Y194965D01*
X448965Y196167D01*
X447967Y197542D01*
X447195Y199056D01*
X446670Y200672D01*
X446622Y200978D01*
X454978Y200978D01*
X454978Y192622D01*
X454672Y192670D01*
G37*
%LPD*%
%LPC*%
G36*
X60972Y205370D02*
X60972Y205370D01*
X59356Y205895D01*
X57842Y206667D01*
X56467Y207665D01*
X55265Y208867D01*
X54267Y210242D01*
X53495Y211756D01*
X52970Y213372D01*
X52922Y213678D01*
X61278Y213678D01*
X61278Y205322D01*
X60972Y205370D01*
G37*
%LPD*%
%LPC*%
G36*
X454672Y268870D02*
X454672Y268870D01*
X453056Y269395D01*
X451542Y270167D01*
X450167Y271165D01*
X448965Y272367D01*
X447967Y273742D01*
X447195Y275256D01*
X446670Y276872D01*
X446622Y277178D01*
X454978Y277178D01*
X454978Y268822D01*
X454672Y268870D01*
G37*
%LPD*%
%LPC*%
G36*
X328022Y355022D02*
X328022Y355022D01*
X328022Y362961D01*
X330009Y362961D01*
X335961Y357009D01*
X335961Y355022D01*
X328022Y355022D01*
G37*
%LPD*%
%LPC*%
G36*
X328022Y126422D02*
X328022Y126422D01*
X328022Y134361D01*
X330009Y134361D01*
X335961Y128409D01*
X335961Y126422D01*
X328022Y126422D01*
G37*
%LPD*%
%LPC*%
G36*
X251822Y126422D02*
X251822Y126422D01*
X251822Y134361D01*
X253809Y134361D01*
X259761Y128409D01*
X259761Y126422D01*
X251822Y126422D01*
G37*
%LPD*%
%LPC*%
G36*
X251822Y355022D02*
X251822Y355022D01*
X251822Y362961D01*
X253809Y362961D01*
X259761Y357009D01*
X259761Y355022D01*
X251822Y355022D01*
G37*
%LPD*%
%LPC*%
G36*
X239439Y355022D02*
X239439Y355022D01*
X239439Y357009D01*
X245391Y362961D01*
X247378Y362961D01*
X247378Y355022D01*
X239439Y355022D01*
G37*
%LPD*%
%LPC*%
G36*
X315639Y355022D02*
X315639Y355022D01*
X315639Y357009D01*
X321591Y362961D01*
X323578Y362961D01*
X323578Y355022D01*
X315639Y355022D01*
G37*
%LPD*%
%LPC*%
G36*
X328022Y342639D02*
X328022Y342639D01*
X328022Y350578D01*
X335961Y350578D01*
X335961Y348591D01*
X330009Y342639D01*
X328022Y342639D01*
G37*
%LPD*%
%LPC*%
G36*
X251822Y342639D02*
X251822Y342639D01*
X251822Y350578D01*
X259761Y350578D01*
X259761Y348591D01*
X253809Y342639D01*
X251822Y342639D01*
G37*
%LPD*%
%LPC*%
G36*
X315639Y126422D02*
X315639Y126422D01*
X315639Y128409D01*
X321591Y134361D01*
X323578Y134361D01*
X323578Y126422D01*
X315639Y126422D01*
G37*
%LPD*%
%LPC*%
G36*
X251822Y114039D02*
X251822Y114039D01*
X251822Y121978D01*
X259761Y121978D01*
X259761Y119991D01*
X253809Y114039D01*
X251822Y114039D01*
G37*
%LPD*%
%LPC*%
G36*
X328022Y114039D02*
X328022Y114039D01*
X328022Y121978D01*
X335961Y121978D01*
X335961Y119991D01*
X330009Y114039D01*
X328022Y114039D01*
G37*
%LPD*%
%LPC*%
G36*
X239439Y126422D02*
X239439Y126422D01*
X239439Y128409D01*
X245391Y134361D01*
X247378Y134361D01*
X247378Y126422D01*
X239439Y126422D01*
G37*
%LPD*%
%LPC*%
G36*
X245391Y342639D02*
X245391Y342639D01*
X239439Y348591D01*
X239439Y350578D01*
X247378Y350578D01*
X247378Y342639D01*
X245391Y342639D01*
G37*
%LPD*%
%LPC*%
G36*
X321591Y342639D02*
X321591Y342639D01*
X315639Y348591D01*
X315639Y350578D01*
X323578Y350578D01*
X323578Y342639D01*
X321591Y342639D01*
G37*
%LPD*%
%LPC*%
G36*
X321591Y114039D02*
X321591Y114039D01*
X315639Y119991D01*
X315639Y121978D01*
X323578Y121978D01*
X323578Y114039D01*
X321591Y114039D01*
G37*
%LPD*%
%LPC*%
G36*
X245391Y114039D02*
X245391Y114039D01*
X239439Y119991D01*
X239439Y121978D01*
X247378Y121978D01*
X247378Y114039D01*
X245391Y114039D01*
G37*
%LPD*%
D10*
X38100Y431800D03*
X571500Y431800D03*
X571500Y38100D03*
X38100Y38100D03*
D11*
X533400Y203200D03*
D12*
X508000Y203200D03*
X482600Y203200D03*
X457200Y203200D03*
D11*
X533400Y241300D03*
D12*
X508000Y241300D03*
X482600Y241300D03*
X457200Y241300D03*
D11*
X533400Y279400D03*
D12*
X508000Y279400D03*
X482600Y279400D03*
X457200Y279400D03*
D11*
X63500Y266700D03*
D12*
X63500Y241300D03*
X63500Y215900D03*
D13*
X71800Y98800D03*
D14*
X71800Y124200D03*
X97200Y98800D03*
X97200Y124200D03*
X122600Y98800D03*
X122600Y124200D03*
X148000Y98800D03*
X148000Y124200D03*
X173400Y98800D03*
X173400Y124200D03*
X198800Y98800D03*
X198800Y124200D03*
X224200Y98800D03*
X224200Y124200D03*
X249600Y98800D03*
X249600Y124200D03*
X275000Y98800D03*
X275000Y124200D03*
X300400Y98800D03*
X300400Y124200D03*
X325800Y98800D03*
X325800Y124200D03*
X351200Y98800D03*
X351200Y124200D03*
X376600Y98800D03*
X376600Y124200D03*
X402000Y98800D03*
X402000Y124200D03*
X427400Y98800D03*
X427400Y124200D03*
X452800Y98800D03*
X452800Y124200D03*
X478200Y98800D03*
X478200Y124200D03*
X503600Y98800D03*
X503600Y124200D03*
D13*
X71800Y352800D03*
D14*
X71800Y378200D03*
X97200Y352800D03*
X97200Y378200D03*
X122600Y352800D03*
X122600Y378200D03*
X148000Y352800D03*
X148000Y378200D03*
X173400Y352800D03*
X173400Y378200D03*
X198800Y352800D03*
X198800Y378200D03*
X224200Y352800D03*
X224200Y378200D03*
X249600Y352800D03*
X249600Y378200D03*
X275000Y352800D03*
X275000Y378200D03*
X300400Y352800D03*
X300400Y378200D03*
X325800Y352800D03*
X325800Y378200D03*
X351200Y352800D03*
X351200Y378200D03*
X376600Y352800D03*
X376600Y378200D03*
X402000Y352800D03*
X402000Y378200D03*
X427400Y352800D03*
X427400Y378200D03*
X452800Y352800D03*
X452800Y378200D03*
X478200Y352800D03*
X478200Y378200D03*
X503600Y352800D03*
X503600Y378200D03*
D15*
X160020Y284480D03*
D16*
X38100Y431800D02*
X63500Y457200D01*
X546100Y457200D02*
X571500Y431800D01*
X546100Y457200D02*
X63500Y457200D01*
X571500Y38100D02*
X596900Y63500D01*
X596900Y406400D02*
X571500Y431800D01*
X596900Y406400D02*
X596900Y63500D01*
X38100Y431800D02*
X12700Y406400D01*
X12700Y63500D02*
X38100Y38100D01*
X12700Y63500D02*
X12700Y406400D01*
X38100Y38100D02*
X63500Y12700D01*
X546100Y12700D02*
X571500Y38100D01*
X546100Y12700D02*
X63500Y12700D01*
M02*
