G04 EAGLE Gerber RS-274X export*
G75*
%MOMM*%
%FSLAX34Y34*%
%LPD*%
%INTop Copper*%
%IPPOS*%
%AMOC8*
5,1,8,0,0,1.08239X$1,22.5*%
G01*
%ADD10C,1.016000*%
%ADD11C,4.445000*%
%ADD12R,1.600000X1.803000*%
%ADD13R,1.651000X1.651000*%
%ADD14C,1.651000*%
%ADD15C,0.102500*%
%ADD16R,1.524000X1.524000*%
%ADD17P,1.649562X8X22.500000*%
%ADD18C,0.508000*%
%ADD19C,0.254000*%
%ADD20C,0.756400*%

G36*
X598288Y10176D02*
X598288Y10176D01*
X598407Y10183D01*
X598445Y10196D01*
X598486Y10201D01*
X598596Y10244D01*
X598709Y10281D01*
X598744Y10303D01*
X598781Y10318D01*
X598877Y10387D01*
X598978Y10451D01*
X599006Y10481D01*
X599039Y10504D01*
X599115Y10596D01*
X599196Y10683D01*
X599216Y10718D01*
X599241Y10749D01*
X599292Y10857D01*
X599350Y10961D01*
X599360Y11001D01*
X599377Y11037D01*
X599399Y11154D01*
X599429Y11269D01*
X599433Y11329D01*
X599437Y11349D01*
X599435Y11370D01*
X599439Y11430D01*
X599439Y458470D01*
X599424Y458588D01*
X599417Y458707D01*
X599404Y458745D01*
X599399Y458786D01*
X599356Y458896D01*
X599319Y459009D01*
X599297Y459044D01*
X599282Y459081D01*
X599213Y459177D01*
X599149Y459278D01*
X599119Y459306D01*
X599096Y459339D01*
X599004Y459415D01*
X598917Y459496D01*
X598882Y459516D01*
X598851Y459541D01*
X598743Y459592D01*
X598639Y459650D01*
X598599Y459660D01*
X598563Y459677D01*
X598446Y459699D01*
X598331Y459729D01*
X598271Y459733D01*
X598251Y459737D01*
X598230Y459735D01*
X598170Y459739D01*
X11430Y459739D01*
X11312Y459724D01*
X11193Y459717D01*
X11155Y459704D01*
X11114Y459699D01*
X11004Y459656D01*
X10891Y459619D01*
X10856Y459597D01*
X10819Y459582D01*
X10723Y459513D01*
X10622Y459449D01*
X10594Y459419D01*
X10561Y459396D01*
X10485Y459304D01*
X10404Y459217D01*
X10384Y459182D01*
X10359Y459151D01*
X10308Y459043D01*
X10250Y458939D01*
X10240Y458899D01*
X10223Y458863D01*
X10201Y458746D01*
X10171Y458631D01*
X10167Y458571D01*
X10163Y458551D01*
X10165Y458530D01*
X10161Y458470D01*
X10161Y11430D01*
X10176Y11312D01*
X10183Y11193D01*
X10196Y11155D01*
X10201Y11114D01*
X10244Y11004D01*
X10281Y10891D01*
X10303Y10856D01*
X10318Y10819D01*
X10387Y10723D01*
X10451Y10622D01*
X10481Y10594D01*
X10504Y10561D01*
X10596Y10485D01*
X10683Y10404D01*
X10718Y10384D01*
X10749Y10359D01*
X10857Y10308D01*
X10961Y10250D01*
X11001Y10240D01*
X11037Y10223D01*
X11154Y10201D01*
X11269Y10171D01*
X11329Y10167D01*
X11349Y10163D01*
X11370Y10165D01*
X11430Y10161D01*
X598170Y10161D01*
X598288Y10176D01*
G37*
%LPC*%
G36*
X412862Y182625D02*
X412862Y182625D01*
X405125Y190362D01*
X405125Y191391D01*
X405110Y191509D01*
X405103Y191628D01*
X405090Y191666D01*
X405085Y191707D01*
X405042Y191817D01*
X405005Y191930D01*
X404983Y191965D01*
X404968Y192002D01*
X404899Y192098D01*
X404835Y192199D01*
X404805Y192227D01*
X404782Y192260D01*
X404690Y192336D01*
X404603Y192417D01*
X404568Y192437D01*
X404537Y192462D01*
X404429Y192513D01*
X404325Y192571D01*
X404285Y192581D01*
X404249Y192598D01*
X404132Y192620D01*
X404017Y192650D01*
X403957Y192654D01*
X403937Y192658D01*
X403916Y192656D01*
X403856Y192660D01*
X399288Y192660D01*
X398395Y193553D01*
X398395Y199136D01*
X398380Y199254D01*
X398373Y199373D01*
X398360Y199411D01*
X398355Y199452D01*
X398312Y199562D01*
X398275Y199675D01*
X398253Y199710D01*
X398238Y199747D01*
X398169Y199843D01*
X398105Y199944D01*
X398075Y199972D01*
X398052Y200005D01*
X397960Y200081D01*
X397873Y200162D01*
X397838Y200182D01*
X397807Y200207D01*
X397699Y200258D01*
X397595Y200316D01*
X397555Y200326D01*
X397519Y200343D01*
X397402Y200365D01*
X397287Y200395D01*
X397227Y200399D01*
X397207Y200403D01*
X397186Y200401D01*
X397126Y200405D01*
X392542Y200405D01*
X392187Y200760D01*
X392077Y200846D01*
X391970Y200934D01*
X391952Y200943D01*
X391936Y200955D01*
X391808Y201010D01*
X391683Y201070D01*
X391663Y201073D01*
X391644Y201082D01*
X391507Y201103D01*
X391370Y201129D01*
X391350Y201128D01*
X391330Y201131D01*
X391191Y201118D01*
X391053Y201110D01*
X391034Y201103D01*
X391014Y201102D01*
X390883Y201055D01*
X390750Y201012D01*
X390733Y201001D01*
X390714Y200994D01*
X390600Y200916D01*
X390482Y200841D01*
X390468Y200827D01*
X390451Y200815D01*
X390359Y200711D01*
X390264Y200610D01*
X390254Y200592D01*
X390241Y200577D01*
X390178Y200453D01*
X390110Y200331D01*
X390105Y200312D01*
X390096Y200294D01*
X390066Y200158D01*
X390031Y200023D01*
X390029Y199995D01*
X390026Y199983D01*
X390027Y199963D01*
X390021Y199863D01*
X390021Y193851D01*
X389848Y193204D01*
X389513Y192625D01*
X389040Y192152D01*
X388461Y191817D01*
X387814Y191644D01*
X382019Y191644D01*
X382019Y201930D01*
X382004Y202048D01*
X381997Y202167D01*
X381984Y202205D01*
X381979Y202245D01*
X381935Y202356D01*
X381899Y202469D01*
X381877Y202504D01*
X381862Y202541D01*
X381792Y202637D01*
X381729Y202738D01*
X381699Y202766D01*
X381675Y202798D01*
X381584Y202874D01*
X381497Y202956D01*
X381462Y202975D01*
X381430Y203001D01*
X381323Y203052D01*
X381219Y203109D01*
X381179Y203120D01*
X381143Y203137D01*
X381026Y203159D01*
X380911Y203189D01*
X380850Y203193D01*
X380830Y203197D01*
X380810Y203195D01*
X380750Y203199D01*
X379479Y203199D01*
X379479Y203201D01*
X380750Y203201D01*
X380868Y203216D01*
X380987Y203223D01*
X381025Y203236D01*
X381065Y203241D01*
X381176Y203285D01*
X381289Y203321D01*
X381324Y203343D01*
X381361Y203358D01*
X381457Y203428D01*
X381558Y203491D01*
X381586Y203521D01*
X381618Y203545D01*
X381694Y203636D01*
X381776Y203723D01*
X381795Y203758D01*
X381821Y203790D01*
X381872Y203897D01*
X381929Y204001D01*
X381940Y204041D01*
X381957Y204077D01*
X381979Y204194D01*
X382009Y204309D01*
X382013Y204370D01*
X382017Y204390D01*
X382015Y204410D01*
X382019Y204470D01*
X382019Y214756D01*
X387096Y214756D01*
X387214Y214771D01*
X387333Y214778D01*
X387371Y214791D01*
X387412Y214796D01*
X387522Y214839D01*
X387635Y214876D01*
X387670Y214898D01*
X387707Y214913D01*
X387803Y214982D01*
X387904Y215046D01*
X387932Y215076D01*
X387965Y215099D01*
X388040Y215191D01*
X388122Y215278D01*
X388142Y215313D01*
X388167Y215344D01*
X388218Y215452D01*
X388276Y215556D01*
X388286Y215595D01*
X388303Y215632D01*
X388325Y215749D01*
X388355Y215864D01*
X388359Y215924D01*
X388363Y215944D01*
X388361Y215965D01*
X388365Y216025D01*
X388365Y228475D01*
X388350Y228593D01*
X388343Y228712D01*
X388330Y228750D01*
X388325Y228791D01*
X388282Y228901D01*
X388245Y229014D01*
X388223Y229049D01*
X388208Y229086D01*
X388139Y229182D01*
X388075Y229283D01*
X388045Y229311D01*
X388022Y229344D01*
X387930Y229420D01*
X387843Y229501D01*
X387808Y229521D01*
X387777Y229546D01*
X387669Y229597D01*
X387565Y229655D01*
X387525Y229665D01*
X387489Y229682D01*
X387372Y229704D01*
X387257Y229734D01*
X387197Y229738D01*
X387177Y229742D01*
X387156Y229740D01*
X387096Y229744D01*
X382019Y229744D01*
X382019Y240030D01*
X382004Y240148D01*
X381997Y240267D01*
X381984Y240305D01*
X381979Y240345D01*
X381935Y240456D01*
X381899Y240569D01*
X381877Y240604D01*
X381862Y240641D01*
X381792Y240737D01*
X381729Y240838D01*
X381699Y240866D01*
X381675Y240898D01*
X381584Y240974D01*
X381497Y241056D01*
X381462Y241075D01*
X381430Y241101D01*
X381323Y241152D01*
X381219Y241209D01*
X381179Y241220D01*
X381143Y241237D01*
X381026Y241259D01*
X380911Y241289D01*
X380850Y241293D01*
X380830Y241297D01*
X380810Y241295D01*
X380750Y241299D01*
X379479Y241299D01*
X379479Y241301D01*
X380750Y241301D01*
X380868Y241316D01*
X380987Y241323D01*
X381025Y241336D01*
X381065Y241341D01*
X381176Y241385D01*
X381289Y241421D01*
X381324Y241443D01*
X381361Y241458D01*
X381457Y241528D01*
X381558Y241591D01*
X381586Y241621D01*
X381618Y241645D01*
X381694Y241736D01*
X381776Y241823D01*
X381795Y241858D01*
X381821Y241890D01*
X381872Y241997D01*
X381929Y242101D01*
X381940Y242141D01*
X381957Y242177D01*
X381979Y242294D01*
X382009Y242409D01*
X382013Y242470D01*
X382017Y242490D01*
X382015Y242510D01*
X382019Y242570D01*
X382019Y252856D01*
X387096Y252856D01*
X387214Y252871D01*
X387333Y252878D01*
X387371Y252891D01*
X387412Y252896D01*
X387522Y252939D01*
X387635Y252976D01*
X387670Y252998D01*
X387707Y253013D01*
X387803Y253082D01*
X387904Y253146D01*
X387932Y253176D01*
X387965Y253199D01*
X388040Y253291D01*
X388122Y253378D01*
X388142Y253413D01*
X388167Y253444D01*
X388218Y253552D01*
X388276Y253656D01*
X388286Y253695D01*
X388303Y253732D01*
X388325Y253849D01*
X388355Y253964D01*
X388359Y254024D01*
X388363Y254044D01*
X388361Y254065D01*
X388365Y254125D01*
X388365Y266575D01*
X388350Y266693D01*
X388343Y266812D01*
X388330Y266850D01*
X388325Y266891D01*
X388282Y267001D01*
X388245Y267114D01*
X388223Y267149D01*
X388208Y267186D01*
X388139Y267282D01*
X388075Y267383D01*
X388045Y267411D01*
X388022Y267444D01*
X387930Y267520D01*
X387843Y267601D01*
X387808Y267621D01*
X387777Y267646D01*
X387669Y267697D01*
X387565Y267755D01*
X387525Y267765D01*
X387489Y267782D01*
X387372Y267804D01*
X387257Y267834D01*
X387197Y267838D01*
X387177Y267842D01*
X387156Y267840D01*
X387096Y267844D01*
X382019Y267844D01*
X382019Y278130D01*
X382004Y278248D01*
X381997Y278367D01*
X381984Y278405D01*
X381979Y278445D01*
X381935Y278556D01*
X381899Y278669D01*
X381877Y278704D01*
X381862Y278741D01*
X381792Y278837D01*
X381729Y278938D01*
X381699Y278966D01*
X381675Y278998D01*
X381584Y279074D01*
X381497Y279156D01*
X381462Y279175D01*
X381430Y279201D01*
X381323Y279252D01*
X381219Y279309D01*
X381179Y279320D01*
X381143Y279337D01*
X381026Y279359D01*
X380911Y279389D01*
X380850Y279393D01*
X380830Y279397D01*
X380810Y279395D01*
X380750Y279399D01*
X379479Y279399D01*
X379479Y279401D01*
X380750Y279401D01*
X380868Y279416D01*
X380987Y279423D01*
X381025Y279436D01*
X381065Y279441D01*
X381176Y279485D01*
X381289Y279521D01*
X381324Y279543D01*
X381361Y279558D01*
X381457Y279628D01*
X381558Y279691D01*
X381586Y279721D01*
X381618Y279745D01*
X381694Y279836D01*
X381776Y279923D01*
X381795Y279958D01*
X381821Y279990D01*
X381872Y280097D01*
X381929Y280201D01*
X381940Y280241D01*
X381957Y280277D01*
X381979Y280394D01*
X382009Y280509D01*
X382013Y280570D01*
X382017Y280590D01*
X382015Y280610D01*
X382019Y280670D01*
X382019Y290956D01*
X387096Y290956D01*
X387214Y290971D01*
X387333Y290978D01*
X387371Y290991D01*
X387412Y290996D01*
X387522Y291039D01*
X387635Y291076D01*
X387670Y291098D01*
X387707Y291113D01*
X387803Y291182D01*
X387904Y291246D01*
X387932Y291276D01*
X387965Y291299D01*
X388040Y291391D01*
X388122Y291478D01*
X388142Y291513D01*
X388167Y291544D01*
X388218Y291652D01*
X388276Y291756D01*
X388286Y291795D01*
X388303Y291832D01*
X388325Y291949D01*
X388355Y292064D01*
X388359Y292124D01*
X388363Y292144D01*
X388361Y292165D01*
X388365Y292225D01*
X388365Y379317D01*
X388353Y379415D01*
X388350Y379514D01*
X388333Y379572D01*
X388325Y379632D01*
X388289Y379724D01*
X388262Y379819D01*
X388231Y379871D01*
X388208Y379928D01*
X388150Y380008D01*
X388100Y380093D01*
X388034Y380169D01*
X388022Y380185D01*
X388012Y380193D01*
X387994Y380214D01*
X387912Y380296D01*
X387802Y380381D01*
X387695Y380470D01*
X387676Y380479D01*
X387660Y380491D01*
X387532Y380547D01*
X387407Y380606D01*
X387387Y380609D01*
X387369Y380617D01*
X387231Y380639D01*
X387094Y380665D01*
X387074Y380664D01*
X387054Y380667D01*
X386916Y380654D01*
X386777Y380646D01*
X386758Y380639D01*
X386738Y380638D01*
X386607Y380591D01*
X386475Y380548D01*
X386458Y380537D01*
X386439Y380530D01*
X386324Y380452D01*
X386206Y380377D01*
X386192Y380363D01*
X386175Y380351D01*
X386083Y380247D01*
X385988Y380146D01*
X385978Y380128D01*
X385965Y380113D01*
X385902Y379989D01*
X385834Y379867D01*
X385829Y379848D01*
X385820Y379830D01*
X385790Y379694D01*
X385755Y379559D01*
X385753Y379531D01*
X385751Y379520D01*
X385751Y379499D01*
X385745Y379399D01*
X385745Y374412D01*
X380388Y369055D01*
X372812Y369055D01*
X367455Y374412D01*
X367455Y381988D01*
X372812Y387345D01*
X377799Y387345D01*
X377936Y387362D01*
X378075Y387375D01*
X378094Y387382D01*
X378114Y387385D01*
X378243Y387436D01*
X378374Y387483D01*
X378391Y387494D01*
X378410Y387502D01*
X378522Y387583D01*
X378637Y387661D01*
X378651Y387677D01*
X378667Y387688D01*
X378756Y387796D01*
X378848Y387900D01*
X378857Y387918D01*
X378870Y387933D01*
X378929Y388059D01*
X378993Y388183D01*
X378997Y388203D01*
X379006Y388221D01*
X379032Y388357D01*
X379062Y388493D01*
X379062Y388514D01*
X379065Y388533D01*
X379057Y388672D01*
X379053Y388811D01*
X379047Y388831D01*
X379046Y388851D01*
X379003Y388983D01*
X378964Y389117D01*
X378954Y389134D01*
X378948Y389153D01*
X378873Y389271D01*
X378803Y389391D01*
X378784Y389412D01*
X378777Y389422D01*
X378762Y389436D01*
X378696Y389511D01*
X367514Y400694D01*
X367436Y400754D01*
X367364Y400822D01*
X367311Y400851D01*
X367263Y400888D01*
X367172Y400928D01*
X367085Y400976D01*
X367027Y400991D01*
X366971Y401015D01*
X366873Y401030D01*
X366777Y401055D01*
X366677Y401061D01*
X366657Y401065D01*
X366645Y401063D01*
X366617Y401065D01*
X149943Y401065D01*
X149845Y401053D01*
X149746Y401050D01*
X149688Y401033D01*
X149628Y401025D01*
X149536Y400989D01*
X149441Y400961D01*
X149388Y400931D01*
X149332Y400908D01*
X149252Y400850D01*
X149167Y400800D01*
X149091Y400734D01*
X149075Y400722D01*
X149067Y400712D01*
X149046Y400694D01*
X131940Y383588D01*
X131867Y383493D01*
X131788Y383404D01*
X131770Y383368D01*
X131745Y383336D01*
X131698Y383227D01*
X131644Y383121D01*
X131635Y383082D01*
X131619Y383045D01*
X131600Y382927D01*
X131574Y382811D01*
X131575Y382770D01*
X131569Y382730D01*
X131580Y382612D01*
X131584Y382493D01*
X131595Y382454D01*
X131599Y382414D01*
X131639Y382302D01*
X131672Y382187D01*
X131693Y382153D01*
X131706Y382115D01*
X131745Y382058D01*
X131745Y374412D01*
X126388Y369055D01*
X118812Y369055D01*
X113455Y374412D01*
X113455Y381988D01*
X118812Y387345D01*
X126445Y387345D01*
X126553Y387298D01*
X126659Y387244D01*
X126699Y387235D01*
X126736Y387219D01*
X126853Y387200D01*
X126969Y387174D01*
X127010Y387175D01*
X127050Y387169D01*
X127168Y387180D01*
X127287Y387184D01*
X127326Y387195D01*
X127366Y387199D01*
X127479Y387239D01*
X127593Y387272D01*
X127628Y387293D01*
X127666Y387306D01*
X127764Y387373D01*
X127867Y387434D01*
X127912Y387473D01*
X127929Y387485D01*
X127942Y387500D01*
X127988Y387540D01*
X144426Y403979D01*
X144511Y404088D01*
X144600Y404195D01*
X144609Y404214D01*
X144621Y404230D01*
X144677Y404358D01*
X144736Y404483D01*
X144739Y404503D01*
X144747Y404522D01*
X144769Y404660D01*
X144795Y404796D01*
X144794Y404816D01*
X144797Y404836D01*
X144784Y404975D01*
X144776Y405113D01*
X144769Y405132D01*
X144768Y405152D01*
X144720Y405284D01*
X144678Y405415D01*
X144667Y405433D01*
X144660Y405452D01*
X144582Y405567D01*
X144507Y405684D01*
X144493Y405698D01*
X144481Y405715D01*
X144377Y405807D01*
X144276Y405902D01*
X144258Y405912D01*
X144243Y405925D01*
X144119Y405988D01*
X143997Y406056D01*
X143978Y406061D01*
X143960Y406070D01*
X143824Y406100D01*
X143689Y406135D01*
X143661Y406137D01*
X143649Y406140D01*
X143629Y406139D01*
X143529Y406145D01*
X129623Y406145D01*
X129525Y406133D01*
X129426Y406130D01*
X129368Y406113D01*
X129308Y406105D01*
X129216Y406069D01*
X129121Y406041D01*
X129068Y406011D01*
X129012Y405988D01*
X128932Y405930D01*
X128847Y405880D01*
X128771Y405814D01*
X128755Y405802D01*
X128747Y405792D01*
X128726Y405774D01*
X106540Y383588D01*
X106467Y383493D01*
X106388Y383404D01*
X106370Y383368D01*
X106345Y383336D01*
X106298Y383227D01*
X106244Y383121D01*
X106235Y383082D01*
X106219Y383044D01*
X106200Y382927D01*
X106174Y382811D01*
X106175Y382770D01*
X106169Y382730D01*
X106180Y382612D01*
X106184Y382493D01*
X106195Y382454D01*
X106199Y382414D01*
X106239Y382302D01*
X106272Y382187D01*
X106293Y382153D01*
X106306Y382114D01*
X106345Y382058D01*
X106345Y374412D01*
X100988Y369055D01*
X93412Y369055D01*
X88055Y374412D01*
X88055Y381988D01*
X93412Y387345D01*
X101045Y387345D01*
X101153Y387298D01*
X101259Y387244D01*
X101299Y387235D01*
X101336Y387219D01*
X101453Y387200D01*
X101569Y387174D01*
X101610Y387175D01*
X101650Y387169D01*
X101768Y387180D01*
X101887Y387184D01*
X101926Y387195D01*
X101966Y387199D01*
X102078Y387239D01*
X102193Y387272D01*
X102228Y387292D01*
X102266Y387306D01*
X102364Y387373D01*
X102467Y387434D01*
X102512Y387473D01*
X102529Y387485D01*
X102542Y387500D01*
X102588Y387540D01*
X124106Y409059D01*
X124191Y409168D01*
X124280Y409275D01*
X124289Y409294D01*
X124301Y409310D01*
X124357Y409438D01*
X124416Y409563D01*
X124419Y409583D01*
X124427Y409602D01*
X124449Y409740D01*
X124475Y409876D01*
X124474Y409896D01*
X124477Y409916D01*
X124464Y410055D01*
X124456Y410193D01*
X124449Y410212D01*
X124448Y410232D01*
X124400Y410364D01*
X124358Y410495D01*
X124347Y410513D01*
X124340Y410532D01*
X124262Y410647D01*
X124187Y410764D01*
X124173Y410778D01*
X124161Y410795D01*
X124057Y410887D01*
X123956Y410982D01*
X123938Y410992D01*
X123923Y411005D01*
X123799Y411068D01*
X123677Y411136D01*
X123658Y411141D01*
X123640Y411150D01*
X123504Y411180D01*
X123369Y411215D01*
X123341Y411217D01*
X123329Y411220D01*
X123309Y411219D01*
X123209Y411225D01*
X109303Y411225D01*
X109205Y411213D01*
X109106Y411210D01*
X109048Y411193D01*
X108988Y411185D01*
X108896Y411149D01*
X108801Y411121D01*
X108748Y411091D01*
X108692Y411068D01*
X108612Y411010D01*
X108527Y410960D01*
X108451Y410894D01*
X108435Y410882D01*
X108427Y410872D01*
X108406Y410854D01*
X81140Y383588D01*
X81067Y383493D01*
X80988Y383404D01*
X80970Y383368D01*
X80945Y383336D01*
X80898Y383227D01*
X80844Y383121D01*
X80835Y383082D01*
X80819Y383045D01*
X80800Y382927D01*
X80774Y382811D01*
X80775Y382770D01*
X80769Y382730D01*
X80780Y382612D01*
X80784Y382493D01*
X80795Y382454D01*
X80799Y382414D01*
X80839Y382302D01*
X80872Y382187D01*
X80893Y382153D01*
X80906Y382115D01*
X80945Y382058D01*
X80945Y374412D01*
X75588Y369055D01*
X68012Y369055D01*
X62655Y374412D01*
X62655Y381988D01*
X68012Y387345D01*
X75645Y387345D01*
X75753Y387298D01*
X75859Y387244D01*
X75899Y387235D01*
X75936Y387219D01*
X76053Y387200D01*
X76169Y387174D01*
X76210Y387175D01*
X76250Y387169D01*
X76368Y387180D01*
X76487Y387184D01*
X76526Y387195D01*
X76566Y387199D01*
X76679Y387239D01*
X76793Y387272D01*
X76828Y387293D01*
X76866Y387306D01*
X76964Y387373D01*
X77067Y387434D01*
X77112Y387473D01*
X77129Y387485D01*
X77142Y387500D01*
X77188Y387540D01*
X104454Y414806D01*
X106462Y416815D01*
X420258Y416815D01*
X442215Y394858D01*
X442215Y383612D01*
X442232Y383474D01*
X442245Y383335D01*
X442252Y383316D01*
X442255Y383296D01*
X442306Y383167D01*
X442353Y383036D01*
X442364Y383019D01*
X442372Y383000D01*
X442453Y382888D01*
X442531Y382773D01*
X442547Y382759D01*
X442558Y382743D01*
X442666Y382654D01*
X442770Y382562D01*
X442788Y382553D01*
X442803Y382540D01*
X442929Y382481D01*
X443053Y382418D01*
X443073Y382413D01*
X443091Y382405D01*
X443227Y382379D01*
X443363Y382348D01*
X443384Y382349D01*
X443403Y382345D01*
X443542Y382353D01*
X443681Y382358D01*
X443701Y382363D01*
X443721Y382365D01*
X443853Y382407D01*
X443987Y382446D01*
X444004Y382456D01*
X444023Y382463D01*
X444141Y382537D01*
X444261Y382608D01*
X444282Y382626D01*
X444292Y382633D01*
X444306Y382648D01*
X444381Y382714D01*
X449012Y387345D01*
X456588Y387345D01*
X461945Y381988D01*
X461945Y374412D01*
X456588Y369055D01*
X449012Y369055D01*
X444381Y373686D01*
X444272Y373771D01*
X444165Y373860D01*
X444146Y373868D01*
X444130Y373881D01*
X444002Y373936D01*
X443877Y373995D01*
X443857Y373999D01*
X443838Y374007D01*
X443700Y374029D01*
X443564Y374055D01*
X443544Y374054D01*
X443524Y374057D01*
X443385Y374044D01*
X443247Y374035D01*
X443228Y374029D01*
X443208Y374027D01*
X443076Y373980D01*
X442945Y373937D01*
X442927Y373927D01*
X442908Y373920D01*
X442793Y373842D01*
X442676Y373767D01*
X442662Y373752D01*
X442645Y373741D01*
X442553Y373637D01*
X442458Y373536D01*
X442448Y373518D01*
X442435Y373503D01*
X442371Y373379D01*
X442304Y373257D01*
X442299Y373238D01*
X442290Y373219D01*
X442260Y373084D01*
X442225Y372949D01*
X442223Y372921D01*
X442220Y372909D01*
X442221Y372889D01*
X442215Y372788D01*
X442215Y358212D01*
X442232Y358074D01*
X442245Y357935D01*
X442252Y357916D01*
X442255Y357896D01*
X442306Y357767D01*
X442353Y357636D01*
X442364Y357619D01*
X442372Y357600D01*
X442453Y357488D01*
X442531Y357373D01*
X442547Y357359D01*
X442558Y357343D01*
X442666Y357254D01*
X442770Y357162D01*
X442788Y357153D01*
X442803Y357140D01*
X442929Y357081D01*
X443053Y357018D01*
X443073Y357013D01*
X443091Y357005D01*
X443227Y356979D01*
X443363Y356948D01*
X443384Y356949D01*
X443403Y356945D01*
X443542Y356953D01*
X443681Y356958D01*
X443701Y356963D01*
X443721Y356965D01*
X443853Y357007D01*
X443987Y357046D01*
X444004Y357056D01*
X444023Y357063D01*
X444141Y357137D01*
X444261Y357208D01*
X444282Y357226D01*
X444292Y357233D01*
X444306Y357248D01*
X444381Y357314D01*
X449012Y361945D01*
X456588Y361945D01*
X461945Y356588D01*
X461945Y349012D01*
X456588Y343655D01*
X449012Y343655D01*
X444381Y348286D01*
X444272Y348371D01*
X444165Y348460D01*
X444146Y348468D01*
X444130Y348481D01*
X444002Y348536D01*
X443877Y348595D01*
X443857Y348599D01*
X443838Y348607D01*
X443700Y348629D01*
X443564Y348655D01*
X443544Y348654D01*
X443524Y348657D01*
X443385Y348644D01*
X443247Y348635D01*
X443228Y348629D01*
X443208Y348627D01*
X443076Y348580D01*
X442945Y348537D01*
X442927Y348527D01*
X442908Y348520D01*
X442793Y348442D01*
X442676Y348367D01*
X442662Y348352D01*
X442645Y348341D01*
X442553Y348237D01*
X442458Y348136D01*
X442448Y348118D01*
X442435Y348103D01*
X442371Y347979D01*
X442304Y347857D01*
X442299Y347838D01*
X442290Y347819D01*
X442260Y347684D01*
X442225Y347549D01*
X442223Y347521D01*
X442220Y347509D01*
X442221Y347489D01*
X442215Y347388D01*
X442215Y336662D01*
X411086Y305534D01*
X411026Y305456D01*
X410958Y305384D01*
X410929Y305331D01*
X410892Y305283D01*
X410852Y305192D01*
X410804Y305105D01*
X410789Y305047D01*
X410783Y305032D01*
X410777Y305020D01*
X410777Y305018D01*
X410765Y304991D01*
X410750Y304893D01*
X410725Y304797D01*
X410720Y304722D01*
X410717Y304707D01*
X410718Y304694D01*
X410715Y304677D01*
X410717Y304665D01*
X410715Y304637D01*
X410715Y291209D01*
X410730Y291091D01*
X410737Y290972D01*
X410750Y290934D01*
X410755Y290893D01*
X410798Y290783D01*
X410835Y290670D01*
X410857Y290635D01*
X410872Y290598D01*
X410941Y290502D01*
X411005Y290401D01*
X411035Y290373D01*
X411058Y290340D01*
X411150Y290264D01*
X411237Y290183D01*
X411272Y290163D01*
X411303Y290138D01*
X411411Y290087D01*
X411515Y290029D01*
X411555Y290019D01*
X411591Y290002D01*
X411708Y289980D01*
X411823Y289950D01*
X411883Y289946D01*
X411903Y289942D01*
X411924Y289944D01*
X411984Y289940D01*
X416552Y289940D01*
X417445Y289047D01*
X417445Y269753D01*
X416552Y268860D01*
X411984Y268860D01*
X411866Y268845D01*
X411747Y268838D01*
X411709Y268825D01*
X411668Y268820D01*
X411558Y268777D01*
X411445Y268740D01*
X411410Y268718D01*
X411373Y268703D01*
X411277Y268634D01*
X411176Y268570D01*
X411148Y268540D01*
X411115Y268517D01*
X411039Y268425D01*
X410958Y268338D01*
X410938Y268303D01*
X410913Y268272D01*
X410862Y268164D01*
X410804Y268060D01*
X410794Y268020D01*
X410777Y267984D01*
X410755Y267867D01*
X410725Y267752D01*
X410721Y267692D01*
X410717Y267672D01*
X410719Y267651D01*
X410715Y267591D01*
X410715Y266863D01*
X410727Y266765D01*
X410730Y266666D01*
X410747Y266608D01*
X410755Y266548D01*
X410791Y266456D01*
X410819Y266361D01*
X410849Y266308D01*
X410872Y266252D01*
X410930Y266172D01*
X410980Y266087D01*
X411046Y266011D01*
X411058Y265995D01*
X411068Y265987D01*
X411086Y265966D01*
X412266Y264786D01*
X412344Y264726D01*
X412416Y264658D01*
X412469Y264629D01*
X412517Y264592D01*
X412608Y264552D01*
X412695Y264504D01*
X412753Y264489D01*
X412809Y264465D01*
X412907Y264450D01*
X413003Y264425D01*
X413103Y264419D01*
X413123Y264415D01*
X413135Y264417D01*
X413163Y264415D01*
X463137Y264415D01*
X463235Y264427D01*
X463334Y264430D01*
X463392Y264447D01*
X463452Y264455D01*
X463544Y264491D01*
X463639Y264519D01*
X463692Y264549D01*
X463748Y264572D01*
X463828Y264630D01*
X463913Y264680D01*
X463989Y264746D01*
X464005Y264758D01*
X464013Y264768D01*
X464034Y264786D01*
X473358Y274110D01*
X473376Y274133D01*
X473398Y274152D01*
X473473Y274258D01*
X473553Y274361D01*
X473564Y274388D01*
X473581Y274412D01*
X473627Y274534D01*
X473679Y274653D01*
X473684Y274682D01*
X473694Y274710D01*
X473708Y274839D01*
X473729Y274967D01*
X473726Y274997D01*
X473729Y275026D01*
X473711Y275154D01*
X473699Y275284D01*
X473689Y275312D01*
X473685Y275341D01*
X473633Y275493D01*
X472820Y277455D01*
X472820Y281345D01*
X474309Y284940D01*
X477060Y287691D01*
X480655Y289180D01*
X484545Y289180D01*
X488140Y287691D01*
X490891Y284940D01*
X492380Y281345D01*
X492380Y277455D01*
X490891Y273860D01*
X488140Y271109D01*
X484545Y269620D01*
X480655Y269620D01*
X478693Y270433D01*
X478665Y270441D01*
X478638Y270454D01*
X478512Y270482D01*
X478386Y270517D01*
X478357Y270517D01*
X478328Y270524D01*
X478198Y270520D01*
X478068Y270522D01*
X478040Y270515D01*
X478010Y270514D01*
X477886Y270478D01*
X477759Y270448D01*
X477733Y270434D01*
X477705Y270426D01*
X477593Y270360D01*
X477478Y270299D01*
X477456Y270279D01*
X477431Y270264D01*
X477310Y270158D01*
X467986Y260834D01*
X465978Y258825D01*
X410322Y258825D01*
X405125Y264022D01*
X405125Y267591D01*
X405110Y267709D01*
X405103Y267828D01*
X405090Y267866D01*
X405085Y267907D01*
X405042Y268017D01*
X405005Y268130D01*
X404983Y268165D01*
X404968Y268202D01*
X404899Y268298D01*
X404835Y268399D01*
X404805Y268427D01*
X404782Y268460D01*
X404690Y268536D01*
X404603Y268617D01*
X404568Y268637D01*
X404537Y268662D01*
X404429Y268713D01*
X404325Y268771D01*
X404285Y268781D01*
X404249Y268798D01*
X404132Y268820D01*
X404017Y268850D01*
X403957Y268854D01*
X403937Y268858D01*
X403916Y268856D01*
X403856Y268860D01*
X400304Y268860D01*
X400186Y268845D01*
X400067Y268838D01*
X400029Y268825D01*
X399988Y268820D01*
X399878Y268777D01*
X399765Y268740D01*
X399730Y268718D01*
X399693Y268703D01*
X399597Y268634D01*
X399496Y268570D01*
X399468Y268540D01*
X399435Y268517D01*
X399359Y268425D01*
X399278Y268338D01*
X399258Y268303D01*
X399233Y268272D01*
X399182Y268164D01*
X399124Y268060D01*
X399114Y268020D01*
X399097Y267984D01*
X399075Y267867D01*
X399045Y267752D01*
X399041Y267692D01*
X399037Y267672D01*
X399039Y267651D01*
X399035Y267591D01*
X399035Y253109D01*
X399050Y252991D01*
X399057Y252872D01*
X399070Y252834D01*
X399075Y252793D01*
X399118Y252683D01*
X399155Y252570D01*
X399177Y252535D01*
X399192Y252498D01*
X399261Y252402D01*
X399325Y252301D01*
X399355Y252273D01*
X399378Y252240D01*
X399470Y252164D01*
X399557Y252083D01*
X399592Y252063D01*
X399623Y252038D01*
X399731Y251987D01*
X399835Y251929D01*
X399875Y251919D01*
X399911Y251902D01*
X400028Y251880D01*
X400143Y251850D01*
X400203Y251846D01*
X400223Y251842D01*
X400244Y251844D01*
X400304Y251840D01*
X416552Y251840D01*
X417445Y250947D01*
X417445Y231653D01*
X416552Y230760D01*
X413796Y230760D01*
X413659Y230743D01*
X413520Y230730D01*
X413501Y230723D01*
X413481Y230720D01*
X413352Y230669D01*
X413221Y230622D01*
X413204Y230611D01*
X413185Y230603D01*
X413073Y230522D01*
X412958Y230444D01*
X412944Y230428D01*
X412928Y230417D01*
X412839Y230309D01*
X412747Y230205D01*
X412738Y230187D01*
X412725Y230172D01*
X412666Y230046D01*
X412602Y229922D01*
X412598Y229902D01*
X412589Y229884D01*
X412563Y229747D01*
X412533Y229612D01*
X412533Y229591D01*
X412530Y229572D01*
X412538Y229433D01*
X412542Y229294D01*
X412548Y229274D01*
X412549Y229254D01*
X412592Y229122D01*
X412631Y228988D01*
X412641Y228971D01*
X412647Y228952D01*
X412722Y228834D01*
X412792Y228714D01*
X412811Y228693D01*
X412818Y228683D01*
X412833Y228669D01*
X412899Y228594D01*
X414806Y226686D01*
X414884Y226626D01*
X414956Y226558D01*
X415009Y226529D01*
X415057Y226492D01*
X415148Y226452D01*
X415235Y226404D01*
X415293Y226389D01*
X415349Y226365D01*
X415447Y226350D01*
X415543Y226325D01*
X415643Y226319D01*
X415663Y226315D01*
X415675Y226317D01*
X415703Y226315D01*
X463137Y226315D01*
X463235Y226327D01*
X463334Y226330D01*
X463392Y226347D01*
X463452Y226355D01*
X463544Y226391D01*
X463639Y226419D01*
X463692Y226449D01*
X463748Y226472D01*
X463828Y226530D01*
X463913Y226580D01*
X463989Y226646D01*
X464005Y226658D01*
X464013Y226668D01*
X464034Y226686D01*
X473358Y236010D01*
X473376Y236033D01*
X473398Y236052D01*
X473473Y236159D01*
X473553Y236261D01*
X473564Y236288D01*
X473581Y236312D01*
X473627Y236434D01*
X473679Y236553D01*
X473684Y236582D01*
X473694Y236610D01*
X473708Y236739D01*
X473729Y236867D01*
X473726Y236897D01*
X473729Y236926D01*
X473711Y237054D01*
X473699Y237184D01*
X473689Y237212D01*
X473685Y237241D01*
X473633Y237393D01*
X472820Y239355D01*
X472820Y243245D01*
X474309Y246840D01*
X477060Y249591D01*
X480655Y251080D01*
X484545Y251080D01*
X488140Y249591D01*
X490891Y246840D01*
X492380Y243245D01*
X492380Y239355D01*
X490891Y235760D01*
X488140Y233009D01*
X484545Y231520D01*
X480655Y231520D01*
X478693Y232333D01*
X478665Y232341D01*
X478638Y232354D01*
X478512Y232382D01*
X478386Y232417D01*
X478357Y232417D01*
X478328Y232424D01*
X478198Y232420D01*
X478068Y232422D01*
X478040Y232415D01*
X478010Y232414D01*
X477886Y232378D01*
X477759Y232348D01*
X477733Y232334D01*
X477705Y232326D01*
X477593Y232260D01*
X477478Y232199D01*
X477456Y232179D01*
X477431Y232164D01*
X477310Y232058D01*
X465978Y220725D01*
X412862Y220725D01*
X406145Y227442D01*
X406145Y229491D01*
X406130Y229609D01*
X406123Y229728D01*
X406110Y229766D01*
X406105Y229807D01*
X406062Y229917D01*
X406025Y230030D01*
X406003Y230065D01*
X405988Y230102D01*
X405919Y230198D01*
X405855Y230299D01*
X405825Y230327D01*
X405802Y230360D01*
X405710Y230436D01*
X405623Y230517D01*
X405588Y230537D01*
X405557Y230562D01*
X405449Y230613D01*
X405345Y230671D01*
X405305Y230681D01*
X405269Y230698D01*
X405152Y230720D01*
X405037Y230750D01*
X404977Y230754D01*
X404957Y230758D01*
X404936Y230756D01*
X404876Y230760D01*
X399288Y230760D01*
X398395Y231653D01*
X398395Y237207D01*
X398383Y237305D01*
X398380Y237404D01*
X398363Y237462D01*
X398355Y237522D01*
X398319Y237614D01*
X398291Y237709D01*
X398261Y237762D01*
X398238Y237818D01*
X398180Y237898D01*
X398130Y237983D01*
X398064Y238059D01*
X398052Y238075D01*
X398042Y238083D01*
X398024Y238104D01*
X396121Y240006D01*
X396012Y240091D01*
X395905Y240180D01*
X395886Y240189D01*
X395870Y240201D01*
X395742Y240257D01*
X395617Y240316D01*
X395597Y240319D01*
X395578Y240327D01*
X395440Y240349D01*
X395304Y240375D01*
X395284Y240374D01*
X395264Y240377D01*
X395125Y240364D01*
X394987Y240356D01*
X394968Y240349D01*
X394948Y240348D01*
X394816Y240300D01*
X394685Y240258D01*
X394667Y240247D01*
X394648Y240240D01*
X394533Y240162D01*
X394416Y240087D01*
X394402Y240073D01*
X394385Y240061D01*
X394293Y239957D01*
X394198Y239856D01*
X394188Y239838D01*
X394175Y239823D01*
X394111Y239699D01*
X394044Y239577D01*
X394039Y239558D01*
X394030Y239540D01*
X394000Y239404D01*
X393965Y239269D01*
X393963Y239241D01*
X393960Y239229D01*
X393961Y239209D01*
X393955Y239109D01*
X393955Y207423D01*
X393967Y207325D01*
X393970Y207226D01*
X393987Y207168D01*
X393995Y207108D01*
X394031Y207016D01*
X394059Y206921D01*
X394089Y206868D01*
X394112Y206812D01*
X394170Y206732D01*
X394220Y206647D01*
X394286Y206571D01*
X394298Y206555D01*
X394308Y206547D01*
X394326Y206526D01*
X394486Y206366D01*
X394564Y206306D01*
X394636Y206238D01*
X394689Y206209D01*
X394737Y206172D01*
X394828Y206132D01*
X394915Y206084D01*
X394973Y206069D01*
X395029Y206045D01*
X395127Y206030D01*
X395223Y206005D01*
X395323Y205999D01*
X395343Y205995D01*
X395355Y205997D01*
X395383Y205995D01*
X397126Y205995D01*
X397244Y206010D01*
X397363Y206017D01*
X397401Y206030D01*
X397442Y206035D01*
X397552Y206078D01*
X397665Y206115D01*
X397700Y206137D01*
X397737Y206152D01*
X397833Y206221D01*
X397934Y206285D01*
X397962Y206315D01*
X397995Y206338D01*
X398071Y206430D01*
X398152Y206517D01*
X398172Y206552D01*
X398197Y206583D01*
X398248Y206691D01*
X398306Y206795D01*
X398316Y206835D01*
X398333Y206871D01*
X398355Y206988D01*
X398385Y207103D01*
X398389Y207163D01*
X398393Y207183D01*
X398391Y207204D01*
X398395Y207264D01*
X398395Y212847D01*
X399288Y213740D01*
X416552Y213740D01*
X417445Y212847D01*
X417445Y193553D01*
X416552Y192660D01*
X413796Y192660D01*
X413659Y192643D01*
X413520Y192630D01*
X413501Y192623D01*
X413481Y192620D01*
X413352Y192569D01*
X413221Y192522D01*
X413204Y192511D01*
X413185Y192503D01*
X413073Y192422D01*
X412958Y192344D01*
X412944Y192328D01*
X412928Y192317D01*
X412839Y192209D01*
X412747Y192105D01*
X412738Y192087D01*
X412725Y192072D01*
X412666Y191946D01*
X412602Y191822D01*
X412598Y191802D01*
X412589Y191784D01*
X412563Y191647D01*
X412533Y191512D01*
X412533Y191491D01*
X412530Y191472D01*
X412538Y191333D01*
X412542Y191194D01*
X412548Y191174D01*
X412549Y191154D01*
X412592Y191022D01*
X412631Y190888D01*
X412641Y190871D01*
X412647Y190852D01*
X412722Y190734D01*
X412792Y190614D01*
X412811Y190593D01*
X412818Y190583D01*
X412833Y190569D01*
X412899Y190494D01*
X414806Y188586D01*
X414884Y188526D01*
X414956Y188458D01*
X415009Y188429D01*
X415057Y188392D01*
X415148Y188352D01*
X415235Y188304D01*
X415293Y188289D01*
X415349Y188265D01*
X415447Y188250D01*
X415543Y188225D01*
X415643Y188219D01*
X415663Y188215D01*
X415675Y188217D01*
X415703Y188215D01*
X463137Y188215D01*
X463235Y188227D01*
X463334Y188230D01*
X463392Y188247D01*
X463452Y188255D01*
X463544Y188291D01*
X463639Y188319D01*
X463692Y188349D01*
X463748Y188372D01*
X463828Y188430D01*
X463913Y188480D01*
X463989Y188546D01*
X464005Y188558D01*
X464013Y188568D01*
X464034Y188586D01*
X473358Y197910D01*
X473376Y197933D01*
X473398Y197952D01*
X473473Y198059D01*
X473553Y198161D01*
X473564Y198188D01*
X473581Y198212D01*
X473627Y198334D01*
X473679Y198453D01*
X473684Y198482D01*
X473694Y198510D01*
X473708Y198639D01*
X473729Y198767D01*
X473726Y198797D01*
X473729Y198826D01*
X473711Y198954D01*
X473699Y199084D01*
X473689Y199112D01*
X473685Y199141D01*
X473633Y199293D01*
X472820Y201255D01*
X472820Y205145D01*
X474309Y208740D01*
X477060Y211491D01*
X480655Y212980D01*
X484545Y212980D01*
X488140Y211491D01*
X490891Y208740D01*
X492380Y205145D01*
X492380Y201255D01*
X490891Y197660D01*
X488140Y194909D01*
X484545Y193420D01*
X480655Y193420D01*
X478693Y194233D01*
X478665Y194241D01*
X478638Y194254D01*
X478512Y194282D01*
X478386Y194317D01*
X478357Y194317D01*
X478328Y194324D01*
X478198Y194320D01*
X478068Y194322D01*
X478040Y194315D01*
X478010Y194314D01*
X477885Y194278D01*
X477759Y194248D01*
X477733Y194234D01*
X477705Y194226D01*
X477593Y194160D01*
X477478Y194099D01*
X477456Y194079D01*
X477431Y194064D01*
X477310Y193958D01*
X467986Y184634D01*
X465978Y182625D01*
X412862Y182625D01*
G37*
%LPD*%
%LPC*%
G36*
X347412Y115055D02*
X347412Y115055D01*
X342055Y120412D01*
X342055Y127988D01*
X346764Y132696D01*
X346824Y132774D01*
X346892Y132846D01*
X346921Y132899D01*
X346958Y132947D01*
X346998Y133038D01*
X347046Y133125D01*
X347061Y133184D01*
X347085Y133239D01*
X347100Y133337D01*
X347125Y133433D01*
X347131Y133533D01*
X347135Y133553D01*
X347133Y133566D01*
X347135Y133594D01*
X347135Y167291D01*
X347123Y167389D01*
X347120Y167488D01*
X347103Y167546D01*
X347095Y167606D01*
X347059Y167698D01*
X347031Y167793D01*
X347001Y167845D01*
X346978Y167902D01*
X346920Y167982D01*
X346870Y168067D01*
X346804Y168143D01*
X346792Y168159D01*
X346782Y168167D01*
X346764Y168188D01*
X278088Y236864D01*
X278010Y236924D01*
X277938Y236992D01*
X277885Y237021D01*
X277837Y237058D01*
X277746Y237098D01*
X277659Y237146D01*
X277601Y237161D01*
X277545Y237185D01*
X277447Y237200D01*
X277351Y237225D01*
X277251Y237231D01*
X277231Y237235D01*
X277219Y237233D01*
X277191Y237235D01*
X73250Y237235D01*
X73221Y237232D01*
X73191Y237234D01*
X73063Y237212D01*
X72934Y237195D01*
X72907Y237185D01*
X72878Y237180D01*
X72759Y237126D01*
X72639Y237078D01*
X72615Y237061D01*
X72588Y237049D01*
X72486Y236968D01*
X72381Y236892D01*
X72362Y236869D01*
X72339Y236850D01*
X72262Y236747D01*
X72179Y236647D01*
X72166Y236620D01*
X72148Y236596D01*
X72077Y236452D01*
X71791Y235760D01*
X69040Y233009D01*
X65445Y231520D01*
X61555Y231520D01*
X57960Y233009D01*
X55209Y235760D01*
X53720Y239355D01*
X53720Y243245D01*
X55209Y246840D01*
X57960Y249591D01*
X61555Y251080D01*
X65445Y251080D01*
X69040Y249591D01*
X71791Y246840D01*
X72077Y246148D01*
X72092Y246123D01*
X72101Y246095D01*
X72171Y245985D01*
X72235Y245872D01*
X72255Y245851D01*
X72271Y245826D01*
X72366Y245737D01*
X72456Y245644D01*
X72481Y245628D01*
X72503Y245608D01*
X72616Y245545D01*
X72727Y245477D01*
X72755Y245469D01*
X72781Y245454D01*
X72907Y245422D01*
X73031Y245384D01*
X73061Y245382D01*
X73089Y245375D01*
X73250Y245365D01*
X96961Y245365D01*
X97059Y245377D01*
X97158Y245380D01*
X97216Y245397D01*
X97276Y245405D01*
X97368Y245441D01*
X97463Y245469D01*
X97515Y245499D01*
X97572Y245522D01*
X97652Y245580D01*
X97737Y245630D01*
X97813Y245696D01*
X97829Y245708D01*
X97837Y245718D01*
X97858Y245736D01*
X101084Y248962D01*
X101144Y249040D01*
X101212Y249112D01*
X101241Y249165D01*
X101278Y249213D01*
X101318Y249304D01*
X101366Y249391D01*
X101381Y249449D01*
X101405Y249505D01*
X101420Y249603D01*
X101445Y249699D01*
X101451Y249799D01*
X101455Y249819D01*
X101453Y249831D01*
X101455Y249859D01*
X101455Y259356D01*
X101440Y259474D01*
X101433Y259593D01*
X101420Y259631D01*
X101415Y259672D01*
X101372Y259782D01*
X101335Y259895D01*
X101313Y259930D01*
X101298Y259967D01*
X101229Y260063D01*
X101165Y260164D01*
X101135Y260192D01*
X101112Y260225D01*
X101020Y260301D01*
X100933Y260382D01*
X100898Y260402D01*
X100867Y260427D01*
X100759Y260478D01*
X100655Y260536D01*
X100615Y260546D01*
X100579Y260563D01*
X100462Y260585D01*
X100347Y260615D01*
X100287Y260619D01*
X100267Y260623D01*
X100246Y260621D01*
X100186Y260625D01*
X95369Y260625D01*
X94175Y261819D01*
X94175Y265176D01*
X94160Y265294D01*
X94153Y265413D01*
X94140Y265451D01*
X94135Y265492D01*
X94092Y265602D01*
X94055Y265715D01*
X94033Y265750D01*
X94018Y265787D01*
X93949Y265883D01*
X93885Y265984D01*
X93855Y266012D01*
X93832Y266045D01*
X93740Y266121D01*
X93653Y266202D01*
X93618Y266222D01*
X93587Y266247D01*
X93479Y266298D01*
X93375Y266356D01*
X93335Y266366D01*
X93299Y266383D01*
X93182Y266405D01*
X93067Y266435D01*
X93007Y266439D01*
X92987Y266443D01*
X92966Y266441D01*
X92906Y266445D01*
X88043Y266445D01*
X87945Y266433D01*
X87846Y266430D01*
X87788Y266413D01*
X87728Y266405D01*
X87636Y266369D01*
X87541Y266341D01*
X87488Y266311D01*
X87432Y266288D01*
X87352Y266230D01*
X87267Y266180D01*
X87191Y266114D01*
X87175Y266102D01*
X87167Y266092D01*
X87146Y266074D01*
X84978Y263905D01*
X74549Y263905D01*
X74431Y263890D01*
X74312Y263883D01*
X74274Y263870D01*
X74233Y263865D01*
X74123Y263822D01*
X74010Y263785D01*
X73975Y263763D01*
X73938Y263748D01*
X73842Y263679D01*
X73741Y263615D01*
X73713Y263585D01*
X73680Y263562D01*
X73604Y263470D01*
X73523Y263383D01*
X73503Y263348D01*
X73478Y263317D01*
X73427Y263209D01*
X73369Y263105D01*
X73359Y263065D01*
X73342Y263029D01*
X73320Y262912D01*
X73290Y262797D01*
X73286Y262737D01*
X73282Y262717D01*
X73284Y262696D01*
X73280Y262636D01*
X73280Y257813D01*
X72387Y256920D01*
X54613Y256920D01*
X53720Y257813D01*
X53720Y275587D01*
X54613Y276480D01*
X72387Y276480D01*
X73280Y275587D01*
X73280Y270764D01*
X73295Y270646D01*
X73302Y270527D01*
X73315Y270489D01*
X73320Y270448D01*
X73363Y270338D01*
X73400Y270225D01*
X73422Y270190D01*
X73437Y270153D01*
X73506Y270057D01*
X73570Y269956D01*
X73600Y269928D01*
X73623Y269895D01*
X73715Y269819D01*
X73802Y269738D01*
X73837Y269718D01*
X73868Y269693D01*
X73976Y269642D01*
X74080Y269584D01*
X74120Y269574D01*
X74156Y269557D01*
X74273Y269535D01*
X74388Y269505D01*
X74448Y269501D01*
X74468Y269497D01*
X74489Y269499D01*
X74549Y269495D01*
X82137Y269495D01*
X82235Y269507D01*
X82334Y269510D01*
X82392Y269527D01*
X82452Y269535D01*
X82544Y269571D01*
X82639Y269599D01*
X82692Y269629D01*
X82748Y269652D01*
X82828Y269710D01*
X82913Y269760D01*
X82989Y269826D01*
X83005Y269838D01*
X83013Y269848D01*
X83034Y269866D01*
X85202Y272035D01*
X92906Y272035D01*
X93024Y272050D01*
X93143Y272057D01*
X93181Y272070D01*
X93222Y272075D01*
X93332Y272118D01*
X93445Y272155D01*
X93480Y272177D01*
X93517Y272192D01*
X93613Y272261D01*
X93714Y272325D01*
X93742Y272355D01*
X93775Y272378D01*
X93851Y272470D01*
X93932Y272557D01*
X93952Y272592D01*
X93977Y272623D01*
X94028Y272731D01*
X94086Y272835D01*
X94096Y272875D01*
X94113Y272911D01*
X94135Y273028D01*
X94165Y273143D01*
X94169Y273203D01*
X94173Y273223D01*
X94171Y273244D01*
X94175Y273304D01*
X94175Y278181D01*
X95369Y279375D01*
X100140Y279375D01*
X100197Y279331D01*
X100286Y279252D01*
X100322Y279233D01*
X100354Y279209D01*
X100463Y279161D01*
X100569Y279107D01*
X100609Y279098D01*
X100646Y279082D01*
X100763Y279064D01*
X100879Y279038D01*
X100920Y279039D01*
X100960Y279032D01*
X101079Y279044D01*
X101197Y279047D01*
X101236Y279058D01*
X101276Y279062D01*
X101388Y279103D01*
X101503Y279136D01*
X101538Y279156D01*
X101576Y279170D01*
X101674Y279237D01*
X101777Y279297D01*
X101822Y279337D01*
X101839Y279348D01*
X101852Y279364D01*
X101865Y279375D01*
X106640Y279375D01*
X106697Y279331D01*
X106786Y279252D01*
X106822Y279233D01*
X106854Y279209D01*
X106963Y279161D01*
X107069Y279107D01*
X107109Y279098D01*
X107146Y279082D01*
X107263Y279064D01*
X107379Y279038D01*
X107420Y279039D01*
X107460Y279032D01*
X107579Y279044D01*
X107697Y279047D01*
X107736Y279058D01*
X107776Y279062D01*
X107888Y279103D01*
X108003Y279136D01*
X108038Y279156D01*
X108076Y279170D01*
X108174Y279237D01*
X108277Y279297D01*
X108322Y279337D01*
X108339Y279348D01*
X108352Y279364D01*
X108365Y279375D01*
X113140Y279375D01*
X113197Y279331D01*
X113286Y279252D01*
X113322Y279233D01*
X113354Y279209D01*
X113463Y279161D01*
X113569Y279107D01*
X113609Y279098D01*
X113646Y279082D01*
X113763Y279064D01*
X113879Y279038D01*
X113920Y279039D01*
X113960Y279032D01*
X114079Y279044D01*
X114197Y279047D01*
X114236Y279058D01*
X114276Y279062D01*
X114388Y279103D01*
X114503Y279136D01*
X114538Y279156D01*
X114576Y279170D01*
X114674Y279237D01*
X114777Y279297D01*
X114822Y279337D01*
X114839Y279348D01*
X114852Y279364D01*
X114865Y279375D01*
X119640Y279375D01*
X119697Y279331D01*
X119786Y279252D01*
X119822Y279233D01*
X119854Y279209D01*
X119963Y279161D01*
X120069Y279107D01*
X120109Y279098D01*
X120146Y279082D01*
X120263Y279064D01*
X120379Y279038D01*
X120420Y279039D01*
X120460Y279032D01*
X120579Y279044D01*
X120697Y279047D01*
X120736Y279058D01*
X120776Y279062D01*
X120888Y279103D01*
X121003Y279136D01*
X121038Y279156D01*
X121076Y279170D01*
X121174Y279237D01*
X121277Y279297D01*
X121322Y279337D01*
X121339Y279348D01*
X121352Y279364D01*
X121365Y279375D01*
X126140Y279375D01*
X126197Y279331D01*
X126286Y279252D01*
X126322Y279233D01*
X126354Y279209D01*
X126463Y279161D01*
X126569Y279107D01*
X126609Y279098D01*
X126646Y279082D01*
X126763Y279064D01*
X126879Y279038D01*
X126920Y279039D01*
X126960Y279032D01*
X127079Y279044D01*
X127197Y279047D01*
X127236Y279058D01*
X127276Y279062D01*
X127388Y279103D01*
X127503Y279136D01*
X127538Y279156D01*
X127576Y279170D01*
X127674Y279237D01*
X127777Y279297D01*
X127822Y279337D01*
X127839Y279348D01*
X127852Y279364D01*
X127865Y279375D01*
X132640Y279375D01*
X132697Y279331D01*
X132786Y279252D01*
X132822Y279233D01*
X132854Y279209D01*
X132963Y279161D01*
X133069Y279107D01*
X133109Y279098D01*
X133146Y279082D01*
X133263Y279064D01*
X133379Y279038D01*
X133420Y279039D01*
X133460Y279032D01*
X133579Y279044D01*
X133697Y279047D01*
X133736Y279058D01*
X133776Y279062D01*
X133888Y279103D01*
X134003Y279136D01*
X134038Y279156D01*
X134076Y279170D01*
X134174Y279237D01*
X134277Y279297D01*
X134322Y279337D01*
X134339Y279348D01*
X134352Y279364D01*
X134365Y279375D01*
X139140Y279375D01*
X139197Y279331D01*
X139286Y279252D01*
X139322Y279233D01*
X139354Y279209D01*
X139463Y279161D01*
X139569Y279107D01*
X139609Y279098D01*
X139646Y279082D01*
X139763Y279064D01*
X139879Y279038D01*
X139920Y279039D01*
X139960Y279032D01*
X140079Y279044D01*
X140197Y279047D01*
X140236Y279058D01*
X140276Y279062D01*
X140388Y279103D01*
X140503Y279136D01*
X140538Y279156D01*
X140576Y279170D01*
X140674Y279237D01*
X140777Y279297D01*
X140822Y279337D01*
X140839Y279348D01*
X140852Y279364D01*
X140865Y279375D01*
X145640Y279375D01*
X145697Y279331D01*
X145786Y279252D01*
X145822Y279233D01*
X145854Y279209D01*
X145963Y279161D01*
X146069Y279107D01*
X146109Y279098D01*
X146146Y279082D01*
X146263Y279064D01*
X146379Y279038D01*
X146420Y279039D01*
X146460Y279032D01*
X146579Y279044D01*
X146697Y279047D01*
X146736Y279058D01*
X146776Y279062D01*
X146888Y279103D01*
X147003Y279136D01*
X147038Y279156D01*
X147076Y279170D01*
X147174Y279237D01*
X147277Y279297D01*
X147322Y279337D01*
X147339Y279348D01*
X147352Y279364D01*
X147365Y279375D01*
X152186Y279375D01*
X152304Y279390D01*
X152423Y279397D01*
X152461Y279410D01*
X152502Y279415D01*
X152612Y279458D01*
X152725Y279495D01*
X152760Y279517D01*
X152797Y279532D01*
X152893Y279601D01*
X152994Y279665D01*
X153022Y279695D01*
X153055Y279718D01*
X153131Y279810D01*
X153212Y279897D01*
X153232Y279932D01*
X153257Y279963D01*
X153308Y280071D01*
X153366Y280175D01*
X153376Y280215D01*
X153393Y280251D01*
X153415Y280368D01*
X153445Y280483D01*
X153449Y280543D01*
X153453Y280563D01*
X153451Y280584D01*
X153455Y280644D01*
X153455Y281868D01*
X154342Y282754D01*
X154402Y282832D01*
X154470Y282904D01*
X154499Y282957D01*
X154536Y283005D01*
X154576Y283096D01*
X154624Y283183D01*
X154639Y283241D01*
X154663Y283297D01*
X154678Y283395D01*
X154703Y283491D01*
X154709Y283591D01*
X154713Y283611D01*
X154711Y283623D01*
X154713Y283651D01*
X154713Y285536D01*
X155521Y287486D01*
X157014Y288979D01*
X158964Y289787D01*
X161076Y289787D01*
X163026Y288979D01*
X164519Y287486D01*
X165327Y285536D01*
X165327Y283424D01*
X164519Y281474D01*
X163026Y279981D01*
X161068Y279170D01*
X160976Y279158D01*
X160857Y279151D01*
X160819Y279138D01*
X160778Y279133D01*
X160668Y279090D01*
X160555Y279053D01*
X160520Y279031D01*
X160483Y279016D01*
X160387Y278947D01*
X160286Y278883D01*
X160258Y278853D01*
X160225Y278830D01*
X160149Y278738D01*
X160068Y278651D01*
X160048Y278616D01*
X160023Y278585D01*
X159972Y278477D01*
X159914Y278373D01*
X159904Y278333D01*
X159887Y278297D01*
X159865Y278180D01*
X159835Y278065D01*
X159831Y278005D01*
X159827Y277985D01*
X159829Y277964D01*
X159825Y277904D01*
X159825Y261819D01*
X158631Y260625D01*
X153860Y260625D01*
X153803Y260670D01*
X153714Y260748D01*
X153678Y260767D01*
X153646Y260791D01*
X153537Y260839D01*
X153431Y260893D01*
X153392Y260902D01*
X153354Y260918D01*
X153237Y260936D01*
X153121Y260962D01*
X153080Y260961D01*
X153040Y260968D01*
X152922Y260956D01*
X152803Y260953D01*
X152764Y260942D01*
X152724Y260938D01*
X152612Y260897D01*
X152497Y260864D01*
X152463Y260844D01*
X152424Y260830D01*
X152326Y260763D01*
X152223Y260703D01*
X152178Y260663D01*
X152161Y260652D01*
X152148Y260636D01*
X152135Y260625D01*
X147360Y260625D01*
X147303Y260670D01*
X147214Y260748D01*
X147178Y260767D01*
X147146Y260791D01*
X147037Y260839D01*
X146931Y260893D01*
X146892Y260902D01*
X146854Y260918D01*
X146737Y260936D01*
X146621Y260962D01*
X146580Y260961D01*
X146540Y260968D01*
X146422Y260956D01*
X146303Y260953D01*
X146264Y260942D01*
X146224Y260938D01*
X146112Y260897D01*
X145997Y260864D01*
X145963Y260844D01*
X145924Y260830D01*
X145826Y260763D01*
X145723Y260703D01*
X145678Y260663D01*
X145661Y260652D01*
X145648Y260636D01*
X145635Y260625D01*
X140860Y260625D01*
X140803Y260670D01*
X140714Y260748D01*
X140678Y260767D01*
X140646Y260791D01*
X140537Y260839D01*
X140431Y260893D01*
X140392Y260902D01*
X140354Y260918D01*
X140237Y260936D01*
X140121Y260962D01*
X140080Y260961D01*
X140040Y260968D01*
X139922Y260956D01*
X139803Y260953D01*
X139764Y260942D01*
X139724Y260938D01*
X139612Y260897D01*
X139497Y260864D01*
X139463Y260844D01*
X139424Y260830D01*
X139326Y260763D01*
X139223Y260703D01*
X139178Y260663D01*
X139161Y260652D01*
X139148Y260636D01*
X139135Y260625D01*
X134360Y260625D01*
X134303Y260670D01*
X134214Y260748D01*
X134178Y260767D01*
X134146Y260791D01*
X134037Y260839D01*
X133931Y260893D01*
X133892Y260902D01*
X133854Y260918D01*
X133737Y260936D01*
X133621Y260962D01*
X133580Y260961D01*
X133540Y260968D01*
X133422Y260956D01*
X133303Y260953D01*
X133264Y260942D01*
X133224Y260938D01*
X133112Y260897D01*
X132997Y260864D01*
X132963Y260844D01*
X132924Y260830D01*
X132826Y260763D01*
X132723Y260703D01*
X132678Y260663D01*
X132661Y260652D01*
X132648Y260636D01*
X132635Y260625D01*
X127860Y260625D01*
X127803Y260670D01*
X127714Y260748D01*
X127678Y260767D01*
X127646Y260791D01*
X127537Y260839D01*
X127431Y260893D01*
X127392Y260902D01*
X127354Y260918D01*
X127237Y260936D01*
X127121Y260962D01*
X127080Y260961D01*
X127040Y260968D01*
X126922Y260956D01*
X126803Y260953D01*
X126764Y260942D01*
X126724Y260938D01*
X126612Y260897D01*
X126497Y260864D01*
X126463Y260844D01*
X126424Y260830D01*
X126326Y260763D01*
X126223Y260703D01*
X126178Y260663D01*
X126161Y260652D01*
X126148Y260636D01*
X126135Y260625D01*
X121360Y260625D01*
X121303Y260670D01*
X121214Y260748D01*
X121178Y260767D01*
X121146Y260791D01*
X121037Y260839D01*
X120931Y260893D01*
X120892Y260902D01*
X120854Y260918D01*
X120737Y260936D01*
X120621Y260962D01*
X120580Y260961D01*
X120540Y260968D01*
X120422Y260956D01*
X120303Y260953D01*
X120264Y260942D01*
X120224Y260938D01*
X120112Y260897D01*
X119997Y260864D01*
X119963Y260844D01*
X119924Y260830D01*
X119826Y260763D01*
X119723Y260703D01*
X119678Y260663D01*
X119661Y260652D01*
X119648Y260636D01*
X119635Y260625D01*
X114860Y260625D01*
X114803Y260670D01*
X114714Y260748D01*
X114678Y260767D01*
X114646Y260791D01*
X114537Y260839D01*
X114431Y260893D01*
X114392Y260902D01*
X114354Y260918D01*
X114237Y260936D01*
X114121Y260962D01*
X114080Y260961D01*
X114040Y260968D01*
X113922Y260956D01*
X113803Y260953D01*
X113764Y260942D01*
X113724Y260938D01*
X113612Y260897D01*
X113497Y260864D01*
X113463Y260844D01*
X113424Y260830D01*
X113326Y260763D01*
X113223Y260703D01*
X113178Y260663D01*
X113161Y260652D01*
X113148Y260636D01*
X113135Y260625D01*
X108314Y260625D01*
X108196Y260610D01*
X108077Y260603D01*
X108039Y260590D01*
X107998Y260585D01*
X107888Y260542D01*
X107775Y260505D01*
X107740Y260483D01*
X107703Y260468D01*
X107607Y260399D01*
X107506Y260335D01*
X107478Y260305D01*
X107445Y260282D01*
X107369Y260190D01*
X107288Y260103D01*
X107268Y260068D01*
X107243Y260037D01*
X107192Y259929D01*
X107134Y259825D01*
X107124Y259785D01*
X107107Y259749D01*
X107085Y259632D01*
X107055Y259517D01*
X107051Y259457D01*
X107047Y259437D01*
X107049Y259416D01*
X107045Y259356D01*
X107045Y249859D01*
X107057Y249761D01*
X107060Y249662D01*
X107077Y249604D01*
X107085Y249544D01*
X107121Y249452D01*
X107149Y249357D01*
X107179Y249305D01*
X107202Y249248D01*
X107260Y249168D01*
X107310Y249083D01*
X107376Y249007D01*
X107388Y248991D01*
X107398Y248983D01*
X107416Y248962D01*
X110642Y245736D01*
X110720Y245676D01*
X110792Y245608D01*
X110845Y245579D01*
X110893Y245542D01*
X110984Y245502D01*
X111071Y245454D01*
X111129Y245439D01*
X111185Y245415D01*
X111283Y245400D01*
X111379Y245375D01*
X111479Y245369D01*
X111499Y245365D01*
X111511Y245367D01*
X111539Y245365D01*
X281084Y245365D01*
X355265Y171184D01*
X355265Y133594D01*
X355277Y133495D01*
X355280Y133396D01*
X355297Y133338D01*
X355305Y133278D01*
X355341Y133186D01*
X355369Y133091D01*
X355399Y133039D01*
X355422Y132982D01*
X355480Y132902D01*
X355530Y132817D01*
X355596Y132742D01*
X355608Y132725D01*
X355618Y132717D01*
X355636Y132696D01*
X360345Y127988D01*
X360345Y120412D01*
X354988Y115055D01*
X347412Y115055D01*
G37*
%LPD*%
%LPC*%
G36*
X566776Y408050D02*
X566776Y408050D01*
X558047Y411666D01*
X551366Y418347D01*
X547750Y427076D01*
X547750Y436524D01*
X551366Y445253D01*
X558047Y451934D01*
X566776Y455550D01*
X576224Y455550D01*
X584953Y451934D01*
X591634Y445253D01*
X595250Y436524D01*
X595250Y427076D01*
X591634Y418347D01*
X584953Y411666D01*
X576224Y408050D01*
X566776Y408050D01*
G37*
%LPD*%
%LPC*%
G36*
X33376Y408050D02*
X33376Y408050D01*
X24647Y411666D01*
X17966Y418347D01*
X14350Y427076D01*
X14350Y436524D01*
X17966Y445253D01*
X24647Y451934D01*
X33376Y455550D01*
X42824Y455550D01*
X51553Y451934D01*
X58234Y445253D01*
X61850Y436524D01*
X61850Y427076D01*
X58234Y418347D01*
X51553Y411666D01*
X42824Y408050D01*
X33376Y408050D01*
G37*
%LPD*%
%LPC*%
G36*
X33376Y14350D02*
X33376Y14350D01*
X24647Y17966D01*
X17966Y24647D01*
X14350Y33376D01*
X14350Y42824D01*
X17966Y51553D01*
X24647Y58234D01*
X33376Y61850D01*
X42824Y61850D01*
X51553Y58234D01*
X58234Y51553D01*
X61850Y42824D01*
X61850Y33376D01*
X58234Y24647D01*
X51553Y17966D01*
X42824Y14350D01*
X33376Y14350D01*
G37*
%LPD*%
%LPC*%
G36*
X566776Y14350D02*
X566776Y14350D01*
X558047Y17966D01*
X551366Y24647D01*
X547750Y33376D01*
X547750Y42824D01*
X551366Y51553D01*
X558047Y58234D01*
X566776Y61850D01*
X576224Y61850D01*
X584953Y58234D01*
X591634Y51553D01*
X595250Y42824D01*
X595250Y33376D01*
X591634Y24647D01*
X584953Y17966D01*
X576224Y14350D01*
X566776Y14350D01*
G37*
%LPD*%
%LPC*%
G36*
X144212Y115055D02*
X144212Y115055D01*
X138855Y120412D01*
X138855Y128045D01*
X138902Y128153D01*
X138956Y128259D01*
X138965Y128299D01*
X138981Y128336D01*
X139000Y128453D01*
X139026Y128569D01*
X139025Y128610D01*
X139031Y128650D01*
X139020Y128768D01*
X139016Y128887D01*
X139005Y128926D01*
X139001Y128966D01*
X138961Y129078D01*
X138928Y129193D01*
X138908Y129228D01*
X138894Y129266D01*
X138827Y129364D01*
X138766Y129467D01*
X138727Y129512D01*
X138715Y129529D01*
X138700Y129542D01*
X138660Y129588D01*
X94955Y173292D01*
X94955Y203113D01*
X94943Y203211D01*
X94940Y203310D01*
X94923Y203368D01*
X94915Y203428D01*
X94879Y203520D01*
X94851Y203616D01*
X94821Y203668D01*
X94798Y203724D01*
X94740Y203804D01*
X94690Y203890D01*
X94624Y203965D01*
X94612Y203981D01*
X94602Y203989D01*
X94583Y204010D01*
X94175Y204419D01*
X94175Y220781D01*
X95369Y221975D01*
X99906Y221975D01*
X100004Y221987D01*
X100103Y221990D01*
X100161Y222007D01*
X100222Y222015D01*
X100314Y222051D01*
X100409Y222079D01*
X100461Y222109D01*
X100517Y222132D01*
X100597Y222190D01*
X100683Y222240D01*
X100758Y222306D01*
X100775Y222318D01*
X100782Y222328D01*
X100804Y222346D01*
X100838Y222381D01*
X101534Y222783D01*
X102311Y222991D01*
X102981Y222991D01*
X102981Y212600D01*
X102981Y202209D01*
X102311Y202209D01*
X102143Y202254D01*
X102018Y202271D01*
X101894Y202295D01*
X101861Y202293D01*
X101827Y202297D01*
X101702Y202283D01*
X101577Y202275D01*
X101545Y202265D01*
X101512Y202261D01*
X101394Y202216D01*
X101275Y202177D01*
X101246Y202159D01*
X101215Y202147D01*
X101112Y202074D01*
X101006Y202007D01*
X100983Y201983D01*
X100955Y201963D01*
X100874Y201867D01*
X100788Y201775D01*
X100772Y201746D01*
X100750Y201720D01*
X100695Y201607D01*
X100634Y201497D01*
X100626Y201464D01*
X100611Y201434D01*
X100586Y201311D01*
X100555Y201189D01*
X100552Y201140D01*
X100548Y201122D01*
X100549Y201100D01*
X100545Y201028D01*
X100545Y176133D01*
X100557Y176035D01*
X100560Y175936D01*
X100577Y175878D01*
X100585Y175818D01*
X100621Y175726D01*
X100649Y175631D01*
X100679Y175578D01*
X100702Y175522D01*
X100760Y175442D01*
X100810Y175357D01*
X100876Y175281D01*
X100888Y175265D01*
X100898Y175257D01*
X100916Y175236D01*
X142612Y133540D01*
X142707Y133467D01*
X142796Y133388D01*
X142832Y133370D01*
X142864Y133345D01*
X142973Y133298D01*
X143079Y133244D01*
X143118Y133235D01*
X143156Y133219D01*
X143273Y133200D01*
X143389Y133174D01*
X143430Y133175D01*
X143470Y133169D01*
X143588Y133180D01*
X143707Y133184D01*
X143746Y133195D01*
X143786Y133199D01*
X143898Y133239D01*
X144013Y133272D01*
X144047Y133293D01*
X144086Y133306D01*
X144142Y133345D01*
X151788Y133345D01*
X157145Y127988D01*
X157145Y120412D01*
X151788Y115055D01*
X144212Y115055D01*
G37*
%LPD*%
%LPC*%
G36*
X105519Y202209D02*
X105519Y202209D01*
X105519Y212600D01*
X105519Y222991D01*
X106189Y222991D01*
X106966Y222783D01*
X107662Y222381D01*
X107696Y222346D01*
X107775Y222286D01*
X107847Y222218D01*
X107900Y222189D01*
X107948Y222152D01*
X108039Y222112D01*
X108125Y222064D01*
X108184Y222049D01*
X108240Y222025D01*
X108338Y222010D01*
X108433Y221985D01*
X108533Y221979D01*
X108554Y221975D01*
X108566Y221977D01*
X108594Y221975D01*
X113140Y221975D01*
X113197Y221930D01*
X113286Y221852D01*
X113322Y221833D01*
X113354Y221809D01*
X113463Y221761D01*
X113569Y221707D01*
X113608Y221698D01*
X113646Y221682D01*
X113763Y221664D01*
X113879Y221638D01*
X113920Y221639D01*
X113960Y221632D01*
X114078Y221644D01*
X114197Y221647D01*
X114236Y221658D01*
X114276Y221662D01*
X114388Y221703D01*
X114503Y221736D01*
X114537Y221756D01*
X114576Y221770D01*
X114674Y221837D01*
X114777Y221897D01*
X114822Y221937D01*
X114839Y221948D01*
X114852Y221964D01*
X114865Y221975D01*
X119640Y221975D01*
X119697Y221930D01*
X119786Y221852D01*
X119822Y221833D01*
X119854Y221809D01*
X119963Y221761D01*
X120069Y221707D01*
X120108Y221698D01*
X120146Y221682D01*
X120263Y221664D01*
X120379Y221638D01*
X120420Y221639D01*
X120460Y221632D01*
X120578Y221644D01*
X120697Y221647D01*
X120736Y221658D01*
X120776Y221662D01*
X120888Y221703D01*
X121003Y221736D01*
X121037Y221756D01*
X121076Y221770D01*
X121174Y221837D01*
X121277Y221897D01*
X121322Y221937D01*
X121339Y221948D01*
X121352Y221964D01*
X121365Y221975D01*
X126140Y221975D01*
X126197Y221930D01*
X126286Y221852D01*
X126322Y221833D01*
X126354Y221809D01*
X126463Y221761D01*
X126569Y221707D01*
X126608Y221698D01*
X126646Y221682D01*
X126763Y221664D01*
X126879Y221638D01*
X126920Y221639D01*
X126960Y221632D01*
X127078Y221644D01*
X127197Y221647D01*
X127236Y221658D01*
X127276Y221662D01*
X127388Y221703D01*
X127503Y221736D01*
X127537Y221756D01*
X127576Y221770D01*
X127674Y221837D01*
X127777Y221897D01*
X127822Y221937D01*
X127839Y221948D01*
X127852Y221964D01*
X127865Y221975D01*
X132640Y221975D01*
X132697Y221930D01*
X132786Y221852D01*
X132822Y221833D01*
X132854Y221809D01*
X132963Y221761D01*
X133069Y221707D01*
X133108Y221698D01*
X133146Y221682D01*
X133263Y221664D01*
X133379Y221638D01*
X133420Y221639D01*
X133460Y221632D01*
X133578Y221644D01*
X133697Y221647D01*
X133736Y221658D01*
X133776Y221662D01*
X133888Y221703D01*
X134003Y221736D01*
X134037Y221756D01*
X134076Y221770D01*
X134174Y221837D01*
X134277Y221897D01*
X134322Y221937D01*
X134339Y221948D01*
X134352Y221964D01*
X134365Y221975D01*
X139140Y221975D01*
X139197Y221930D01*
X139286Y221852D01*
X139322Y221833D01*
X139354Y221809D01*
X139463Y221761D01*
X139569Y221707D01*
X139608Y221698D01*
X139646Y221682D01*
X139763Y221664D01*
X139879Y221638D01*
X139920Y221639D01*
X139960Y221632D01*
X140078Y221644D01*
X140197Y221647D01*
X140236Y221658D01*
X140276Y221662D01*
X140388Y221703D01*
X140503Y221736D01*
X140537Y221756D01*
X140576Y221770D01*
X140674Y221837D01*
X140777Y221897D01*
X140822Y221937D01*
X140839Y221948D01*
X140852Y221964D01*
X140865Y221975D01*
X145640Y221975D01*
X145697Y221930D01*
X145786Y221852D01*
X145822Y221833D01*
X145854Y221809D01*
X145963Y221761D01*
X146069Y221707D01*
X146108Y221698D01*
X146146Y221682D01*
X146263Y221664D01*
X146379Y221638D01*
X146420Y221639D01*
X146460Y221632D01*
X146578Y221644D01*
X146697Y221647D01*
X146736Y221658D01*
X146776Y221662D01*
X146888Y221703D01*
X147003Y221736D01*
X147037Y221756D01*
X147076Y221770D01*
X147174Y221837D01*
X147277Y221897D01*
X147322Y221937D01*
X147339Y221948D01*
X147352Y221964D01*
X147365Y221975D01*
X151906Y221975D01*
X152004Y221987D01*
X152103Y221990D01*
X152161Y222007D01*
X152222Y222015D01*
X152314Y222051D01*
X152409Y222079D01*
X152461Y222109D01*
X152517Y222132D01*
X152597Y222190D01*
X152683Y222240D01*
X152758Y222306D01*
X152775Y222318D01*
X152782Y222328D01*
X152804Y222346D01*
X152838Y222381D01*
X153534Y222783D01*
X154311Y222991D01*
X154981Y222991D01*
X154981Y212600D01*
X154981Y202209D01*
X154311Y202209D01*
X153534Y202417D01*
X152838Y202819D01*
X152804Y202854D01*
X152725Y202914D01*
X152653Y202982D01*
X152600Y203011D01*
X152552Y203048D01*
X152461Y203088D01*
X152375Y203136D01*
X152316Y203151D01*
X152260Y203175D01*
X152162Y203190D01*
X152067Y203215D01*
X151967Y203221D01*
X151946Y203225D01*
X151934Y203223D01*
X151906Y203225D01*
X147360Y203225D01*
X147303Y203269D01*
X147214Y203348D01*
X147178Y203367D01*
X147146Y203391D01*
X147037Y203439D01*
X146931Y203493D01*
X146891Y203502D01*
X146854Y203518D01*
X146737Y203536D01*
X146621Y203562D01*
X146580Y203561D01*
X146540Y203568D01*
X146421Y203556D01*
X146303Y203553D01*
X146264Y203542D01*
X146224Y203538D01*
X146112Y203497D01*
X145997Y203464D01*
X145962Y203444D01*
X145924Y203430D01*
X145826Y203363D01*
X145723Y203303D01*
X145678Y203263D01*
X145661Y203252D01*
X145648Y203236D01*
X145635Y203225D01*
X140860Y203225D01*
X140803Y203269D01*
X140714Y203348D01*
X140678Y203367D01*
X140646Y203391D01*
X140537Y203439D01*
X140431Y203493D01*
X140391Y203502D01*
X140354Y203518D01*
X140237Y203536D01*
X140121Y203562D01*
X140080Y203561D01*
X140040Y203568D01*
X139921Y203556D01*
X139803Y203553D01*
X139764Y203542D01*
X139724Y203538D01*
X139612Y203497D01*
X139497Y203464D01*
X139462Y203444D01*
X139424Y203430D01*
X139326Y203363D01*
X139223Y203303D01*
X139178Y203263D01*
X139161Y203252D01*
X139148Y203236D01*
X139135Y203225D01*
X134360Y203225D01*
X134303Y203269D01*
X134214Y203348D01*
X134178Y203367D01*
X134146Y203391D01*
X134037Y203439D01*
X133931Y203493D01*
X133891Y203502D01*
X133854Y203518D01*
X133737Y203536D01*
X133621Y203562D01*
X133580Y203561D01*
X133540Y203568D01*
X133421Y203556D01*
X133303Y203553D01*
X133264Y203542D01*
X133224Y203538D01*
X133112Y203497D01*
X132997Y203464D01*
X132962Y203444D01*
X132924Y203430D01*
X132826Y203363D01*
X132723Y203303D01*
X132678Y203263D01*
X132661Y203252D01*
X132648Y203236D01*
X132635Y203225D01*
X127860Y203225D01*
X127803Y203269D01*
X127714Y203348D01*
X127678Y203367D01*
X127646Y203391D01*
X127537Y203439D01*
X127431Y203493D01*
X127391Y203502D01*
X127354Y203518D01*
X127237Y203536D01*
X127121Y203562D01*
X127080Y203561D01*
X127040Y203568D01*
X126921Y203556D01*
X126803Y203553D01*
X126764Y203542D01*
X126724Y203538D01*
X126612Y203497D01*
X126497Y203464D01*
X126462Y203444D01*
X126424Y203430D01*
X126326Y203363D01*
X126223Y203303D01*
X126178Y203263D01*
X126161Y203252D01*
X126148Y203236D01*
X126135Y203225D01*
X121360Y203225D01*
X121303Y203269D01*
X121214Y203348D01*
X121178Y203367D01*
X121146Y203391D01*
X121037Y203439D01*
X120931Y203493D01*
X120891Y203502D01*
X120854Y203518D01*
X120737Y203536D01*
X120621Y203562D01*
X120580Y203561D01*
X120540Y203568D01*
X120421Y203556D01*
X120303Y203553D01*
X120264Y203542D01*
X120224Y203538D01*
X120112Y203497D01*
X119997Y203464D01*
X119962Y203444D01*
X119924Y203430D01*
X119826Y203363D01*
X119723Y203303D01*
X119678Y203263D01*
X119661Y203252D01*
X119648Y203236D01*
X119635Y203225D01*
X114860Y203225D01*
X114803Y203269D01*
X114714Y203348D01*
X114678Y203367D01*
X114646Y203391D01*
X114537Y203439D01*
X114431Y203493D01*
X114391Y203502D01*
X114354Y203518D01*
X114237Y203536D01*
X114121Y203562D01*
X114080Y203561D01*
X114040Y203568D01*
X113921Y203556D01*
X113803Y203553D01*
X113764Y203542D01*
X113724Y203538D01*
X113612Y203497D01*
X113497Y203464D01*
X113462Y203444D01*
X113424Y203430D01*
X113326Y203363D01*
X113223Y203303D01*
X113178Y203263D01*
X113161Y203252D01*
X113148Y203236D01*
X113135Y203225D01*
X108594Y203225D01*
X108496Y203213D01*
X108397Y203210D01*
X108339Y203193D01*
X108278Y203185D01*
X108186Y203149D01*
X108091Y203121D01*
X108039Y203091D01*
X107983Y203068D01*
X107903Y203010D01*
X107817Y202960D01*
X107742Y202894D01*
X107725Y202882D01*
X107718Y202872D01*
X107696Y202854D01*
X107662Y202819D01*
X106966Y202417D01*
X106189Y202209D01*
X105519Y202209D01*
G37*
%LPD*%
%LPC*%
G36*
X83368Y422219D02*
X83368Y422219D01*
X79319Y426268D01*
X77836Y431800D01*
X79319Y437332D01*
X83368Y441381D01*
X88900Y442864D01*
X94432Y441381D01*
X98481Y437332D01*
X99964Y431800D01*
X98481Y426268D01*
X94432Y422219D01*
X88900Y420736D01*
X83368Y422219D01*
G37*
%LPD*%
%LPC*%
G36*
X515168Y28519D02*
X515168Y28519D01*
X511119Y32568D01*
X509636Y38100D01*
X511119Y43632D01*
X515168Y47681D01*
X520700Y49164D01*
X526232Y47681D01*
X530281Y43632D01*
X531764Y38100D01*
X530281Y32568D01*
X526232Y28519D01*
X520700Y27036D01*
X515168Y28519D01*
G37*
%LPD*%
%LPC*%
G36*
X96068Y28519D02*
X96068Y28519D01*
X92019Y32568D01*
X90536Y38100D01*
X92019Y43632D01*
X96068Y47681D01*
X101600Y49164D01*
X107132Y47681D01*
X111181Y43632D01*
X112664Y38100D01*
X111181Y32568D01*
X107132Y28519D01*
X101600Y27036D01*
X96068Y28519D01*
G37*
%LPD*%
%LPC*%
G36*
X63548Y343655D02*
X63548Y343655D01*
X62655Y344548D01*
X62655Y361052D01*
X63548Y361945D01*
X80052Y361945D01*
X80945Y361052D01*
X80945Y344548D01*
X80052Y343655D01*
X63548Y343655D01*
G37*
%LPD*%
%LPC*%
G36*
X63548Y89655D02*
X63548Y89655D01*
X62655Y90548D01*
X62655Y107052D01*
X63548Y107945D01*
X80052Y107945D01*
X80945Y107052D01*
X80945Y90548D01*
X80052Y89655D01*
X63548Y89655D01*
G37*
%LPD*%
%LPC*%
G36*
X455255Y269620D02*
X455255Y269620D01*
X451660Y271109D01*
X448909Y273860D01*
X447420Y277455D01*
X447420Y281345D01*
X448909Y284940D01*
X451660Y287691D01*
X455255Y289180D01*
X459145Y289180D01*
X462740Y287691D01*
X465491Y284940D01*
X466980Y281345D01*
X466980Y277455D01*
X465491Y273860D01*
X462740Y271109D01*
X459145Y269620D01*
X455255Y269620D01*
G37*
%LPD*%
%LPC*%
G36*
X506055Y269620D02*
X506055Y269620D01*
X502460Y271109D01*
X499709Y273860D01*
X498220Y277455D01*
X498220Y281345D01*
X499709Y284940D01*
X502460Y287691D01*
X506055Y289180D01*
X509945Y289180D01*
X513540Y287691D01*
X516291Y284940D01*
X517780Y281345D01*
X517780Y277455D01*
X516291Y273860D01*
X513540Y271109D01*
X509945Y269620D01*
X506055Y269620D01*
G37*
%LPD*%
%LPC*%
G36*
X61555Y206120D02*
X61555Y206120D01*
X57960Y207609D01*
X55209Y210360D01*
X53720Y213955D01*
X53720Y217845D01*
X55209Y221440D01*
X57960Y224191D01*
X61555Y225680D01*
X65445Y225680D01*
X69040Y224191D01*
X71791Y221440D01*
X73280Y217845D01*
X73280Y213955D01*
X71791Y210360D01*
X69040Y207609D01*
X65445Y206120D01*
X61555Y206120D01*
G37*
%LPD*%
%LPC*%
G36*
X506055Y193420D02*
X506055Y193420D01*
X502460Y194909D01*
X499709Y197660D01*
X498220Y201255D01*
X498220Y205145D01*
X499709Y208740D01*
X502460Y211491D01*
X506055Y212980D01*
X509945Y212980D01*
X513540Y211491D01*
X516291Y208740D01*
X517780Y205145D01*
X517780Y201255D01*
X516291Y197660D01*
X513540Y194909D01*
X509945Y193420D01*
X506055Y193420D01*
G37*
%LPD*%
%LPC*%
G36*
X455255Y231520D02*
X455255Y231520D01*
X451660Y233009D01*
X448909Y235760D01*
X447420Y239355D01*
X447420Y243245D01*
X448909Y246840D01*
X451660Y249591D01*
X455255Y251080D01*
X459145Y251080D01*
X462740Y249591D01*
X465491Y246840D01*
X466980Y243245D01*
X466980Y239355D01*
X465491Y235760D01*
X462740Y233009D01*
X459145Y231520D01*
X455255Y231520D01*
G37*
%LPD*%
%LPC*%
G36*
X506055Y231520D02*
X506055Y231520D01*
X502460Y233009D01*
X499709Y235760D01*
X498220Y239355D01*
X498220Y243245D01*
X499709Y246840D01*
X502460Y249591D01*
X506055Y251080D01*
X509945Y251080D01*
X513540Y249591D01*
X516291Y246840D01*
X517780Y243245D01*
X517780Y239355D01*
X516291Y235760D01*
X513540Y233009D01*
X509945Y231520D01*
X506055Y231520D01*
G37*
%LPD*%
%LPC*%
G36*
X455255Y193420D02*
X455255Y193420D01*
X451660Y194909D01*
X448909Y197660D01*
X447420Y201255D01*
X447420Y205145D01*
X448909Y208740D01*
X451660Y211491D01*
X455255Y212980D01*
X459145Y212980D01*
X462740Y211491D01*
X465491Y208740D01*
X466980Y205145D01*
X466980Y201255D01*
X465491Y197660D01*
X462740Y194909D01*
X459145Y193420D01*
X455255Y193420D01*
G37*
%LPD*%
%LPC*%
G36*
X322012Y369055D02*
X322012Y369055D01*
X316655Y374412D01*
X316655Y381988D01*
X322012Y387345D01*
X329588Y387345D01*
X334945Y381988D01*
X334945Y374412D01*
X329588Y369055D01*
X322012Y369055D01*
G37*
%LPD*%
%LPC*%
G36*
X347412Y369055D02*
X347412Y369055D01*
X342055Y374412D01*
X342055Y381988D01*
X347412Y387345D01*
X354988Y387345D01*
X360345Y381988D01*
X360345Y374412D01*
X354988Y369055D01*
X347412Y369055D01*
G37*
%LPD*%
%LPC*%
G36*
X474412Y369055D02*
X474412Y369055D01*
X469055Y374412D01*
X469055Y381988D01*
X474412Y387345D01*
X481988Y387345D01*
X487345Y381988D01*
X487345Y374412D01*
X481988Y369055D01*
X474412Y369055D01*
G37*
%LPD*%
%LPC*%
G36*
X499812Y369055D02*
X499812Y369055D01*
X494455Y374412D01*
X494455Y381988D01*
X499812Y387345D01*
X507388Y387345D01*
X512745Y381988D01*
X512745Y374412D01*
X507388Y369055D01*
X499812Y369055D01*
G37*
%LPD*%
%LPC*%
G36*
X195012Y369055D02*
X195012Y369055D01*
X189655Y374412D01*
X189655Y381988D01*
X195012Y387345D01*
X202588Y387345D01*
X207945Y381988D01*
X207945Y374412D01*
X202588Y369055D01*
X195012Y369055D01*
G37*
%LPD*%
%LPC*%
G36*
X296612Y369055D02*
X296612Y369055D01*
X291255Y374412D01*
X291255Y381988D01*
X296612Y387345D01*
X304188Y387345D01*
X309545Y381988D01*
X309545Y374412D01*
X304188Y369055D01*
X296612Y369055D01*
G37*
%LPD*%
%LPC*%
G36*
X144212Y369055D02*
X144212Y369055D01*
X138855Y374412D01*
X138855Y381988D01*
X144212Y387345D01*
X151788Y387345D01*
X157145Y381988D01*
X157145Y374412D01*
X151788Y369055D01*
X144212Y369055D01*
G37*
%LPD*%
%LPC*%
G36*
X220412Y369055D02*
X220412Y369055D01*
X215055Y374412D01*
X215055Y381988D01*
X220412Y387345D01*
X227988Y387345D01*
X233345Y381988D01*
X233345Y374412D01*
X227988Y369055D01*
X220412Y369055D01*
G37*
%LPD*%
%LPC*%
G36*
X245812Y369055D02*
X245812Y369055D01*
X240455Y374412D01*
X240455Y381988D01*
X245812Y387345D01*
X253388Y387345D01*
X258745Y381988D01*
X258745Y374412D01*
X253388Y369055D01*
X245812Y369055D01*
G37*
%LPD*%
%LPC*%
G36*
X271212Y369055D02*
X271212Y369055D01*
X265855Y374412D01*
X265855Y381988D01*
X271212Y387345D01*
X278788Y387345D01*
X284145Y381988D01*
X284145Y374412D01*
X278788Y369055D01*
X271212Y369055D01*
G37*
%LPD*%
%LPC*%
G36*
X245812Y89655D02*
X245812Y89655D01*
X240455Y95012D01*
X240455Y102588D01*
X245812Y107945D01*
X253388Y107945D01*
X258745Y102588D01*
X258745Y95012D01*
X253388Y89655D01*
X245812Y89655D01*
G37*
%LPD*%
%LPC*%
G36*
X220412Y89655D02*
X220412Y89655D01*
X215055Y95012D01*
X215055Y102588D01*
X220412Y107945D01*
X227988Y107945D01*
X233345Y102588D01*
X233345Y95012D01*
X227988Y89655D01*
X220412Y89655D01*
G37*
%LPD*%
%LPC*%
G36*
X195012Y343655D02*
X195012Y343655D01*
X189655Y349012D01*
X189655Y356588D01*
X195012Y361945D01*
X202588Y361945D01*
X207945Y356588D01*
X207945Y349012D01*
X202588Y343655D01*
X195012Y343655D01*
G37*
%LPD*%
%LPC*%
G36*
X118812Y343655D02*
X118812Y343655D01*
X113455Y349012D01*
X113455Y356588D01*
X118812Y361945D01*
X126388Y361945D01*
X131745Y356588D01*
X131745Y349012D01*
X126388Y343655D01*
X118812Y343655D01*
G37*
%LPD*%
%LPC*%
G36*
X93412Y343655D02*
X93412Y343655D01*
X88055Y349012D01*
X88055Y356588D01*
X93412Y361945D01*
X100988Y361945D01*
X106345Y356588D01*
X106345Y349012D01*
X100988Y343655D01*
X93412Y343655D01*
G37*
%LPD*%
%LPC*%
G36*
X245812Y343655D02*
X245812Y343655D01*
X240455Y349012D01*
X240455Y356588D01*
X245812Y361945D01*
X253388Y361945D01*
X258745Y356588D01*
X258745Y349012D01*
X253388Y343655D01*
X245812Y343655D01*
G37*
%LPD*%
%LPC*%
G36*
X271212Y343655D02*
X271212Y343655D01*
X265855Y349012D01*
X265855Y356588D01*
X271212Y361945D01*
X278788Y361945D01*
X284145Y356588D01*
X284145Y349012D01*
X278788Y343655D01*
X271212Y343655D01*
G37*
%LPD*%
%LPC*%
G36*
X296612Y343655D02*
X296612Y343655D01*
X291255Y349012D01*
X291255Y356588D01*
X296612Y361945D01*
X304188Y361945D01*
X309545Y356588D01*
X309545Y349012D01*
X304188Y343655D01*
X296612Y343655D01*
G37*
%LPD*%
%LPC*%
G36*
X322012Y343655D02*
X322012Y343655D01*
X316655Y349012D01*
X316655Y356588D01*
X322012Y361945D01*
X329588Y361945D01*
X334945Y356588D01*
X334945Y349012D01*
X329588Y343655D01*
X322012Y343655D01*
G37*
%LPD*%
%LPC*%
G36*
X474412Y343655D02*
X474412Y343655D01*
X469055Y349012D01*
X469055Y356588D01*
X474412Y361945D01*
X481988Y361945D01*
X487345Y356588D01*
X487345Y349012D01*
X481988Y343655D01*
X474412Y343655D01*
G37*
%LPD*%
%LPC*%
G36*
X499812Y343655D02*
X499812Y343655D01*
X494455Y349012D01*
X494455Y356588D01*
X499812Y361945D01*
X507388Y361945D01*
X512745Y356588D01*
X512745Y349012D01*
X507388Y343655D01*
X499812Y343655D01*
G37*
%LPD*%
%LPC*%
G36*
X220412Y343655D02*
X220412Y343655D01*
X215055Y349012D01*
X215055Y356588D01*
X220412Y361945D01*
X227988Y361945D01*
X233345Y356588D01*
X233345Y349012D01*
X227988Y343655D01*
X220412Y343655D01*
G37*
%LPD*%
%LPC*%
G36*
X144212Y343655D02*
X144212Y343655D01*
X138855Y349012D01*
X138855Y356588D01*
X144212Y361945D01*
X151788Y361945D01*
X157145Y356588D01*
X157145Y349012D01*
X151788Y343655D01*
X144212Y343655D01*
G37*
%LPD*%
%LPC*%
G36*
X372812Y343655D02*
X372812Y343655D01*
X367455Y349012D01*
X367455Y356588D01*
X372812Y361945D01*
X380388Y361945D01*
X385745Y356588D01*
X385745Y349012D01*
X380388Y343655D01*
X372812Y343655D01*
G37*
%LPD*%
%LPC*%
G36*
X169612Y343655D02*
X169612Y343655D01*
X164255Y349012D01*
X164255Y356588D01*
X169612Y361945D01*
X177188Y361945D01*
X182545Y356588D01*
X182545Y349012D01*
X177188Y343655D01*
X169612Y343655D01*
G37*
%LPD*%
%LPC*%
G36*
X195012Y89655D02*
X195012Y89655D01*
X189655Y95012D01*
X189655Y102588D01*
X195012Y107945D01*
X202588Y107945D01*
X207945Y102588D01*
X207945Y95012D01*
X202588Y89655D01*
X195012Y89655D01*
G37*
%LPD*%
%LPC*%
G36*
X169612Y89655D02*
X169612Y89655D01*
X164255Y95012D01*
X164255Y102588D01*
X169612Y107945D01*
X177188Y107945D01*
X182545Y102588D01*
X182545Y95012D01*
X177188Y89655D01*
X169612Y89655D01*
G37*
%LPD*%
%LPC*%
G36*
X144212Y89655D02*
X144212Y89655D01*
X138855Y95012D01*
X138855Y102588D01*
X144212Y107945D01*
X151788Y107945D01*
X157145Y102588D01*
X157145Y95012D01*
X151788Y89655D01*
X144212Y89655D01*
G37*
%LPD*%
%LPC*%
G36*
X118812Y89655D02*
X118812Y89655D01*
X113455Y95012D01*
X113455Y102588D01*
X118812Y107945D01*
X126388Y107945D01*
X131745Y102588D01*
X131745Y95012D01*
X126388Y89655D01*
X118812Y89655D01*
G37*
%LPD*%
%LPC*%
G36*
X322012Y89655D02*
X322012Y89655D01*
X316655Y95012D01*
X316655Y102588D01*
X322012Y107945D01*
X329588Y107945D01*
X334945Y102588D01*
X334945Y95012D01*
X329588Y89655D01*
X322012Y89655D01*
G37*
%LPD*%
%LPC*%
G36*
X169612Y369055D02*
X169612Y369055D01*
X164255Y374412D01*
X164255Y381988D01*
X169612Y387345D01*
X177188Y387345D01*
X182545Y381988D01*
X182545Y374412D01*
X177188Y369055D01*
X169612Y369055D01*
G37*
%LPD*%
%LPC*%
G36*
X93412Y115055D02*
X93412Y115055D01*
X88055Y120412D01*
X88055Y127988D01*
X93412Y133345D01*
X100988Y133345D01*
X106345Y127988D01*
X106345Y120412D01*
X100988Y115055D01*
X93412Y115055D01*
G37*
%LPD*%
%LPC*%
G36*
X398212Y115055D02*
X398212Y115055D01*
X392855Y120412D01*
X392855Y127988D01*
X398212Y133345D01*
X405788Y133345D01*
X411145Y127988D01*
X411145Y120412D01*
X405788Y115055D01*
X398212Y115055D01*
G37*
%LPD*%
%LPC*%
G36*
X499812Y115055D02*
X499812Y115055D01*
X494455Y120412D01*
X494455Y127988D01*
X499812Y133345D01*
X507388Y133345D01*
X512745Y127988D01*
X512745Y120412D01*
X507388Y115055D01*
X499812Y115055D01*
G37*
%LPD*%
%LPC*%
G36*
X474412Y115055D02*
X474412Y115055D01*
X469055Y120412D01*
X469055Y127988D01*
X474412Y133345D01*
X481988Y133345D01*
X487345Y127988D01*
X487345Y120412D01*
X481988Y115055D01*
X474412Y115055D01*
G37*
%LPD*%
%LPC*%
G36*
X449012Y115055D02*
X449012Y115055D01*
X443655Y120412D01*
X443655Y127988D01*
X449012Y133345D01*
X456588Y133345D01*
X461945Y127988D01*
X461945Y120412D01*
X456588Y115055D01*
X449012Y115055D01*
G37*
%LPD*%
%LPC*%
G36*
X423612Y115055D02*
X423612Y115055D01*
X418255Y120412D01*
X418255Y127988D01*
X423612Y133345D01*
X431188Y133345D01*
X436545Y127988D01*
X436545Y120412D01*
X431188Y115055D01*
X423612Y115055D01*
G37*
%LPD*%
%LPC*%
G36*
X68012Y115055D02*
X68012Y115055D01*
X62655Y120412D01*
X62655Y127988D01*
X68012Y133345D01*
X75588Y133345D01*
X80945Y127988D01*
X80945Y120412D01*
X75588Y115055D01*
X68012Y115055D01*
G37*
%LPD*%
%LPC*%
G36*
X372812Y115055D02*
X372812Y115055D01*
X367455Y120412D01*
X367455Y127988D01*
X372812Y133345D01*
X380388Y133345D01*
X385745Y127988D01*
X385745Y120412D01*
X380388Y115055D01*
X372812Y115055D01*
G37*
%LPD*%
%LPC*%
G36*
X322012Y115055D02*
X322012Y115055D01*
X316655Y120412D01*
X316655Y127988D01*
X322012Y133345D01*
X329588Y133345D01*
X334945Y127988D01*
X334945Y120412D01*
X329588Y115055D01*
X322012Y115055D01*
G37*
%LPD*%
%LPC*%
G36*
X296612Y115055D02*
X296612Y115055D01*
X291255Y120412D01*
X291255Y127988D01*
X296612Y133345D01*
X304188Y133345D01*
X309545Y127988D01*
X309545Y120412D01*
X304188Y115055D01*
X296612Y115055D01*
G37*
%LPD*%
%LPC*%
G36*
X271212Y115055D02*
X271212Y115055D01*
X265855Y120412D01*
X265855Y127988D01*
X271212Y133345D01*
X278788Y133345D01*
X284145Y127988D01*
X284145Y120412D01*
X278788Y115055D01*
X271212Y115055D01*
G37*
%LPD*%
%LPC*%
G36*
X245812Y115055D02*
X245812Y115055D01*
X240455Y120412D01*
X240455Y127988D01*
X245812Y133345D01*
X253388Y133345D01*
X258745Y127988D01*
X258745Y120412D01*
X253388Y115055D01*
X245812Y115055D01*
G37*
%LPD*%
%LPC*%
G36*
X220412Y115055D02*
X220412Y115055D01*
X215055Y120412D01*
X215055Y127988D01*
X220412Y133345D01*
X227988Y133345D01*
X233345Y127988D01*
X233345Y120412D01*
X227988Y115055D01*
X220412Y115055D01*
G37*
%LPD*%
%LPC*%
G36*
X169612Y115055D02*
X169612Y115055D01*
X164255Y120412D01*
X164255Y127988D01*
X169612Y133345D01*
X177188Y133345D01*
X182545Y127988D01*
X182545Y120412D01*
X177188Y115055D01*
X169612Y115055D01*
G37*
%LPD*%
%LPC*%
G36*
X118812Y115055D02*
X118812Y115055D01*
X113455Y120412D01*
X113455Y127988D01*
X118812Y133345D01*
X126388Y133345D01*
X131745Y127988D01*
X131745Y120412D01*
X126388Y115055D01*
X118812Y115055D01*
G37*
%LPD*%
%LPC*%
G36*
X93412Y89655D02*
X93412Y89655D01*
X88055Y95012D01*
X88055Y102588D01*
X93412Y107945D01*
X100988Y107945D01*
X106345Y102588D01*
X106345Y95012D01*
X100988Y89655D01*
X93412Y89655D01*
G37*
%LPD*%
%LPC*%
G36*
X499812Y89655D02*
X499812Y89655D01*
X494455Y95012D01*
X494455Y102588D01*
X499812Y107945D01*
X507388Y107945D01*
X512745Y102588D01*
X512745Y95012D01*
X507388Y89655D01*
X499812Y89655D01*
G37*
%LPD*%
%LPC*%
G36*
X474412Y89655D02*
X474412Y89655D01*
X469055Y95012D01*
X469055Y102588D01*
X474412Y107945D01*
X481988Y107945D01*
X487345Y102588D01*
X487345Y95012D01*
X481988Y89655D01*
X474412Y89655D01*
G37*
%LPD*%
%LPC*%
G36*
X449012Y89655D02*
X449012Y89655D01*
X443655Y95012D01*
X443655Y102588D01*
X449012Y107945D01*
X456588Y107945D01*
X461945Y102588D01*
X461945Y95012D01*
X456588Y89655D01*
X449012Y89655D01*
G37*
%LPD*%
%LPC*%
G36*
X423612Y89655D02*
X423612Y89655D01*
X418255Y95012D01*
X418255Y102588D01*
X423612Y107945D01*
X431188Y107945D01*
X436545Y102588D01*
X436545Y95012D01*
X431188Y89655D01*
X423612Y89655D01*
G37*
%LPD*%
%LPC*%
G36*
X398212Y89655D02*
X398212Y89655D01*
X392855Y95012D01*
X392855Y102588D01*
X398212Y107945D01*
X405788Y107945D01*
X411145Y102588D01*
X411145Y95012D01*
X405788Y89655D01*
X398212Y89655D01*
G37*
%LPD*%
%LPC*%
G36*
X372812Y89655D02*
X372812Y89655D01*
X367455Y95012D01*
X367455Y102588D01*
X372812Y107945D01*
X380388Y107945D01*
X385745Y102588D01*
X385745Y95012D01*
X380388Y89655D01*
X372812Y89655D01*
G37*
%LPD*%
%LPC*%
G36*
X347412Y89655D02*
X347412Y89655D01*
X342055Y95012D01*
X342055Y102588D01*
X347412Y107945D01*
X354988Y107945D01*
X360345Y102588D01*
X360345Y95012D01*
X354988Y89655D01*
X347412Y89655D01*
G37*
%LPD*%
%LPC*%
G36*
X195012Y115055D02*
X195012Y115055D01*
X189655Y120412D01*
X189655Y127988D01*
X195012Y133345D01*
X202588Y133345D01*
X207945Y127988D01*
X207945Y120412D01*
X202588Y115055D01*
X195012Y115055D01*
G37*
%LPD*%
%LPC*%
G36*
X296612Y89655D02*
X296612Y89655D01*
X291255Y95012D01*
X291255Y102588D01*
X296612Y107945D01*
X304188Y107945D01*
X309545Y102588D01*
X309545Y95012D01*
X304188Y89655D01*
X296612Y89655D01*
G37*
%LPD*%
%LPC*%
G36*
X271212Y89655D02*
X271212Y89655D01*
X265855Y95012D01*
X265855Y102588D01*
X271212Y107945D01*
X278788Y107945D01*
X284145Y102588D01*
X284145Y95012D01*
X278788Y89655D01*
X271212Y89655D01*
G37*
%LPD*%
%LPC*%
G36*
X535622Y281622D02*
X535622Y281622D01*
X535622Y290196D01*
X541989Y290196D01*
X542636Y290023D01*
X543215Y289688D01*
X543688Y289215D01*
X544023Y288636D01*
X544196Y287989D01*
X544196Y281622D01*
X535622Y281622D01*
G37*
%LPD*%
%LPC*%
G36*
X535622Y243522D02*
X535622Y243522D01*
X535622Y252096D01*
X541989Y252096D01*
X542636Y251923D01*
X543215Y251588D01*
X543688Y251115D01*
X544023Y250536D01*
X544196Y249889D01*
X544196Y243522D01*
X535622Y243522D01*
G37*
%LPD*%
%LPC*%
G36*
X535622Y205422D02*
X535622Y205422D01*
X535622Y213996D01*
X541989Y213996D01*
X542636Y213823D01*
X543215Y213488D01*
X543688Y213015D01*
X544023Y212436D01*
X544196Y211789D01*
X544196Y205422D01*
X535622Y205422D01*
G37*
%LPD*%
%LPC*%
G36*
X522604Y281622D02*
X522604Y281622D01*
X522604Y287989D01*
X522777Y288636D01*
X523112Y289215D01*
X523585Y289688D01*
X524164Y290023D01*
X524811Y290196D01*
X531178Y290196D01*
X531178Y281622D01*
X522604Y281622D01*
G37*
%LPD*%
%LPC*%
G36*
X522604Y243522D02*
X522604Y243522D01*
X522604Y249889D01*
X522777Y250536D01*
X523112Y251115D01*
X523585Y251588D01*
X524164Y251923D01*
X524811Y252096D01*
X531178Y252096D01*
X531178Y243522D01*
X522604Y243522D01*
G37*
%LPD*%
%LPC*%
G36*
X522604Y205422D02*
X522604Y205422D01*
X522604Y211789D01*
X522777Y212436D01*
X523112Y213015D01*
X523585Y213488D01*
X524164Y213823D01*
X524811Y213996D01*
X531178Y213996D01*
X531178Y205422D01*
X522604Y205422D01*
G37*
%LPD*%
%LPC*%
G36*
X535622Y192404D02*
X535622Y192404D01*
X535622Y200978D01*
X544196Y200978D01*
X544196Y194611D01*
X544023Y193964D01*
X543688Y193385D01*
X543215Y192912D01*
X542636Y192577D01*
X541989Y192404D01*
X535622Y192404D01*
G37*
%LPD*%
%LPC*%
G36*
X535622Y230504D02*
X535622Y230504D01*
X535622Y239078D01*
X544196Y239078D01*
X544196Y232711D01*
X544023Y232064D01*
X543688Y231485D01*
X543215Y231012D01*
X542636Y230677D01*
X541989Y230504D01*
X535622Y230504D01*
G37*
%LPD*%
%LPC*%
G36*
X535622Y268604D02*
X535622Y268604D01*
X535622Y277178D01*
X544196Y277178D01*
X544196Y270811D01*
X544023Y270164D01*
X543688Y269585D01*
X543215Y269112D01*
X542636Y268777D01*
X541989Y268604D01*
X535622Y268604D01*
G37*
%LPD*%
%LPC*%
G36*
X524811Y192404D02*
X524811Y192404D01*
X524164Y192577D01*
X523585Y192912D01*
X523112Y193385D01*
X522777Y193964D01*
X522604Y194611D01*
X522604Y200978D01*
X531178Y200978D01*
X531178Y192404D01*
X524811Y192404D01*
G37*
%LPD*%
%LPC*%
G36*
X524811Y268604D02*
X524811Y268604D01*
X524164Y268777D01*
X523585Y269112D01*
X523112Y269585D01*
X522777Y270164D01*
X522604Y270811D01*
X522604Y277178D01*
X531178Y277178D01*
X531178Y268604D01*
X524811Y268604D01*
G37*
%LPD*%
%LPC*%
G36*
X524811Y230504D02*
X524811Y230504D01*
X524164Y230677D01*
X523585Y231012D01*
X523112Y231485D01*
X522777Y232064D01*
X522604Y232711D01*
X522604Y239078D01*
X531178Y239078D01*
X531178Y230504D01*
X524811Y230504D01*
G37*
%LPD*%
%LPC*%
G36*
X368939Y281939D02*
X368939Y281939D01*
X368939Y288749D01*
X369112Y289396D01*
X369447Y289975D01*
X369920Y290448D01*
X370499Y290783D01*
X371146Y290956D01*
X376941Y290956D01*
X376941Y281939D01*
X368939Y281939D01*
G37*
%LPD*%
%LPC*%
G36*
X368939Y205739D02*
X368939Y205739D01*
X368939Y212549D01*
X369112Y213196D01*
X369447Y213775D01*
X369920Y214248D01*
X370499Y214583D01*
X371146Y214756D01*
X376941Y214756D01*
X376941Y205739D01*
X368939Y205739D01*
G37*
%LPD*%
%LPC*%
G36*
X368939Y243839D02*
X368939Y243839D01*
X368939Y250649D01*
X369112Y251296D01*
X369447Y251875D01*
X369920Y252348D01*
X370499Y252683D01*
X371146Y252856D01*
X376941Y252856D01*
X376941Y243839D01*
X368939Y243839D01*
G37*
%LPD*%
%LPC*%
G36*
X371146Y191644D02*
X371146Y191644D01*
X370499Y191817D01*
X369920Y192152D01*
X369447Y192625D01*
X369112Y193204D01*
X368939Y193851D01*
X368939Y200661D01*
X376941Y200661D01*
X376941Y191644D01*
X371146Y191644D01*
G37*
%LPD*%
%LPC*%
G36*
X371146Y229744D02*
X371146Y229744D01*
X370499Y229917D01*
X369920Y230252D01*
X369447Y230725D01*
X369112Y231304D01*
X368939Y231951D01*
X368939Y238761D01*
X376941Y238761D01*
X376941Y229744D01*
X371146Y229744D01*
G37*
%LPD*%
%LPC*%
G36*
X371146Y267844D02*
X371146Y267844D01*
X370499Y268017D01*
X369920Y268352D01*
X369447Y268825D01*
X369112Y269404D01*
X368939Y270051D01*
X368939Y276861D01*
X376941Y276861D01*
X376941Y267844D01*
X371146Y267844D01*
G37*
%LPD*%
%LPC*%
G36*
X353422Y355022D02*
X353422Y355022D01*
X353422Y362961D01*
X355409Y362961D01*
X361361Y357009D01*
X361361Y355022D01*
X353422Y355022D01*
G37*
%LPD*%
%LPC*%
G36*
X341039Y355022D02*
X341039Y355022D01*
X341039Y357009D01*
X346991Y362961D01*
X348978Y362961D01*
X348978Y355022D01*
X341039Y355022D01*
G37*
%LPD*%
%LPC*%
G36*
X353422Y342639D02*
X353422Y342639D01*
X353422Y350578D01*
X361361Y350578D01*
X361361Y348591D01*
X355409Y342639D01*
X353422Y342639D01*
G37*
%LPD*%
%LPC*%
G36*
X346991Y342639D02*
X346991Y342639D01*
X341039Y348591D01*
X341039Y350578D01*
X348978Y350578D01*
X348978Y342639D01*
X346991Y342639D01*
G37*
%LPD*%
%LPC*%
G36*
X157519Y213869D02*
X157519Y213869D01*
X157519Y222991D01*
X158189Y222991D01*
X158966Y222783D01*
X159662Y222381D01*
X160231Y221812D01*
X160633Y221116D01*
X160841Y220339D01*
X160841Y213869D01*
X157519Y213869D01*
G37*
%LPD*%
%LPC*%
G36*
X157519Y202209D02*
X157519Y202209D01*
X157519Y211331D01*
X160841Y211331D01*
X160841Y204861D01*
X160633Y204084D01*
X160231Y203388D01*
X159662Y202819D01*
X158966Y202417D01*
X158189Y202209D01*
X157519Y202209D01*
G37*
%LPD*%
D10*
X520700Y38100D03*
X88900Y431800D03*
X101600Y38100D03*
D11*
X38100Y431800D03*
X571500Y431800D03*
X571500Y38100D03*
X38100Y38100D03*
D12*
X379480Y203200D03*
X407920Y203200D03*
X379480Y241300D03*
X407920Y241300D03*
X379480Y279400D03*
X407920Y279400D03*
D13*
X533400Y203200D03*
D14*
X508000Y203200D03*
X482600Y203200D03*
X457200Y203200D03*
D13*
X533400Y241300D03*
D14*
X508000Y241300D03*
X482600Y241300D03*
X457200Y241300D03*
D13*
X533400Y279400D03*
D14*
X508000Y279400D03*
X482600Y279400D03*
X457200Y279400D03*
D13*
X63500Y266700D03*
D14*
X63500Y241300D03*
X63500Y215900D03*
D15*
X99288Y219938D02*
X99288Y205262D01*
X96212Y205262D01*
X96212Y219938D01*
X99288Y219938D01*
X99288Y206236D02*
X96212Y206236D01*
X96212Y207210D02*
X99288Y207210D01*
X99288Y208184D02*
X96212Y208184D01*
X96212Y209158D02*
X99288Y209158D01*
X99288Y210132D02*
X96212Y210132D01*
X96212Y211106D02*
X99288Y211106D01*
X99288Y212080D02*
X96212Y212080D01*
X96212Y213054D02*
X99288Y213054D01*
X99288Y214028D02*
X96212Y214028D01*
X96212Y215002D02*
X99288Y215002D01*
X99288Y215976D02*
X96212Y215976D01*
X96212Y216950D02*
X99288Y216950D01*
X99288Y217924D02*
X96212Y217924D01*
X96212Y218898D02*
X99288Y218898D01*
X99288Y219872D02*
X96212Y219872D01*
X105788Y219938D02*
X105788Y205262D01*
X102712Y205262D01*
X102712Y219938D01*
X105788Y219938D01*
X105788Y206236D02*
X102712Y206236D01*
X102712Y207210D02*
X105788Y207210D01*
X105788Y208184D02*
X102712Y208184D01*
X102712Y209158D02*
X105788Y209158D01*
X105788Y210132D02*
X102712Y210132D01*
X102712Y211106D02*
X105788Y211106D01*
X105788Y212080D02*
X102712Y212080D01*
X102712Y213054D02*
X105788Y213054D01*
X105788Y214028D02*
X102712Y214028D01*
X102712Y215002D02*
X105788Y215002D01*
X105788Y215976D02*
X102712Y215976D01*
X102712Y216950D02*
X105788Y216950D01*
X105788Y217924D02*
X102712Y217924D01*
X102712Y218898D02*
X105788Y218898D01*
X105788Y219872D02*
X102712Y219872D01*
X112288Y219938D02*
X112288Y205262D01*
X109212Y205262D01*
X109212Y219938D01*
X112288Y219938D01*
X112288Y206236D02*
X109212Y206236D01*
X109212Y207210D02*
X112288Y207210D01*
X112288Y208184D02*
X109212Y208184D01*
X109212Y209158D02*
X112288Y209158D01*
X112288Y210132D02*
X109212Y210132D01*
X109212Y211106D02*
X112288Y211106D01*
X112288Y212080D02*
X109212Y212080D01*
X109212Y213054D02*
X112288Y213054D01*
X112288Y214028D02*
X109212Y214028D01*
X109212Y215002D02*
X112288Y215002D01*
X112288Y215976D02*
X109212Y215976D01*
X109212Y216950D02*
X112288Y216950D01*
X112288Y217924D02*
X109212Y217924D01*
X109212Y218898D02*
X112288Y218898D01*
X112288Y219872D02*
X109212Y219872D01*
X118788Y219938D02*
X118788Y205262D01*
X115712Y205262D01*
X115712Y219938D01*
X118788Y219938D01*
X118788Y206236D02*
X115712Y206236D01*
X115712Y207210D02*
X118788Y207210D01*
X118788Y208184D02*
X115712Y208184D01*
X115712Y209158D02*
X118788Y209158D01*
X118788Y210132D02*
X115712Y210132D01*
X115712Y211106D02*
X118788Y211106D01*
X118788Y212080D02*
X115712Y212080D01*
X115712Y213054D02*
X118788Y213054D01*
X118788Y214028D02*
X115712Y214028D01*
X115712Y215002D02*
X118788Y215002D01*
X118788Y215976D02*
X115712Y215976D01*
X115712Y216950D02*
X118788Y216950D01*
X118788Y217924D02*
X115712Y217924D01*
X115712Y218898D02*
X118788Y218898D01*
X118788Y219872D02*
X115712Y219872D01*
X125288Y219938D02*
X125288Y205262D01*
X122212Y205262D01*
X122212Y219938D01*
X125288Y219938D01*
X125288Y206236D02*
X122212Y206236D01*
X122212Y207210D02*
X125288Y207210D01*
X125288Y208184D02*
X122212Y208184D01*
X122212Y209158D02*
X125288Y209158D01*
X125288Y210132D02*
X122212Y210132D01*
X122212Y211106D02*
X125288Y211106D01*
X125288Y212080D02*
X122212Y212080D01*
X122212Y213054D02*
X125288Y213054D01*
X125288Y214028D02*
X122212Y214028D01*
X122212Y215002D02*
X125288Y215002D01*
X125288Y215976D02*
X122212Y215976D01*
X122212Y216950D02*
X125288Y216950D01*
X125288Y217924D02*
X122212Y217924D01*
X122212Y218898D02*
X125288Y218898D01*
X125288Y219872D02*
X122212Y219872D01*
X131788Y219938D02*
X131788Y205262D01*
X128712Y205262D01*
X128712Y219938D01*
X131788Y219938D01*
X131788Y206236D02*
X128712Y206236D01*
X128712Y207210D02*
X131788Y207210D01*
X131788Y208184D02*
X128712Y208184D01*
X128712Y209158D02*
X131788Y209158D01*
X131788Y210132D02*
X128712Y210132D01*
X128712Y211106D02*
X131788Y211106D01*
X131788Y212080D02*
X128712Y212080D01*
X128712Y213054D02*
X131788Y213054D01*
X131788Y214028D02*
X128712Y214028D01*
X128712Y215002D02*
X131788Y215002D01*
X131788Y215976D02*
X128712Y215976D01*
X128712Y216950D02*
X131788Y216950D01*
X131788Y217924D02*
X128712Y217924D01*
X128712Y218898D02*
X131788Y218898D01*
X131788Y219872D02*
X128712Y219872D01*
X138288Y219938D02*
X138288Y205262D01*
X135212Y205262D01*
X135212Y219938D01*
X138288Y219938D01*
X138288Y206236D02*
X135212Y206236D01*
X135212Y207210D02*
X138288Y207210D01*
X138288Y208184D02*
X135212Y208184D01*
X135212Y209158D02*
X138288Y209158D01*
X138288Y210132D02*
X135212Y210132D01*
X135212Y211106D02*
X138288Y211106D01*
X138288Y212080D02*
X135212Y212080D01*
X135212Y213054D02*
X138288Y213054D01*
X138288Y214028D02*
X135212Y214028D01*
X135212Y215002D02*
X138288Y215002D01*
X138288Y215976D02*
X135212Y215976D01*
X135212Y216950D02*
X138288Y216950D01*
X138288Y217924D02*
X135212Y217924D01*
X135212Y218898D02*
X138288Y218898D01*
X138288Y219872D02*
X135212Y219872D01*
X144788Y219938D02*
X144788Y205262D01*
X141712Y205262D01*
X141712Y219938D01*
X144788Y219938D01*
X144788Y206236D02*
X141712Y206236D01*
X141712Y207210D02*
X144788Y207210D01*
X144788Y208184D02*
X141712Y208184D01*
X141712Y209158D02*
X144788Y209158D01*
X144788Y210132D02*
X141712Y210132D01*
X141712Y211106D02*
X144788Y211106D01*
X144788Y212080D02*
X141712Y212080D01*
X141712Y213054D02*
X144788Y213054D01*
X144788Y214028D02*
X141712Y214028D01*
X141712Y215002D02*
X144788Y215002D01*
X144788Y215976D02*
X141712Y215976D01*
X141712Y216950D02*
X144788Y216950D01*
X144788Y217924D02*
X141712Y217924D01*
X141712Y218898D02*
X144788Y218898D01*
X144788Y219872D02*
X141712Y219872D01*
X151288Y219938D02*
X151288Y205262D01*
X148212Y205262D01*
X148212Y219938D01*
X151288Y219938D01*
X151288Y206236D02*
X148212Y206236D01*
X148212Y207210D02*
X151288Y207210D01*
X151288Y208184D02*
X148212Y208184D01*
X148212Y209158D02*
X151288Y209158D01*
X151288Y210132D02*
X148212Y210132D01*
X148212Y211106D02*
X151288Y211106D01*
X151288Y212080D02*
X148212Y212080D01*
X148212Y213054D02*
X151288Y213054D01*
X151288Y214028D02*
X148212Y214028D01*
X148212Y215002D02*
X151288Y215002D01*
X151288Y215976D02*
X148212Y215976D01*
X148212Y216950D02*
X151288Y216950D01*
X151288Y217924D02*
X148212Y217924D01*
X148212Y218898D02*
X151288Y218898D01*
X151288Y219872D02*
X148212Y219872D01*
X157788Y219938D02*
X157788Y205262D01*
X154712Y205262D01*
X154712Y219938D01*
X157788Y219938D01*
X157788Y206236D02*
X154712Y206236D01*
X154712Y207210D02*
X157788Y207210D01*
X157788Y208184D02*
X154712Y208184D01*
X154712Y209158D02*
X157788Y209158D01*
X157788Y210132D02*
X154712Y210132D01*
X154712Y211106D02*
X157788Y211106D01*
X157788Y212080D02*
X154712Y212080D01*
X154712Y213054D02*
X157788Y213054D01*
X157788Y214028D02*
X154712Y214028D01*
X154712Y215002D02*
X157788Y215002D01*
X157788Y215976D02*
X154712Y215976D01*
X154712Y216950D02*
X157788Y216950D01*
X157788Y217924D02*
X154712Y217924D01*
X154712Y218898D02*
X157788Y218898D01*
X157788Y219872D02*
X154712Y219872D01*
X157788Y262662D02*
X157788Y277338D01*
X157788Y262662D02*
X154712Y262662D01*
X154712Y277338D01*
X157788Y277338D01*
X157788Y263636D02*
X154712Y263636D01*
X154712Y264610D02*
X157788Y264610D01*
X157788Y265584D02*
X154712Y265584D01*
X154712Y266558D02*
X157788Y266558D01*
X157788Y267532D02*
X154712Y267532D01*
X154712Y268506D02*
X157788Y268506D01*
X157788Y269480D02*
X154712Y269480D01*
X154712Y270454D02*
X157788Y270454D01*
X157788Y271428D02*
X154712Y271428D01*
X154712Y272402D02*
X157788Y272402D01*
X157788Y273376D02*
X154712Y273376D01*
X154712Y274350D02*
X157788Y274350D01*
X157788Y275324D02*
X154712Y275324D01*
X154712Y276298D02*
X157788Y276298D01*
X157788Y277272D02*
X154712Y277272D01*
X151288Y277338D02*
X151288Y262662D01*
X148212Y262662D01*
X148212Y277338D01*
X151288Y277338D01*
X151288Y263636D02*
X148212Y263636D01*
X148212Y264610D02*
X151288Y264610D01*
X151288Y265584D02*
X148212Y265584D01*
X148212Y266558D02*
X151288Y266558D01*
X151288Y267532D02*
X148212Y267532D01*
X148212Y268506D02*
X151288Y268506D01*
X151288Y269480D02*
X148212Y269480D01*
X148212Y270454D02*
X151288Y270454D01*
X151288Y271428D02*
X148212Y271428D01*
X148212Y272402D02*
X151288Y272402D01*
X151288Y273376D02*
X148212Y273376D01*
X148212Y274350D02*
X151288Y274350D01*
X151288Y275324D02*
X148212Y275324D01*
X148212Y276298D02*
X151288Y276298D01*
X151288Y277272D02*
X148212Y277272D01*
X144788Y277338D02*
X144788Y262662D01*
X141712Y262662D01*
X141712Y277338D01*
X144788Y277338D01*
X144788Y263636D02*
X141712Y263636D01*
X141712Y264610D02*
X144788Y264610D01*
X144788Y265584D02*
X141712Y265584D01*
X141712Y266558D02*
X144788Y266558D01*
X144788Y267532D02*
X141712Y267532D01*
X141712Y268506D02*
X144788Y268506D01*
X144788Y269480D02*
X141712Y269480D01*
X141712Y270454D02*
X144788Y270454D01*
X144788Y271428D02*
X141712Y271428D01*
X141712Y272402D02*
X144788Y272402D01*
X144788Y273376D02*
X141712Y273376D01*
X141712Y274350D02*
X144788Y274350D01*
X144788Y275324D02*
X141712Y275324D01*
X141712Y276298D02*
X144788Y276298D01*
X144788Y277272D02*
X141712Y277272D01*
X138288Y277338D02*
X138288Y262662D01*
X135212Y262662D01*
X135212Y277338D01*
X138288Y277338D01*
X138288Y263636D02*
X135212Y263636D01*
X135212Y264610D02*
X138288Y264610D01*
X138288Y265584D02*
X135212Y265584D01*
X135212Y266558D02*
X138288Y266558D01*
X138288Y267532D02*
X135212Y267532D01*
X135212Y268506D02*
X138288Y268506D01*
X138288Y269480D02*
X135212Y269480D01*
X135212Y270454D02*
X138288Y270454D01*
X138288Y271428D02*
X135212Y271428D01*
X135212Y272402D02*
X138288Y272402D01*
X138288Y273376D02*
X135212Y273376D01*
X135212Y274350D02*
X138288Y274350D01*
X138288Y275324D02*
X135212Y275324D01*
X135212Y276298D02*
X138288Y276298D01*
X138288Y277272D02*
X135212Y277272D01*
X131788Y277338D02*
X131788Y262662D01*
X128712Y262662D01*
X128712Y277338D01*
X131788Y277338D01*
X131788Y263636D02*
X128712Y263636D01*
X128712Y264610D02*
X131788Y264610D01*
X131788Y265584D02*
X128712Y265584D01*
X128712Y266558D02*
X131788Y266558D01*
X131788Y267532D02*
X128712Y267532D01*
X128712Y268506D02*
X131788Y268506D01*
X131788Y269480D02*
X128712Y269480D01*
X128712Y270454D02*
X131788Y270454D01*
X131788Y271428D02*
X128712Y271428D01*
X128712Y272402D02*
X131788Y272402D01*
X131788Y273376D02*
X128712Y273376D01*
X128712Y274350D02*
X131788Y274350D01*
X131788Y275324D02*
X128712Y275324D01*
X128712Y276298D02*
X131788Y276298D01*
X131788Y277272D02*
X128712Y277272D01*
X125288Y277338D02*
X125288Y262662D01*
X122212Y262662D01*
X122212Y277338D01*
X125288Y277338D01*
X125288Y263636D02*
X122212Y263636D01*
X122212Y264610D02*
X125288Y264610D01*
X125288Y265584D02*
X122212Y265584D01*
X122212Y266558D02*
X125288Y266558D01*
X125288Y267532D02*
X122212Y267532D01*
X122212Y268506D02*
X125288Y268506D01*
X125288Y269480D02*
X122212Y269480D01*
X122212Y270454D02*
X125288Y270454D01*
X125288Y271428D02*
X122212Y271428D01*
X122212Y272402D02*
X125288Y272402D01*
X125288Y273376D02*
X122212Y273376D01*
X122212Y274350D02*
X125288Y274350D01*
X125288Y275324D02*
X122212Y275324D01*
X122212Y276298D02*
X125288Y276298D01*
X125288Y277272D02*
X122212Y277272D01*
X118788Y277338D02*
X118788Y262662D01*
X115712Y262662D01*
X115712Y277338D01*
X118788Y277338D01*
X118788Y263636D02*
X115712Y263636D01*
X115712Y264610D02*
X118788Y264610D01*
X118788Y265584D02*
X115712Y265584D01*
X115712Y266558D02*
X118788Y266558D01*
X118788Y267532D02*
X115712Y267532D01*
X115712Y268506D02*
X118788Y268506D01*
X118788Y269480D02*
X115712Y269480D01*
X115712Y270454D02*
X118788Y270454D01*
X118788Y271428D02*
X115712Y271428D01*
X115712Y272402D02*
X118788Y272402D01*
X118788Y273376D02*
X115712Y273376D01*
X115712Y274350D02*
X118788Y274350D01*
X118788Y275324D02*
X115712Y275324D01*
X115712Y276298D02*
X118788Y276298D01*
X118788Y277272D02*
X115712Y277272D01*
X112288Y277338D02*
X112288Y262662D01*
X109212Y262662D01*
X109212Y277338D01*
X112288Y277338D01*
X112288Y263636D02*
X109212Y263636D01*
X109212Y264610D02*
X112288Y264610D01*
X112288Y265584D02*
X109212Y265584D01*
X109212Y266558D02*
X112288Y266558D01*
X112288Y267532D02*
X109212Y267532D01*
X109212Y268506D02*
X112288Y268506D01*
X112288Y269480D02*
X109212Y269480D01*
X109212Y270454D02*
X112288Y270454D01*
X112288Y271428D02*
X109212Y271428D01*
X109212Y272402D02*
X112288Y272402D01*
X112288Y273376D02*
X109212Y273376D01*
X109212Y274350D02*
X112288Y274350D01*
X112288Y275324D02*
X109212Y275324D01*
X109212Y276298D02*
X112288Y276298D01*
X112288Y277272D02*
X109212Y277272D01*
X105788Y277338D02*
X105788Y262662D01*
X102712Y262662D01*
X102712Y277338D01*
X105788Y277338D01*
X105788Y263636D02*
X102712Y263636D01*
X102712Y264610D02*
X105788Y264610D01*
X105788Y265584D02*
X102712Y265584D01*
X102712Y266558D02*
X105788Y266558D01*
X105788Y267532D02*
X102712Y267532D01*
X102712Y268506D02*
X105788Y268506D01*
X105788Y269480D02*
X102712Y269480D01*
X102712Y270454D02*
X105788Y270454D01*
X105788Y271428D02*
X102712Y271428D01*
X102712Y272402D02*
X105788Y272402D01*
X105788Y273376D02*
X102712Y273376D01*
X102712Y274350D02*
X105788Y274350D01*
X105788Y275324D02*
X102712Y275324D01*
X102712Y276298D02*
X105788Y276298D01*
X105788Y277272D02*
X102712Y277272D01*
X99288Y277338D02*
X99288Y262662D01*
X96212Y262662D01*
X96212Y277338D01*
X99288Y277338D01*
X99288Y263636D02*
X96212Y263636D01*
X96212Y264610D02*
X99288Y264610D01*
X99288Y265584D02*
X96212Y265584D01*
X96212Y266558D02*
X99288Y266558D01*
X99288Y267532D02*
X96212Y267532D01*
X96212Y268506D02*
X99288Y268506D01*
X99288Y269480D02*
X96212Y269480D01*
X96212Y270454D02*
X99288Y270454D01*
X99288Y271428D02*
X96212Y271428D01*
X96212Y272402D02*
X99288Y272402D01*
X99288Y273376D02*
X96212Y273376D01*
X96212Y274350D02*
X99288Y274350D01*
X99288Y275324D02*
X96212Y275324D01*
X96212Y276298D02*
X99288Y276298D01*
X99288Y277272D02*
X96212Y277272D01*
D16*
X71800Y98800D03*
D17*
X71800Y124200D03*
X97200Y98800D03*
X97200Y124200D03*
X122600Y98800D03*
X122600Y124200D03*
X148000Y98800D03*
X148000Y124200D03*
X173400Y98800D03*
X173400Y124200D03*
X198800Y98800D03*
X198800Y124200D03*
X224200Y98800D03*
X224200Y124200D03*
X249600Y98800D03*
X249600Y124200D03*
X275000Y98800D03*
X275000Y124200D03*
X300400Y98800D03*
X300400Y124200D03*
X325800Y98800D03*
X325800Y124200D03*
X351200Y98800D03*
X351200Y124200D03*
X376600Y98800D03*
X376600Y124200D03*
X402000Y98800D03*
X402000Y124200D03*
X427400Y98800D03*
X427400Y124200D03*
X452800Y98800D03*
X452800Y124200D03*
X478200Y98800D03*
X478200Y124200D03*
X503600Y98800D03*
X503600Y124200D03*
D16*
X71800Y352800D03*
D17*
X71800Y378200D03*
X97200Y352800D03*
X97200Y378200D03*
X122600Y352800D03*
X122600Y378200D03*
X148000Y352800D03*
X148000Y378200D03*
X173400Y352800D03*
X173400Y378200D03*
X198800Y352800D03*
X198800Y378200D03*
X224200Y352800D03*
X224200Y378200D03*
X249600Y352800D03*
X249600Y378200D03*
X275000Y352800D03*
X275000Y378200D03*
X300400Y352800D03*
X300400Y378200D03*
X325800Y352800D03*
X325800Y378200D03*
X351200Y352800D03*
X351200Y378200D03*
X376600Y352800D03*
X376600Y378200D03*
X402000Y352800D03*
X402000Y378200D03*
X427400Y352800D03*
X427400Y378200D03*
X452800Y352800D03*
X452800Y378200D03*
X478200Y352800D03*
X478200Y378200D03*
X503600Y352800D03*
X503600Y378200D03*
D18*
X351200Y169500D02*
X351200Y124200D01*
X279400Y241300D02*
X109220Y241300D01*
X104140Y241300D01*
X99170Y241300D02*
X63500Y241300D01*
X99170Y241300D02*
X104140Y241300D01*
X279400Y241300D02*
X351200Y169500D01*
D19*
X104250Y246380D02*
X104250Y270000D01*
X104250Y246380D02*
X104250Y241410D01*
X104140Y241300D01*
D18*
X99170Y241300D02*
X104250Y246380D01*
X109220Y241410D01*
X109220Y241300D01*
D19*
X156250Y270000D02*
X156250Y280710D01*
X160020Y284480D01*
D20*
X160020Y284480D03*
D19*
X97750Y270000D02*
X96990Y269240D01*
X86360Y269240D01*
X83820Y266700D01*
X63500Y266700D01*
X97750Y174450D02*
X148000Y124200D01*
X97750Y174450D02*
X97750Y212600D01*
X407920Y265180D02*
X407920Y279400D01*
X464820Y261620D02*
X482600Y279400D01*
X411480Y261620D02*
X407920Y265180D01*
X411480Y261620D02*
X464820Y261620D01*
X107620Y414020D02*
X71800Y378200D01*
X407920Y306320D02*
X407920Y279400D01*
X419100Y414020D02*
X107620Y414020D01*
X419100Y414020D02*
X439420Y393700D01*
X439420Y337820D01*
X407920Y306320D01*
X407920Y203200D02*
X407920Y191520D01*
X414020Y185420D01*
X464820Y185420D02*
X482600Y203200D01*
X464820Y185420D02*
X414020Y185420D01*
X148260Y403860D02*
X122600Y378200D01*
X368300Y403860D02*
X391160Y381000D01*
X391160Y205740D01*
X368300Y403860D02*
X148260Y403860D01*
X391160Y205740D02*
X393700Y203200D01*
X407920Y203200D01*
X408430Y240790D02*
X407920Y241300D01*
X408430Y240790D02*
X408940Y240280D01*
X408940Y228600D01*
X414020Y223520D01*
X464820Y223520D02*
X482600Y241300D01*
X464820Y223520D02*
X414020Y223520D01*
X127940Y408940D02*
X97200Y378200D01*
X399290Y240790D02*
X408430Y240790D01*
X399290Y240790D02*
X396240Y243840D01*
X396240Y309880D01*
X414020Y327660D01*
X414020Y386080D01*
X391160Y408940D01*
X127940Y408940D01*
M02*
