G04 EAGLE Gerber RS-274X export*
G75*
%MOMM*%
%FSLAX34Y34*%
%LPD*%
%INSolderpaste Top*%
%IPPOS*%
%AMOC8*
5,1,8,0,0,1.08239X$1,22.5*%
G01*
%ADD10R,1.600000X1.803000*%
%ADD11C,0.102500*%


D10*
X379480Y203200D03*
X407920Y203200D03*
X379480Y241300D03*
X407920Y241300D03*
X379480Y279400D03*
X407920Y279400D03*
D11*
X99288Y219938D02*
X99288Y205262D01*
X96212Y205262D01*
X96212Y219938D01*
X99288Y219938D01*
X99288Y206236D02*
X96212Y206236D01*
X96212Y207210D02*
X99288Y207210D01*
X99288Y208184D02*
X96212Y208184D01*
X96212Y209158D02*
X99288Y209158D01*
X99288Y210132D02*
X96212Y210132D01*
X96212Y211106D02*
X99288Y211106D01*
X99288Y212080D02*
X96212Y212080D01*
X96212Y213054D02*
X99288Y213054D01*
X99288Y214028D02*
X96212Y214028D01*
X96212Y215002D02*
X99288Y215002D01*
X99288Y215976D02*
X96212Y215976D01*
X96212Y216950D02*
X99288Y216950D01*
X99288Y217924D02*
X96212Y217924D01*
X96212Y218898D02*
X99288Y218898D01*
X99288Y219872D02*
X96212Y219872D01*
X105788Y219938D02*
X105788Y205262D01*
X102712Y205262D01*
X102712Y219938D01*
X105788Y219938D01*
X105788Y206236D02*
X102712Y206236D01*
X102712Y207210D02*
X105788Y207210D01*
X105788Y208184D02*
X102712Y208184D01*
X102712Y209158D02*
X105788Y209158D01*
X105788Y210132D02*
X102712Y210132D01*
X102712Y211106D02*
X105788Y211106D01*
X105788Y212080D02*
X102712Y212080D01*
X102712Y213054D02*
X105788Y213054D01*
X105788Y214028D02*
X102712Y214028D01*
X102712Y215002D02*
X105788Y215002D01*
X105788Y215976D02*
X102712Y215976D01*
X102712Y216950D02*
X105788Y216950D01*
X105788Y217924D02*
X102712Y217924D01*
X102712Y218898D02*
X105788Y218898D01*
X105788Y219872D02*
X102712Y219872D01*
X112288Y219938D02*
X112288Y205262D01*
X109212Y205262D01*
X109212Y219938D01*
X112288Y219938D01*
X112288Y206236D02*
X109212Y206236D01*
X109212Y207210D02*
X112288Y207210D01*
X112288Y208184D02*
X109212Y208184D01*
X109212Y209158D02*
X112288Y209158D01*
X112288Y210132D02*
X109212Y210132D01*
X109212Y211106D02*
X112288Y211106D01*
X112288Y212080D02*
X109212Y212080D01*
X109212Y213054D02*
X112288Y213054D01*
X112288Y214028D02*
X109212Y214028D01*
X109212Y215002D02*
X112288Y215002D01*
X112288Y215976D02*
X109212Y215976D01*
X109212Y216950D02*
X112288Y216950D01*
X112288Y217924D02*
X109212Y217924D01*
X109212Y218898D02*
X112288Y218898D01*
X112288Y219872D02*
X109212Y219872D01*
X118788Y219938D02*
X118788Y205262D01*
X115712Y205262D01*
X115712Y219938D01*
X118788Y219938D01*
X118788Y206236D02*
X115712Y206236D01*
X115712Y207210D02*
X118788Y207210D01*
X118788Y208184D02*
X115712Y208184D01*
X115712Y209158D02*
X118788Y209158D01*
X118788Y210132D02*
X115712Y210132D01*
X115712Y211106D02*
X118788Y211106D01*
X118788Y212080D02*
X115712Y212080D01*
X115712Y213054D02*
X118788Y213054D01*
X118788Y214028D02*
X115712Y214028D01*
X115712Y215002D02*
X118788Y215002D01*
X118788Y215976D02*
X115712Y215976D01*
X115712Y216950D02*
X118788Y216950D01*
X118788Y217924D02*
X115712Y217924D01*
X115712Y218898D02*
X118788Y218898D01*
X118788Y219872D02*
X115712Y219872D01*
X125288Y219938D02*
X125288Y205262D01*
X122212Y205262D01*
X122212Y219938D01*
X125288Y219938D01*
X125288Y206236D02*
X122212Y206236D01*
X122212Y207210D02*
X125288Y207210D01*
X125288Y208184D02*
X122212Y208184D01*
X122212Y209158D02*
X125288Y209158D01*
X125288Y210132D02*
X122212Y210132D01*
X122212Y211106D02*
X125288Y211106D01*
X125288Y212080D02*
X122212Y212080D01*
X122212Y213054D02*
X125288Y213054D01*
X125288Y214028D02*
X122212Y214028D01*
X122212Y215002D02*
X125288Y215002D01*
X125288Y215976D02*
X122212Y215976D01*
X122212Y216950D02*
X125288Y216950D01*
X125288Y217924D02*
X122212Y217924D01*
X122212Y218898D02*
X125288Y218898D01*
X125288Y219872D02*
X122212Y219872D01*
X131788Y219938D02*
X131788Y205262D01*
X128712Y205262D01*
X128712Y219938D01*
X131788Y219938D01*
X131788Y206236D02*
X128712Y206236D01*
X128712Y207210D02*
X131788Y207210D01*
X131788Y208184D02*
X128712Y208184D01*
X128712Y209158D02*
X131788Y209158D01*
X131788Y210132D02*
X128712Y210132D01*
X128712Y211106D02*
X131788Y211106D01*
X131788Y212080D02*
X128712Y212080D01*
X128712Y213054D02*
X131788Y213054D01*
X131788Y214028D02*
X128712Y214028D01*
X128712Y215002D02*
X131788Y215002D01*
X131788Y215976D02*
X128712Y215976D01*
X128712Y216950D02*
X131788Y216950D01*
X131788Y217924D02*
X128712Y217924D01*
X128712Y218898D02*
X131788Y218898D01*
X131788Y219872D02*
X128712Y219872D01*
X138288Y219938D02*
X138288Y205262D01*
X135212Y205262D01*
X135212Y219938D01*
X138288Y219938D01*
X138288Y206236D02*
X135212Y206236D01*
X135212Y207210D02*
X138288Y207210D01*
X138288Y208184D02*
X135212Y208184D01*
X135212Y209158D02*
X138288Y209158D01*
X138288Y210132D02*
X135212Y210132D01*
X135212Y211106D02*
X138288Y211106D01*
X138288Y212080D02*
X135212Y212080D01*
X135212Y213054D02*
X138288Y213054D01*
X138288Y214028D02*
X135212Y214028D01*
X135212Y215002D02*
X138288Y215002D01*
X138288Y215976D02*
X135212Y215976D01*
X135212Y216950D02*
X138288Y216950D01*
X138288Y217924D02*
X135212Y217924D01*
X135212Y218898D02*
X138288Y218898D01*
X138288Y219872D02*
X135212Y219872D01*
X144788Y219938D02*
X144788Y205262D01*
X141712Y205262D01*
X141712Y219938D01*
X144788Y219938D01*
X144788Y206236D02*
X141712Y206236D01*
X141712Y207210D02*
X144788Y207210D01*
X144788Y208184D02*
X141712Y208184D01*
X141712Y209158D02*
X144788Y209158D01*
X144788Y210132D02*
X141712Y210132D01*
X141712Y211106D02*
X144788Y211106D01*
X144788Y212080D02*
X141712Y212080D01*
X141712Y213054D02*
X144788Y213054D01*
X144788Y214028D02*
X141712Y214028D01*
X141712Y215002D02*
X144788Y215002D01*
X144788Y215976D02*
X141712Y215976D01*
X141712Y216950D02*
X144788Y216950D01*
X144788Y217924D02*
X141712Y217924D01*
X141712Y218898D02*
X144788Y218898D01*
X144788Y219872D02*
X141712Y219872D01*
X151288Y219938D02*
X151288Y205262D01*
X148212Y205262D01*
X148212Y219938D01*
X151288Y219938D01*
X151288Y206236D02*
X148212Y206236D01*
X148212Y207210D02*
X151288Y207210D01*
X151288Y208184D02*
X148212Y208184D01*
X148212Y209158D02*
X151288Y209158D01*
X151288Y210132D02*
X148212Y210132D01*
X148212Y211106D02*
X151288Y211106D01*
X151288Y212080D02*
X148212Y212080D01*
X148212Y213054D02*
X151288Y213054D01*
X151288Y214028D02*
X148212Y214028D01*
X148212Y215002D02*
X151288Y215002D01*
X151288Y215976D02*
X148212Y215976D01*
X148212Y216950D02*
X151288Y216950D01*
X151288Y217924D02*
X148212Y217924D01*
X148212Y218898D02*
X151288Y218898D01*
X151288Y219872D02*
X148212Y219872D01*
X157788Y219938D02*
X157788Y205262D01*
X154712Y205262D01*
X154712Y219938D01*
X157788Y219938D01*
X157788Y206236D02*
X154712Y206236D01*
X154712Y207210D02*
X157788Y207210D01*
X157788Y208184D02*
X154712Y208184D01*
X154712Y209158D02*
X157788Y209158D01*
X157788Y210132D02*
X154712Y210132D01*
X154712Y211106D02*
X157788Y211106D01*
X157788Y212080D02*
X154712Y212080D01*
X154712Y213054D02*
X157788Y213054D01*
X157788Y214028D02*
X154712Y214028D01*
X154712Y215002D02*
X157788Y215002D01*
X157788Y215976D02*
X154712Y215976D01*
X154712Y216950D02*
X157788Y216950D01*
X157788Y217924D02*
X154712Y217924D01*
X154712Y218898D02*
X157788Y218898D01*
X157788Y219872D02*
X154712Y219872D01*
X157788Y262662D02*
X157788Y277338D01*
X157788Y262662D02*
X154712Y262662D01*
X154712Y277338D01*
X157788Y277338D01*
X157788Y263636D02*
X154712Y263636D01*
X154712Y264610D02*
X157788Y264610D01*
X157788Y265584D02*
X154712Y265584D01*
X154712Y266558D02*
X157788Y266558D01*
X157788Y267532D02*
X154712Y267532D01*
X154712Y268506D02*
X157788Y268506D01*
X157788Y269480D02*
X154712Y269480D01*
X154712Y270454D02*
X157788Y270454D01*
X157788Y271428D02*
X154712Y271428D01*
X154712Y272402D02*
X157788Y272402D01*
X157788Y273376D02*
X154712Y273376D01*
X154712Y274350D02*
X157788Y274350D01*
X157788Y275324D02*
X154712Y275324D01*
X154712Y276298D02*
X157788Y276298D01*
X157788Y277272D02*
X154712Y277272D01*
X151288Y277338D02*
X151288Y262662D01*
X148212Y262662D01*
X148212Y277338D01*
X151288Y277338D01*
X151288Y263636D02*
X148212Y263636D01*
X148212Y264610D02*
X151288Y264610D01*
X151288Y265584D02*
X148212Y265584D01*
X148212Y266558D02*
X151288Y266558D01*
X151288Y267532D02*
X148212Y267532D01*
X148212Y268506D02*
X151288Y268506D01*
X151288Y269480D02*
X148212Y269480D01*
X148212Y270454D02*
X151288Y270454D01*
X151288Y271428D02*
X148212Y271428D01*
X148212Y272402D02*
X151288Y272402D01*
X151288Y273376D02*
X148212Y273376D01*
X148212Y274350D02*
X151288Y274350D01*
X151288Y275324D02*
X148212Y275324D01*
X148212Y276298D02*
X151288Y276298D01*
X151288Y277272D02*
X148212Y277272D01*
X144788Y277338D02*
X144788Y262662D01*
X141712Y262662D01*
X141712Y277338D01*
X144788Y277338D01*
X144788Y263636D02*
X141712Y263636D01*
X141712Y264610D02*
X144788Y264610D01*
X144788Y265584D02*
X141712Y265584D01*
X141712Y266558D02*
X144788Y266558D01*
X144788Y267532D02*
X141712Y267532D01*
X141712Y268506D02*
X144788Y268506D01*
X144788Y269480D02*
X141712Y269480D01*
X141712Y270454D02*
X144788Y270454D01*
X144788Y271428D02*
X141712Y271428D01*
X141712Y272402D02*
X144788Y272402D01*
X144788Y273376D02*
X141712Y273376D01*
X141712Y274350D02*
X144788Y274350D01*
X144788Y275324D02*
X141712Y275324D01*
X141712Y276298D02*
X144788Y276298D01*
X144788Y277272D02*
X141712Y277272D01*
X138288Y277338D02*
X138288Y262662D01*
X135212Y262662D01*
X135212Y277338D01*
X138288Y277338D01*
X138288Y263636D02*
X135212Y263636D01*
X135212Y264610D02*
X138288Y264610D01*
X138288Y265584D02*
X135212Y265584D01*
X135212Y266558D02*
X138288Y266558D01*
X138288Y267532D02*
X135212Y267532D01*
X135212Y268506D02*
X138288Y268506D01*
X138288Y269480D02*
X135212Y269480D01*
X135212Y270454D02*
X138288Y270454D01*
X138288Y271428D02*
X135212Y271428D01*
X135212Y272402D02*
X138288Y272402D01*
X138288Y273376D02*
X135212Y273376D01*
X135212Y274350D02*
X138288Y274350D01*
X138288Y275324D02*
X135212Y275324D01*
X135212Y276298D02*
X138288Y276298D01*
X138288Y277272D02*
X135212Y277272D01*
X131788Y277338D02*
X131788Y262662D01*
X128712Y262662D01*
X128712Y277338D01*
X131788Y277338D01*
X131788Y263636D02*
X128712Y263636D01*
X128712Y264610D02*
X131788Y264610D01*
X131788Y265584D02*
X128712Y265584D01*
X128712Y266558D02*
X131788Y266558D01*
X131788Y267532D02*
X128712Y267532D01*
X128712Y268506D02*
X131788Y268506D01*
X131788Y269480D02*
X128712Y269480D01*
X128712Y270454D02*
X131788Y270454D01*
X131788Y271428D02*
X128712Y271428D01*
X128712Y272402D02*
X131788Y272402D01*
X131788Y273376D02*
X128712Y273376D01*
X128712Y274350D02*
X131788Y274350D01*
X131788Y275324D02*
X128712Y275324D01*
X128712Y276298D02*
X131788Y276298D01*
X131788Y277272D02*
X128712Y277272D01*
X125288Y277338D02*
X125288Y262662D01*
X122212Y262662D01*
X122212Y277338D01*
X125288Y277338D01*
X125288Y263636D02*
X122212Y263636D01*
X122212Y264610D02*
X125288Y264610D01*
X125288Y265584D02*
X122212Y265584D01*
X122212Y266558D02*
X125288Y266558D01*
X125288Y267532D02*
X122212Y267532D01*
X122212Y268506D02*
X125288Y268506D01*
X125288Y269480D02*
X122212Y269480D01*
X122212Y270454D02*
X125288Y270454D01*
X125288Y271428D02*
X122212Y271428D01*
X122212Y272402D02*
X125288Y272402D01*
X125288Y273376D02*
X122212Y273376D01*
X122212Y274350D02*
X125288Y274350D01*
X125288Y275324D02*
X122212Y275324D01*
X122212Y276298D02*
X125288Y276298D01*
X125288Y277272D02*
X122212Y277272D01*
X118788Y277338D02*
X118788Y262662D01*
X115712Y262662D01*
X115712Y277338D01*
X118788Y277338D01*
X118788Y263636D02*
X115712Y263636D01*
X115712Y264610D02*
X118788Y264610D01*
X118788Y265584D02*
X115712Y265584D01*
X115712Y266558D02*
X118788Y266558D01*
X118788Y267532D02*
X115712Y267532D01*
X115712Y268506D02*
X118788Y268506D01*
X118788Y269480D02*
X115712Y269480D01*
X115712Y270454D02*
X118788Y270454D01*
X118788Y271428D02*
X115712Y271428D01*
X115712Y272402D02*
X118788Y272402D01*
X118788Y273376D02*
X115712Y273376D01*
X115712Y274350D02*
X118788Y274350D01*
X118788Y275324D02*
X115712Y275324D01*
X115712Y276298D02*
X118788Y276298D01*
X118788Y277272D02*
X115712Y277272D01*
X112288Y277338D02*
X112288Y262662D01*
X109212Y262662D01*
X109212Y277338D01*
X112288Y277338D01*
X112288Y263636D02*
X109212Y263636D01*
X109212Y264610D02*
X112288Y264610D01*
X112288Y265584D02*
X109212Y265584D01*
X109212Y266558D02*
X112288Y266558D01*
X112288Y267532D02*
X109212Y267532D01*
X109212Y268506D02*
X112288Y268506D01*
X112288Y269480D02*
X109212Y269480D01*
X109212Y270454D02*
X112288Y270454D01*
X112288Y271428D02*
X109212Y271428D01*
X109212Y272402D02*
X112288Y272402D01*
X112288Y273376D02*
X109212Y273376D01*
X109212Y274350D02*
X112288Y274350D01*
X112288Y275324D02*
X109212Y275324D01*
X109212Y276298D02*
X112288Y276298D01*
X112288Y277272D02*
X109212Y277272D01*
X105788Y277338D02*
X105788Y262662D01*
X102712Y262662D01*
X102712Y277338D01*
X105788Y277338D01*
X105788Y263636D02*
X102712Y263636D01*
X102712Y264610D02*
X105788Y264610D01*
X105788Y265584D02*
X102712Y265584D01*
X102712Y266558D02*
X105788Y266558D01*
X105788Y267532D02*
X102712Y267532D01*
X102712Y268506D02*
X105788Y268506D01*
X105788Y269480D02*
X102712Y269480D01*
X102712Y270454D02*
X105788Y270454D01*
X105788Y271428D02*
X102712Y271428D01*
X102712Y272402D02*
X105788Y272402D01*
X105788Y273376D02*
X102712Y273376D01*
X102712Y274350D02*
X105788Y274350D01*
X105788Y275324D02*
X102712Y275324D01*
X102712Y276298D02*
X105788Y276298D01*
X105788Y277272D02*
X102712Y277272D01*
X99288Y277338D02*
X99288Y262662D01*
X96212Y262662D01*
X96212Y277338D01*
X99288Y277338D01*
X99288Y263636D02*
X96212Y263636D01*
X96212Y264610D02*
X99288Y264610D01*
X99288Y265584D02*
X96212Y265584D01*
X96212Y266558D02*
X99288Y266558D01*
X99288Y267532D02*
X96212Y267532D01*
X96212Y268506D02*
X99288Y268506D01*
X99288Y269480D02*
X96212Y269480D01*
X96212Y270454D02*
X99288Y270454D01*
X99288Y271428D02*
X96212Y271428D01*
X96212Y272402D02*
X99288Y272402D01*
X99288Y273376D02*
X96212Y273376D01*
X96212Y274350D02*
X99288Y274350D01*
X99288Y275324D02*
X96212Y275324D01*
X96212Y276298D02*
X99288Y276298D01*
X99288Y277272D02*
X96212Y277272D01*
M02*
