G04 EAGLE Gerber RS-274X export*
G75*
%MOMM*%
%FSLAX34Y34*%
%LPD*%
%INSoldermask Bottom*%
%IPPOS*%
%AMOC8*
5,1,8,0,0,1.08239X$1,22.5*%
G01*
%ADD10C,4.648200*%
%ADD11R,1.854200X1.854200*%
%ADD12C,1.854200*%
%ADD13R,1.727200X1.727200*%
%ADD14P,1.869504X8X22.500000*%
%ADD15C,0.959600*%


D10*
X38100Y431800D03*
X571500Y431800D03*
X571500Y38100D03*
X38100Y38100D03*
D11*
X533400Y203200D03*
D12*
X508000Y203200D03*
X482600Y203200D03*
X457200Y203200D03*
D11*
X533400Y241300D03*
D12*
X508000Y241300D03*
X482600Y241300D03*
X457200Y241300D03*
D11*
X533400Y279400D03*
D12*
X508000Y279400D03*
X482600Y279400D03*
X457200Y279400D03*
D11*
X63500Y266700D03*
D12*
X63500Y241300D03*
X63500Y215900D03*
D13*
X71800Y98800D03*
D14*
X71800Y124200D03*
X97200Y98800D03*
X97200Y124200D03*
X122600Y98800D03*
X122600Y124200D03*
X148000Y98800D03*
X148000Y124200D03*
X173400Y98800D03*
X173400Y124200D03*
X198800Y98800D03*
X198800Y124200D03*
X224200Y98800D03*
X224200Y124200D03*
X249600Y98800D03*
X249600Y124200D03*
X275000Y98800D03*
X275000Y124200D03*
X300400Y98800D03*
X300400Y124200D03*
X325800Y98800D03*
X325800Y124200D03*
X351200Y98800D03*
X351200Y124200D03*
X376600Y98800D03*
X376600Y124200D03*
X402000Y98800D03*
X402000Y124200D03*
X427400Y98800D03*
X427400Y124200D03*
X452800Y98800D03*
X452800Y124200D03*
X478200Y98800D03*
X478200Y124200D03*
X503600Y98800D03*
X503600Y124200D03*
D13*
X71800Y352800D03*
D14*
X71800Y378200D03*
X97200Y352800D03*
X97200Y378200D03*
X122600Y352800D03*
X122600Y378200D03*
X148000Y352800D03*
X148000Y378200D03*
X173400Y352800D03*
X173400Y378200D03*
X198800Y352800D03*
X198800Y378200D03*
X224200Y352800D03*
X224200Y378200D03*
X249600Y352800D03*
X249600Y378200D03*
X275000Y352800D03*
X275000Y378200D03*
X300400Y352800D03*
X300400Y378200D03*
X325800Y352800D03*
X325800Y378200D03*
X351200Y352800D03*
X351200Y378200D03*
X376600Y352800D03*
X376600Y378200D03*
X402000Y352800D03*
X402000Y378200D03*
X427400Y352800D03*
X427400Y378200D03*
X452800Y352800D03*
X452800Y378200D03*
X478200Y352800D03*
X478200Y378200D03*
X503600Y352800D03*
X503600Y378200D03*
D15*
X160020Y284480D03*
M02*
