M48
;GenerationSoftware,Autodesk,EAGLE,9.6.2*%
;CreationDate,2023-05-03T02:43:44Z*%
FMAT,2
ICI,OFF
METRIC,TZ,000.000
T3C0.350
T2C0.889
T1C3.175
%
G90
M71
T1
X3810Y3810
X3810Y43180
X57150Y43180
X57150Y3810
T2
X48260Y24130
X53340Y20320
X50800Y20320
X48260Y20320
X45720Y20320
X53340Y24130
X50800Y24130
X9720Y9880
X45720Y24130
X53340Y27940
X50800Y27940
X48260Y27940
X45720Y27940
X6350Y26670
X6350Y24130
X6350Y21590
X7180Y9880
X7180Y12420
X50360Y37820
X9720Y12420
X12260Y9880
X12260Y12420
X14800Y9880
X14800Y12420
X17340Y9880
X17340Y12420
X19880Y9880
X19880Y12420
X22420Y9880
X22420Y12420
X24960Y9880
X24960Y12420
X27500Y9880
X27500Y12420
X30040Y9880
X30040Y12420
X32580Y9880
X32580Y12420
X35120Y9880
X35120Y12420
X37660Y9880
X37660Y12420
X40200Y9880
X40200Y12420
X42740Y9880
X42740Y12420
X45280Y9880
X45280Y12420
X47820Y9880
X47820Y12420
X50360Y9880
X50360Y12420
X7180Y35280
X7180Y37820
X9720Y35280
X9720Y37820
X12260Y35280
X12260Y37820
X14800Y35280
X14800Y37820
X17340Y35280
X17340Y37820
X19880Y35280
X19880Y37820
X22420Y35280
X22420Y37820
X24960Y35280
X24960Y37820
X27500Y35280
X27500Y37820
X30040Y35280
X30040Y37820
X32580Y35280
X32580Y37820
X35120Y35280
X35120Y37820
X37660Y35280
X37660Y37820
X40200Y35280
X40200Y37820
X42740Y35280
X42740Y37820
X45280Y35280
X45280Y37820
X47820Y35280
X47820Y37820
X50360Y35280
T3
X16002Y28448
M30